<svg width="106" height="21" viewBox="0 0 106 21" fill="none" xmlns="http://www.w3.org/2000/svg">
<path d="M19.7725 8.22705C17.8898 8.22705 16.3292 8.81608 15.1153 10.0433C13.9015 11.2215 13.2822 12.7432 13.2822 14.584C13.2822 16.4002 13.8768 17.8975 15.1153 19.1247C16.3292 20.3028 17.8898 20.9165 19.7725 20.9165C21.6551 20.9165 23.2158 20.3274 24.4296 19.1247C25.6434 17.922 26.2874 16.4002 26.2874 14.584C26.2874 12.7432 25.6681 11.2459 24.4296 10.0433C23.191 8.81608 21.6551 8.22705 19.7725 8.22705ZM22.2992 17.4065C21.6799 18.1429 20.8376 18.4865 19.7725 18.4865C18.7073 18.4865 17.8651 18.1429 17.2458 17.4065C16.6265 16.6702 16.3045 15.7376 16.3045 14.584C16.3045 13.4305 16.6265 12.4732 17.2458 11.7614C17.8651 11.0251 18.7073 10.6814 19.7725 10.6814C20.8376 10.6814 21.6799 11.0251 22.2992 11.7614C22.9433 12.4977 23.2901 13.4305 23.2901 14.584C23.2901 15.7376 22.9681 16.6702 22.2992 17.4065Z" fill="#0053F1"/>
<path d="M31.2409 1.37881C30.9684 1.08428 30.7454 0.937012 30.572 0.937012H27.104C26.9059 0.937012 26.7077 1.05973 26.3856 1.37881C26.1131 1.6488 25.9893 1.8697 25.9893 2.04151C25.9893 2.21331 26.1131 2.43421 26.3856 2.75328C26.6828 3.02328 26.9059 3.146 27.104 3.146H28.8628V20.646H31.662V2.04151C31.6868 1.84516 31.5382 1.6488 31.2409 1.37881Z" fill="#0053F1"/>
<path d="M46.0798 17.5781V2.04151C46.0798 1.84516 45.9311 1.6488 45.6339 1.37881C45.3614 1.08428 45.1384 0.937012 44.965 0.937012H42.2897C42.0915 0.937012 41.8933 1.05973 41.5713 1.37881C41.2988 1.6488 41.175 1.8697 41.175 2.04151C41.175 2.21331 41.2988 2.43421 41.5713 2.75329C41.8685 3.02328 42.0915 3.146 42.2897 3.146H43.2805V8.61939C42.4631 8.34937 41.6704 8.22662 40.8777 8.22662C38.9454 8.22662 37.36 8.81573 36.1214 10.0429C34.8581 11.2211 34.2388 12.7673 34.2388 14.6572C34.2388 16.449 34.7838 17.9216 35.8985 19.0997C37.0133 20.2779 38.4253 20.8915 40.1098 20.8915C41.3978 20.8915 42.5126 20.4988 43.4539 19.7134C43.776 20.1552 44.3705 20.646 44.6677 20.646H46.3522V20.3269L46.278 20.1061C46.1788 19.8606 46.0798 18.8543 46.0798 17.5781ZM43.2557 17.7253C42.587 18.2407 41.7695 18.4861 40.8034 18.4861C38.5986 18.4861 37.2114 16.8908 37.2114 14.6082C37.2114 12.2274 38.6234 10.632 41.0016 10.632C41.8437 10.632 42.6117 10.8038 43.2557 11.1475V17.7253Z" fill="#0053F1"/>
<path d="M53.759 13.4057C53.0164 13.1113 52.5698 12.8903 52.3719 12.7922C51.7282 12.4731 51.3806 12.0803 51.3806 11.6876C51.3806 10.9513 52.0742 10.5095 53.2392 10.5095C54.2546 10.5095 55.0472 10.7795 55.6168 11.344C55.8156 11.344 56.1374 11.1231 56.5333 10.7304C56.9291 10.3377 57.1528 9.99409 57.1528 9.82228C56.1374 8.76689 54.7994 8.25146 53.1644 8.25146C50.2413 8.25146 48.7552 9.57687 48.7552 11.8349C48.7552 13.6512 49.6966 14.5348 52.3228 15.6147L53.759 16.2283C54.5515 16.572 54.9233 16.9892 54.9233 17.382C54.9233 18.1673 54.0809 18.6582 52.8418 18.6582C51.7025 18.6582 50.7369 18.29 50.0184 17.5537C49.8205 17.5537 49.4987 17.7746 49.0771 18.1919C48.6563 18.6337 48.4575 18.9528 48.4575 19.1245C49.6218 20.2782 51.1336 20.8671 52.9415 20.8671C55.8896 20.8671 57.5736 19.4927 57.5736 17.2592C57.5736 16.351 57.2767 15.6147 56.7063 15.0993C56.1615 14.5839 55.1461 13.9948 53.759 13.4057Z" fill="#0053F1"/>
<path d="M67.4834 18.4126C67.1366 18.0444 66.8397 17.8481 66.6409 17.8481C66.1703 18.3144 65.5757 18.5107 64.7831 18.5107C63.8916 18.5107 63.4209 18.0199 63.4209 17.0872V10.7057H67.3595V8.49672H63.4209V4.0542H62.6276L60.7706 5.06051V8.49672H59.4326C59.2338 8.49672 58.9868 8.61946 58.7141 8.8894C58.4413 9.15942 58.3174 9.40483 58.3174 9.60117C58.3174 9.79759 58.4413 9.99393 58.7141 10.313C59.0109 10.583 59.2338 10.7057 59.4326 10.7057H60.5968V17.5781C60.5968 19.7871 61.786 20.8915 64.1636 20.8915C65.6255 20.8915 66.9137 20.3516 68.0281 19.2471C68.053 19.0508 67.8551 18.7562 67.4834 18.4126Z" fill="#0053F1"/>
<path d="M79.2013 17.5784V12.4732C79.2013 9.69974 77.5414 8.22705 74.2956 8.22705C72.3388 8.22705 70.7288 8.81608 69.4906 10.0433C69.4906 10.2888 69.7134 10.6078 70.1342 11.0496C70.58 11.4424 70.9018 11.6632 71.1247 11.6632C71.918 10.9024 72.8844 10.5342 74.0486 10.5342C75.4856 10.5342 76.4021 11.2459 76.4021 12.5469V13.4795C75.7825 13.4059 75.2121 13.3813 74.6674 13.3813C71.1006 13.3813 69.1929 14.8049 69.1929 17.333C69.1929 19.6155 70.8528 20.8919 73.2553 20.8919C74.5692 20.8919 75.6836 20.4992 76.5751 19.6892C76.9218 20.1556 77.5164 20.671 77.8383 20.671H79.5231V20.3519L79.4483 20.131C79.3002 19.861 79.2013 18.8547 79.2013 17.5784ZM76.4021 17.6766C75.7576 18.3147 74.9401 18.6583 73.9497 18.6583C72.6366 18.6583 71.9929 18.1429 71.9929 17.1121C71.9929 15.9585 72.8844 15.394 74.6923 15.394C75.262 15.394 75.8316 15.4431 76.4021 15.5166V17.6766Z" fill="#0053F1"/>
<path d="M92.2304 18.192C91.8088 17.7993 91.4869 17.5784 91.289 17.5784C90.5954 18.1675 89.6541 18.462 88.3659 18.462C85.9384 18.462 84.5505 16.8667 84.5505 14.584C84.5505 12.2278 85.9634 10.6324 88.2669 10.6324C89.1834 10.6324 89.8769 10.8533 90.3476 11.2459V12.5223C90.3476 12.7186 90.4715 12.915 90.7934 13.2341C91.0911 13.5041 91.3139 13.6267 91.4869 13.6267C91.6857 13.6267 91.8836 13.5041 92.1564 13.2341C92.4533 12.9395 92.6021 12.7186 92.6021 12.5223V10.166C92.6021 9.77333 92.1564 9.33158 91.3139 8.88976C90.4715 8.42339 89.4561 8.22705 88.2669 8.22705C86.3351 8.22705 84.7251 8.81608 83.511 10.0188C82.2719 11.1969 81.6523 12.7186 81.6523 14.5595C81.6523 16.4248 82.2719 17.922 83.511 19.1247C84.7251 20.3028 86.3351 20.9165 88.316 20.9165C90.2237 20.9165 91.7846 20.3274 92.9489 19.1738C92.8741 18.9283 92.6512 18.5848 92.2304 18.192Z" fill="#0053F1"/>
<path d="M11.4019 18.192C10.9807 17.7993 10.6587 17.5784 10.461 17.5784C9.76732 18.1675 8.82562 18.462 7.53746 18.462C5.10999 18.462 3.72262 16.8667 3.72262 14.584C3.72262 12.2278 5.13509 10.6324 7.43825 10.6324C8.35549 10.6324 9.0485 10.8533 9.51935 11.2459V12.5223C9.51935 12.7186 9.64293 12.915 9.96501 13.2341C10.2626 13.5041 10.4854 13.6267 10.6587 13.6267C10.8571 13.6267 11.0555 13.5041 11.3279 13.2341C11.6248 12.9395 11.7736 12.7186 11.7736 12.5223V10.166C11.7736 9.77333 11.3279 9.33158 10.4854 8.88976C9.64293 8.42339 8.62793 8.22705 7.43825 8.22705C5.50674 8.22705 3.89657 8.81608 2.68244 10.0188C1.44392 11.1969 0.824219 12.7186 0.824219 14.5595C0.824219 16.4248 1.44392 17.922 2.68244 19.1247C3.89657 20.3028 5.50674 20.9165 7.4879 20.9165C9.39568 20.9165 10.9563 20.3274 12.1208 19.1738C12.046 18.9283 11.8231 18.5848 11.4019 18.192Z" fill="#0053F1"/>
<path d="M101.52 14.3872L105.434 9.89573C105.434 9.67477 105.162 9.35569 104.617 8.88941C104.096 8.42304 103.725 8.22662 103.502 8.22662L99.1915 13.1355L98.1013 13.2828V2.04151C98.1013 1.84516 97.9774 1.6488 97.6556 1.37881C97.3828 1.08428 97.1599 0.937012 96.962 0.937012H94.2859C94.0888 0.937012 93.8901 1.05973 93.5682 1.37881C93.2955 1.6488 93.1724 1.8697 93.1724 2.04151C93.1724 2.21331 93.2955 2.43421 93.5682 2.75328C93.8659 3.02328 94.0888 3.146 94.2859 3.146H95.278V20.646H98.0764V15.7126L99.0926 15.5899L103.775 20.9161C103.997 20.9161 104.368 20.6706 104.889 20.2043C105.409 19.7134 105.681 19.3698 105.681 19.1489L101.52 14.3872Z" fill="#0053F1"/>
</svg>
