<svg width="181" height="16" viewBox="0 0 181 16" fill="none" xmlns="http://www.w3.org/2000/svg">
<g clip-path="url(#clip0_36_655)">
<path d="M6.78987 12.9851C5.63101 12.9851 4.58048 12.7505 3.63823 12.2815C2.70682 11.8023 1.97036 11.1447 1.42884 10.3086C0.898154 9.46227 0.632812 8.50899 0.632812 7.44858C0.632812 6.38819 0.898154 5.43996 1.42884 4.60388C1.97036 3.75761 2.70682 3.09996 3.63823 2.63093C4.58048 2.15172 5.63643 1.91211 6.8061 1.91211C7.79167 1.91211 8.67973 2.07525 9.47036 2.40153C10.2719 2.7278 10.9433 3.19682 11.4848 3.80858L9.79531 5.27681C9.02635 4.44074 8.07326 4.0227 6.93607 4.0227C6.2321 4.0227 5.60394 4.17054 5.05159 4.46623C4.49925 4.75172 4.06603 5.15446 3.75195 5.67446C3.4487 6.19446 3.29708 6.78584 3.29708 7.44858C3.29708 8.11131 3.4487 8.70267 3.75195 9.22267C4.06603 9.74267 4.49925 10.1505 5.05159 10.4462C5.60394 10.7317 6.2321 10.8744 6.93607 10.8744C8.07326 10.8744 9.02635 10.4513 9.79531 9.60507L11.4848 11.0733C10.9433 11.6952 10.2719 12.1694 9.47036 12.4956C8.66894 12.8219 7.77542 12.9851 6.78987 12.9851Z" fill="#020202"/>
<path d="M16.6417 5.65844C16.945 5.26079 17.3511 4.96 17.8601 4.75608C18.38 4.55216 18.9757 4.4502 19.6472 4.4502V6.65255C19.3656 6.63215 19.1761 6.62196 19.0786 6.62196C18.3529 6.62196 17.7843 6.81568 17.3728 7.20314C16.9613 7.58039 16.7554 8.15137 16.7554 8.91609V12.8008H14.2212V4.57255H16.6417V5.65844Z" fill="#020202"/>
<path d="M31.2661 4.57227L27.3184 13.3052C26.9176 14.2534 26.4194 14.9213 25.8238 15.3088C25.2389 15.6962 24.5295 15.8899 23.6956 15.8899C23.2408 15.8899 22.7913 15.8236 22.3473 15.6911C21.9032 15.5585 21.5404 15.375 21.2588 15.1405L22.1848 13.4429C22.3797 13.606 22.6018 13.7334 22.8508 13.8252C23.1108 13.917 23.3653 13.9629 23.6144 13.9629C23.961 13.9629 24.2426 13.8812 24.4592 13.7181C24.6758 13.5652 24.8707 13.3052 25.044 12.9381L25.0765 12.8617L21.2913 4.57227H23.9068L26.3598 10.1546L28.8292 4.57227H31.2661Z" fill="#020202"/>
<path d="M38.6041 4.4502C39.4163 4.4502 40.1528 4.62863 40.8134 4.98549C41.4849 5.33216 42.0102 5.82667 42.3892 6.46902C42.7683 7.10118 42.9578 7.8404 42.9578 8.68665C42.9578 9.53297 42.7683 10.2773 42.3892 10.9196C42.0102 11.5518 41.4849 12.0463 40.8134 12.4031C40.1528 12.7498 39.4163 12.9231 38.6041 12.9231C37.4885 12.9231 36.6113 12.5918 35.9722 11.9291V15.7679H33.438V4.57255H35.8585V5.52079C36.4867 4.80706 37.4019 4.4502 38.6041 4.4502ZM38.1654 10.9655C38.8152 10.9655 39.3459 10.7615 39.7574 10.3537C40.1799 9.93569 40.391 9.38001 40.391 8.68665C40.391 7.99333 40.1799 7.44275 39.7574 7.0349C39.3459 6.61687 38.8152 6.40784 38.1654 6.40784C37.5156 6.40784 36.9795 6.61687 36.5571 7.0349C36.1455 7.44275 35.9398 7.99333 35.9398 8.68665C35.9398 9.38001 36.1455 9.93569 36.5571 10.3537C36.9795 10.7615 37.5156 10.9655 38.1654 10.9655Z" fill="#020202"/>
<path d="M51.4293 12.4025C51.1802 12.5759 50.8715 12.7085 50.5033 12.8002C50.1459 12.8817 49.7668 12.9225 49.3662 12.9225C48.3264 12.9225 47.5195 12.6728 46.9455 12.1731C46.3824 11.6735 46.1008 10.9394 46.1008 9.97078V6.59078H44.7524V4.75549H46.1008V2.75195H48.6351V4.75549H50.812V6.59078H48.6351V9.94022C48.6351 10.2869 48.7271 10.557 48.9113 10.7508C49.1062 10.9343 49.377 11.0261 49.7236 11.0261C50.1242 11.0261 50.4654 10.9241 50.747 10.7202L51.4293 12.4025Z" fill="#020202"/>
<path d="M57.878 12.9231C56.9574 12.9231 56.1289 12.7447 55.3924 12.3879C54.6668 12.0208 54.0982 11.5161 53.6867 10.8737C53.2752 10.2314 53.0693 9.50233 53.0693 8.68665C53.0693 7.87098 53.2752 7.14196 53.6867 6.49961C54.0982 5.85725 54.6668 5.35765 55.3924 5.00079C56.1289 4.63372 56.9574 4.4502 57.878 4.4502C58.7986 4.4502 59.6217 4.63372 60.3473 5.00079C61.0729 5.35765 61.6415 5.85725 62.0531 6.49961C62.4647 7.14196 62.6704 7.87098 62.6704 8.68665C62.6704 9.50233 62.4647 10.2314 62.0531 10.8737C61.6415 11.5161 61.0729 12.0208 60.3473 12.3879C59.6217 12.7447 58.7986 12.9231 57.878 12.9231ZM57.878 10.9655C58.5278 10.9655 59.0585 10.7615 59.47 10.3537C59.8924 9.93569 60.1036 9.38001 60.1036 8.68665C60.1036 7.99333 59.8924 7.44275 59.47 7.0349C59.0585 6.61687 58.5278 6.40784 57.878 6.40784C57.2282 6.40784 56.6921 6.61687 56.2697 7.0349C55.8473 7.44275 55.6361 7.99333 55.6361 8.68665C55.6361 9.38001 55.8473 9.93569 56.2697 10.3537C56.6921 10.7615 57.2282 10.9655 57.878 10.9655Z" fill="#020202"/>
<path d="M70.8143 4.4502C71.8973 4.4502 72.7691 4.75608 73.4298 5.36784C74.1012 5.97961 74.437 6.88706 74.437 8.09017V12.8008H71.9027V8.45729C71.9027 7.80471 71.751 7.3204 71.4478 7.00432C71.1446 6.67804 70.7059 6.5149 70.132 6.5149C69.493 6.5149 68.9839 6.70353 68.6049 7.08079C68.2258 7.44784 68.0363 7.99843 68.0363 8.73257V12.8008H65.502V4.57255H67.9226V5.53608C68.2582 5.18941 68.6752 4.92432 69.1734 4.74079C69.6717 4.54706 70.2186 4.4502 70.8143 4.4502Z" fill="#020202"/>
<path d="M85.6555 15.7684C85.0054 14.8406 84.5022 13.7649 84.1448 12.5414C83.7983 11.3179 83.625 10.0076 83.625 8.61075C83.625 7.21391 83.7983 5.90372 84.1448 4.68019C84.5022 3.44646 85.0054 2.37077 85.6555 1.45312H88.0765C87.3941 2.58489 86.8953 3.73705 86.5818 4.9096C86.2673 6.07195 86.1101 7.30568 86.1101 8.61075C86.1101 9.91587 86.2673 11.1547 86.5818 12.3272C86.8953 13.4896 87.3941 14.6367 88.0765 15.7684H85.6555Z" fill="#020202"/>
<path d="M105.21 12.9851L103.846 11.7921C102.762 12.5874 101.495 12.9851 100.044 12.9851C99.2212 12.9851 98.4793 12.8627 97.8182 12.618C97.1579 12.3631 96.6379 12.0113 96.2589 11.5627C95.8901 11.1141 95.7065 10.6094 95.7065 10.0486C95.7065 9.38589 95.9011 8.80469 96.2912 8.30509C96.6923 7.79526 97.3313 7.31095 98.2083 6.85213C97.797 6.45448 97.4987 6.07722 97.3143 5.72037C97.1307 5.3533 97.0381 4.97605 97.0381 4.5886C97.0381 4.0686 97.1851 3.60978 97.4775 3.21213C97.7698 2.81448 98.1811 2.5086 98.7122 2.29448C99.2535 2.07017 99.8763 1.95801 100.58 1.95801C101.566 1.95801 102.356 2.18233 102.952 2.63095C103.547 3.06938 103.846 3.66586 103.846 4.42037C103.846 4.97095 103.666 5.46037 103.309 5.8886C102.963 6.31683 102.399 6.72978 101.62 7.12742L103.699 8.94741C103.948 8.45805 104.138 7.90233 104.268 7.28037L106.299 7.87683C106.082 8.82509 105.735 9.63565 105.259 10.3086L106.591 11.4709L105.21 12.9851ZM100.58 3.57919C100.201 3.57919 99.8976 3.67095 99.6707 3.85448C99.454 4.03802 99.3452 4.27252 99.3452 4.55801C99.3452 4.77213 99.4047 4.97605 99.5237 5.16978C99.6435 5.3533 99.8763 5.60311 100.223 5.91919C100.775 5.6439 101.159 5.39919 101.376 5.18507C101.593 4.96076 101.701 4.72115 101.701 4.46625C101.701 4.20115 101.604 3.98703 101.408 3.8239C101.214 3.66076 100.938 3.57919 100.58 3.57919ZM100.223 11.1192C101.013 11.1192 101.723 10.9102 102.351 10.4921L99.6053 8.07565C99.0963 8.35093 98.7334 8.62117 98.5167 8.88621C98.3 9.15133 98.1921 9.45213 98.1921 9.78861C98.1921 10.1863 98.3757 10.5074 98.7445 10.7521C99.1124 10.9968 99.6053 11.1192 100.223 11.1192Z" fill="#11C3CB"/>
<path d="M113.161 12.9851C112.263 12.9851 111.391 12.8729 110.547 12.6486C109.712 12.4141 109.041 12.1133 108.532 11.7462L109.425 9.88035C109.913 10.2168 110.492 10.487 111.163 10.6909C111.835 10.8948 112.506 10.9968 113.178 10.9968C113.925 10.9968 114.478 10.8948 114.835 10.6909C115.192 10.4768 115.371 10.1964 115.371 9.84979C115.371 9.59483 115.263 9.38587 115.046 9.22267C114.84 9.04939 114.569 8.91171 114.234 8.80979C113.909 8.70779 113.465 8.59563 112.902 8.47331C112.035 8.27955 111.326 8.08587 110.773 7.89211C110.221 7.69839 109.744 7.38741 109.344 6.95917C108.954 6.53093 108.759 5.95996 108.759 5.24623C108.759 4.62427 108.938 4.06349 109.295 3.56388C109.653 3.05407 110.189 2.65133 110.903 2.35564C111.629 2.05996 112.512 1.91211 113.551 1.91211C114.277 1.91211 114.987 1.99368 115.68 2.15681C116.373 2.31996 116.979 2.55446 117.499 2.86035L116.687 4.74153C115.637 4.18074 114.585 3.90035 113.535 3.90035C112.799 3.90035 112.252 4.0125 111.894 4.23682C111.548 4.46113 111.375 4.75681 111.375 5.12388C111.375 5.49093 111.575 5.76623 111.976 5.94976C112.387 6.12309 113.01 6.29642 113.844 6.46976C114.71 6.66349 115.42 6.85721 115.972 7.05093C116.525 7.24466 116.995 7.55054 117.385 7.96858C117.787 8.38659 117.986 8.95251 117.986 9.66627C117.986 10.278 117.803 10.8387 117.434 11.3486C117.077 11.8482 116.536 12.2459 115.81 12.5415C115.084 12.8372 114.201 12.9851 113.161 12.9851Z" fill="#11C3CB"/>
<path d="M126.382 12.4025C126.133 12.5759 125.824 12.7085 125.456 12.8002C125.099 12.8817 124.72 12.9225 124.318 12.9225C123.279 12.9225 122.472 12.6728 121.898 12.1731C121.335 11.6735 121.054 10.9394 121.054 9.97078V6.59078H119.705V4.75549H121.054V2.75195H123.588V4.75549H125.765V6.59078H123.588V9.94022C123.588 10.2869 123.68 10.557 123.864 10.7508C124.059 10.9343 124.33 11.0261 124.676 11.0261C125.077 11.0261 125.418 10.9241 125.699 10.7202L126.382 12.4025Z" fill="#11C3CB"/>
<path d="M137.746 4.57227V12.8005H135.341V11.8217C135.006 12.1785 134.605 12.4538 134.139 12.6476C133.673 12.8311 133.17 12.9229 132.628 12.9229C131.481 12.9229 130.571 12.6119 129.899 11.9899C129.228 11.368 128.892 10.4452 128.892 9.22165V4.57227H131.426V8.86989C131.426 10.1954 132.016 10.8581 133.197 10.8581C133.803 10.8581 134.291 10.6746 134.659 10.3076C135.028 9.93029 135.211 9.37461 135.211 8.64053V4.57227H137.746Z" fill="#11C3CB"/>
<path d="M150.134 1.45312V12.8014H147.714V11.8531C147.085 12.5668 146.175 12.9237 144.984 12.9237C144.161 12.9237 143.414 12.7503 142.742 12.4037C142.081 12.0571 141.561 11.5625 141.182 10.9202C140.803 10.2779 140.614 9.53355 140.614 8.68723C140.614 7.84097 140.803 7.09666 141.182 6.4543C141.561 5.81195 142.081 5.31744 142.742 4.97077C143.414 4.62411 144.161 4.45077 144.984 4.45077C146.1 4.45077 146.972 4.78215 147.6 5.44489V1.45312H150.134ZM145.423 10.9661C146.062 10.9661 146.593 10.7621 147.015 10.3543C147.437 9.93627 147.648 9.38059 147.648 8.68723C147.648 7.99391 147.437 7.44332 147.015 7.03548C146.593 6.61744 146.062 6.40842 145.423 6.40842C144.773 6.40842 144.237 6.61744 143.814 7.03548C143.392 7.44332 143.181 7.99391 143.181 8.68723C143.181 9.38059 143.392 9.93627 143.814 10.3543C144.237 10.7621 144.773 10.9661 145.423 10.9661Z" fill="#11C3CB"/>
<path d="M153.617 4.5719H156.151V12.8002H153.617V4.5719ZM154.884 3.42485C154.419 3.42485 154.04 3.2974 153.747 3.0425C153.455 2.78759 153.308 2.47151 153.308 2.09426C153.308 1.71701 153.455 1.40093 153.747 1.14603C154.04 0.891121 154.419 0.763672 154.884 0.763672C155.35 0.763672 155.729 0.886025 156.021 1.13073C156.314 1.37543 156.46 1.68132 156.46 2.04838C156.46 2.44603 156.314 2.7774 156.021 3.0425C155.729 3.2974 155.35 3.42485 154.884 3.42485Z" fill="#11C3CB"/>
<path d="M163.799 12.9231C162.879 12.9231 162.05 12.7447 161.313 12.3879C160.588 12.0208 160.019 11.5161 159.608 10.8737C159.197 10.2314 158.99 9.50233 158.99 8.68665C158.99 7.87098 159.197 7.14196 159.608 6.49961C160.019 5.85725 160.588 5.35765 161.313 5.00079C162.05 4.63372 162.879 4.4502 163.799 4.4502C164.72 4.4502 165.543 4.63372 166.268 5.00079C166.994 5.35765 167.563 5.85725 167.975 6.49961C168.386 7.14196 168.592 7.87098 168.592 8.68665C168.592 9.50233 168.386 10.2314 167.975 10.8737C167.563 11.5161 166.994 12.0208 166.268 12.3879C165.543 12.7447 164.72 12.9231 163.799 12.9231ZM163.799 10.9655C164.449 10.9655 164.979 10.7615 165.392 10.3537C165.814 9.93569 166.025 9.38001 166.025 8.68665C166.025 7.99333 165.814 7.44275 165.392 7.0349C164.979 6.61687 164.449 6.40784 163.799 6.40784C163.15 6.40784 162.614 6.61687 162.191 7.0349C161.769 7.44275 161.557 7.99333 161.557 8.68665C161.557 9.38001 161.769 9.93569 162.191 10.3537C162.614 10.7615 163.15 10.9655 163.799 10.9655Z" fill="#11C3CB"/>
<path d="M176.154 15.7684C176.836 14.6367 177.334 13.4896 177.649 12.3272C177.973 11.1547 178.135 9.91587 178.135 8.61075C178.135 7.30568 177.973 6.07195 177.649 4.9096C177.334 3.73705 176.836 2.58489 176.154 1.45312H178.574C179.235 2.36058 179.738 3.43117 180.085 4.66489C180.443 5.88842 180.621 7.20372 180.621 8.61075C180.621 10.0179 180.448 11.3332 180.101 12.5567C179.755 13.77 179.246 14.8406 178.574 15.7684H176.154Z" fill="#020202"/>
</g>
<defs>
<clipPath id="clip0_36_655">
<rect width="181" height="16" fill="white"/>
</clipPath>
</defs>
</svg>
