<svg width="141" height="57" viewBox="0 0 141 57" fill="none" xmlns="http://www.w3.org/2000/svg">
<g clip-path="url(#clip0_36_433)">
<g clip-path="url(#clip1_36_433)">
<g clip-path="url(#clip2_36_433)">
<path d="M0.5 10.3454C0.5 10.1784 0.635392 10.043 0.802383 10.043H17.2067C17.9582 10.043 18.5675 10.6522 18.5675 11.4037V26.9009C18.5675 27.6524 17.9582 28.2616 17.2067 28.2616H0.802383C0.635392 28.2616 0.5 28.1262 0.5 27.9592V10.3454Z" fill="#8CD812"/>
<path d="M0.5 30.8317C0.5 30.6647 0.635392 30.5293 0.802383 30.5293H17.2067C17.9582 30.5293 18.5675 31.1385 18.5675 31.89V47.3872C18.5675 48.1387 17.9582 48.7479 17.2067 48.7479H0.802383C0.635392 48.7479 0.5 48.6125 0.5 48.4455V30.8317Z" fill="#0E0E0E"/>
<path d="M20.9121 11.4037C20.9121 10.6522 21.5213 10.043 22.2728 10.043H38.904C39.071 10.043 39.2063 10.1784 39.2063 10.3454V48.4457C39.2063 48.6127 39.071 48.7481 38.904 48.7481H22.2728C21.5213 48.7481 20.9121 48.1388 20.9121 47.3874V11.4037Z" fill="#0E0E0E"/>
<path d="M46.0195 26.9016V24.5405H49.232C49.8255 24.5405 50.29 24.3664 50.6254 24.018C50.9608 23.6697 51.1286 23.2439 51.1286 22.7408C51.1286 22.3924 51.0512 22.0828 50.8963 21.8118C50.7415 21.5409 50.5222 21.328 50.2384 21.1732C49.9674 21.0184 49.632 20.941 49.232 20.941H46.0195V18.638H48.9804C49.4836 18.638 49.89 18.5154 50.1996 18.2703C50.5093 18.0123 50.6641 17.6252 50.6641 17.1091C50.6641 16.606 50.5093 16.2318 50.1996 15.9867C49.89 15.7287 49.4836 15.5996 48.9804 15.5996H46.0195V13.2386H49.561C50.4383 13.2386 51.1802 13.3999 51.7866 13.7224C52.4058 14.045 52.8767 14.4772 53.1993 15.019C53.5219 15.5609 53.6831 16.1608 53.6831 16.8188C53.6831 17.6574 53.4122 18.367 52.8703 18.9476C52.3284 19.5282 51.5286 19.9282 50.4706 20.1475L50.548 19.1218C51.6962 19.3411 52.58 19.7862 53.1993 20.4572C53.8315 21.1281 54.1476 21.9537 54.1476 22.9343C54.1476 23.6826 53.9605 24.36 53.5863 24.9663C53.2251 25.5598 52.6961 26.0307 51.9994 26.379C51.3157 26.7274 50.4899 26.9016 49.5223 26.9016H46.0195ZM43.6972 26.9016V13.2386H46.6968V26.9016H43.6972ZM56.4046 26.9016V12.8516H59.3655V26.9016H56.4046ZM66.5597 27.1144C65.592 27.1144 64.7147 26.9016 63.9277 26.4758C63.1536 26.0371 62.5407 25.4437 62.0892 24.6954C61.6377 23.947 61.4119 23.1085 61.4119 22.1795C61.4119 21.2506 61.6377 20.4184 62.0892 19.683C62.5407 18.9476 63.1536 18.367 63.9277 17.9413C64.7018 17.5026 65.5791 17.2833 66.5597 17.2833C67.5402 17.2833 68.4172 17.4962 69.1913 17.9219C69.9654 18.3477 70.5785 18.9347 71.0298 19.683C71.4819 20.4184 71.7072 21.2506 71.7072 22.1795C71.7072 23.1085 71.4819 23.947 71.0298 24.6954C70.5785 25.4437 69.9654 26.0371 69.1913 26.4758C68.4172 26.9016 67.5402 27.1144 66.5597 27.1144ZM66.5597 24.4244C66.9854 24.4244 67.3595 24.3341 67.6821 24.1535C68.0045 23.96 68.2501 23.6955 68.4172 23.36C68.5979 23.0117 68.6886 22.6182 68.6886 22.1795C68.6886 21.7408 68.5979 21.3603 68.4172 21.0377C68.2365 20.7023 67.9855 20.4442 67.6627 20.2636C67.3531 20.0701 66.9854 19.9733 66.5597 19.9733C66.1468 19.9733 65.7791 20.0701 65.4566 20.2636C65.134 20.4442 64.8824 20.7023 64.7018 21.0377C64.5212 21.3731 64.4309 21.7602 64.4309 22.1989C64.4309 22.6246 64.5212 23.0117 64.7018 23.36C64.8824 23.6955 65.134 23.96 65.4566 24.1535C65.7791 24.3341 66.1468 24.4244 66.5597 24.4244ZM78.3097 27.1144C77.3421 27.1144 76.4651 26.9016 75.6782 26.4758C74.8913 26.05 74.2721 25.463 73.8201 24.7147C73.3687 23.9664 73.1427 23.1278 73.1427 22.1989C73.1427 21.257 73.3687 20.4184 73.8201 19.683C74.285 18.9347 74.9102 18.3477 75.6971 17.9219C76.484 17.4962 77.3685 17.2833 78.3491 17.2833C79.0838 17.2833 79.7551 17.4123 80.3613 17.6704C80.9805 17.9155 81.5293 18.2896 82.0063 18.7928L80.1097 20.6894C79.8904 20.4442 79.6326 20.2636 79.3356 20.1475C79.0521 20.0314 78.7232 19.9733 78.3491 19.9733C77.9226 19.9733 77.5424 20.0701 77.2068 20.2636C76.8847 20.4442 76.6262 20.7023 76.4327 21.0377C76.252 21.3603 76.162 21.7408 76.162 22.1795C76.162 22.6182 76.252 23.0053 76.4327 23.3407C76.6262 23.6761 76.8907 23.9406 77.2264 24.1341C77.562 24.3277 77.9355 24.4244 78.3491 24.4244C78.7361 24.4244 79.0777 24.36 79.3741 24.2309C79.684 24.089 79.9486 23.8955 80.1678 23.6503L82.0449 25.5469C81.5551 26.063 81.0002 26.4564 80.3811 26.7274C79.7611 26.9854 79.0709 27.1144 78.3097 27.1144ZM89.9621 26.9016L86.6722 22.0247L89.9424 17.4962H93.252L89.3044 22.5859L89.4012 21.3667L93.4456 26.9016H89.9621ZM83.9431 26.9016V12.8516H86.9042V26.9016H83.9431ZM99.2199 27.1144C98.2523 27.1144 97.3762 26.9016 96.5889 26.4758C95.8016 26.05 95.1823 25.463 94.7307 24.7147C94.2793 23.9664 94.0533 23.1278 94.0533 22.1989C94.0533 21.257 94.2793 20.4184 94.7307 19.683C95.1955 18.9347 95.8205 18.3477 96.6078 17.9219C97.3951 17.4962 98.2787 17.2833 99.2596 17.2833C99.994 17.2833 100.666 17.4123 101.272 17.6704C101.892 17.9155 102.44 18.2896 102.917 18.7928L101.02 20.6894C100.801 20.4442 100.543 20.2636 100.246 20.1475C99.9629 20.0314 99.6334 19.9733 99.2596 19.9733C98.8329 19.9733 98.4534 20.0701 98.1173 20.2636C97.7954 20.4442 97.5367 20.7023 97.3432 21.0377C97.1629 21.3603 97.0722 21.7408 97.0722 22.1795C97.0722 22.6182 97.1629 23.0053 97.3432 23.3407C97.5367 23.6761 97.801 23.9406 98.1371 24.1341C98.4722 24.3277 98.8461 24.4244 99.2596 24.4244C99.6466 24.4244 99.9883 24.36 100.285 24.2309C100.594 24.089 100.86 23.8955 101.079 23.6503L102.955 25.5469C102.465 26.063 101.91 26.4564 101.292 26.7274C100.672 26.9854 99.9817 27.1144 99.2199 27.1144ZM111.067 26.9016V21.5409C111.067 21.0507 110.912 20.6571 110.602 20.3604C110.305 20.0507 109.924 19.8959 109.46 19.8959C109.138 19.8959 108.854 19.9669 108.608 20.1088C108.364 20.2379 108.17 20.4314 108.028 20.6894C107.886 20.9345 107.815 21.2183 107.815 21.5409L106.673 20.9797C106.673 20.2443 106.828 19.5992 107.137 19.0444C107.447 18.4896 107.879 18.0638 108.434 17.7671C108.989 17.4575 109.628 17.3027 110.35 17.3027C111.085 17.3027 111.731 17.4575 112.285 17.7671C112.84 18.0638 113.266 18.4832 113.563 19.025C113.872 19.554 114.027 20.1733 114.027 20.8829V26.9016H111.067ZM104.854 26.9016V12.8516H107.815V26.9016H104.854ZM120.438 27.0951C119.574 27.0951 118.8 26.8822 118.116 26.4565C117.445 26.0307 116.909 25.4501 116.509 24.7147C116.122 23.9793 115.928 23.1407 115.928 22.1989C115.928 21.257 116.122 20.4184 116.509 19.683C116.909 18.9476 117.445 18.367 118.116 17.9413C118.8 17.5155 119.574 17.3027 120.438 17.3027C121.069 17.3027 121.638 17.4252 122.141 17.6704C122.657 17.9155 123.076 18.2574 123.399 18.696C123.722 19.1218 123.902 19.6121 123.941 20.1669V24.2309C123.902 24.7857 123.722 25.2824 123.399 25.7211C123.089 26.1468 122.676 26.4822 122.161 26.7274C121.644 26.9726 121.069 27.0951 120.438 27.0951ZM121.038 24.4244C121.67 24.4244 122.18 24.218 122.567 23.8051C122.954 23.3794 123.147 22.8439 123.147 22.1989C123.147 21.7602 123.058 21.3731 122.876 21.0377C122.709 20.7023 122.464 20.4442 122.141 20.2636C121.831 20.0701 121.471 19.9733 121.057 19.9733C120.645 19.9733 120.276 20.0701 119.954 20.2636C119.645 20.4442 119.393 20.7023 119.199 21.0377C119.019 21.3731 118.928 21.7602 118.928 22.1989C118.928 22.6246 119.019 23.0053 119.199 23.3407C119.381 23.6761 119.632 23.9406 119.954 24.1341C120.276 24.3277 120.638 24.4244 121.038 24.4244ZM123.031 26.9016V24.3664L123.476 22.0828L123.031 19.7992V17.4962H125.934V26.9016H123.031ZM128.599 26.9016V17.4962H131.56V26.9016H128.599ZM130.09 16.1996C129.625 16.1996 129.238 16.0447 128.928 15.7351C128.632 15.4125 128.484 15.0255 128.484 14.5739C128.484 14.1095 128.632 13.7224 128.928 13.4128C129.238 13.1031 129.625 12.9483 130.09 12.9483C130.554 12.9483 130.935 13.1031 131.232 13.4128C131.528 13.7224 131.677 14.1095 131.677 14.5739C131.677 15.0255 131.528 15.4125 131.232 15.7351C130.935 16.0447 130.554 16.1996 130.09 16.1996ZM140.438 26.9016V21.5409C140.438 21.0507 140.283 20.6571 139.975 20.3604C139.677 20.0507 139.297 19.8959 138.832 19.8959C138.509 19.8959 138.225 19.9669 137.981 20.1088C137.735 20.2379 137.542 20.4314 137.4 20.6894C137.258 20.9345 137.187 21.2183 137.187 21.5409L136.045 20.9797C136.045 20.2443 136.206 19.5992 136.529 19.0444C136.852 18.4896 137.296 18.0638 137.865 17.7671C138.445 17.4575 139.097 17.3027 139.819 17.3027C140.515 17.3027 141.128 17.4704 141.658 17.8058C142.2 18.1284 142.625 18.5606 142.934 19.1024C143.245 19.6443 143.399 20.2379 143.399 20.8829V26.9016H140.438ZM134.225 26.9016V17.4962H137.187V26.9016H134.225ZM50.1803 46.467C49.161 46.467 48.2128 46.2928 47.3355 45.9445C46.471 45.5832 45.7098 45.08 45.0519 44.435C44.4068 43.7899 43.9036 43.0416 43.5424 42.1901C43.1811 41.3256 43.0005 40.3967 43.0005 39.4033C43.0005 38.4099 43.1811 37.4874 43.5424 36.6359C43.9036 35.7715 44.4068 35.0232 45.0519 34.391C45.6969 33.7588 46.4517 33.2686 47.3161 32.9202C48.1934 32.5589 49.1417 32.3783 50.1609 32.3783C51.2447 32.3783 52.2059 32.5525 53.0445 32.9009C53.896 33.2492 54.6378 33.7266 55.27 34.333L53.238 36.3843C52.8767 35.9973 52.4381 35.694 51.922 35.4748C51.4189 35.2555 50.8319 35.1458 50.1609 35.1458C49.5674 35.1458 49.0191 35.2489 48.516 35.4554C48.0257 35.6489 47.6 35.9328 47.2387 36.3069C46.8904 36.681 46.613 37.1327 46.4065 37.6616C46.213 38.1905 46.1163 38.7711 46.1163 39.4033C46.1163 40.0484 46.213 40.6355 46.4065 41.1644C46.613 41.6933 46.8904 42.145 47.2387 42.5191C47.6 42.8932 48.0257 43.1835 48.516 43.39C49.0191 43.5964 49.5674 43.6996 50.1609 43.6996C50.8576 43.6996 51.464 43.5899 51.9801 43.3706C52.4962 43.1513 52.9413 42.8481 53.3154 42.461L55.3668 44.5124C54.7088 45.1188 53.954 45.5961 53.1025 45.9445C52.264 46.2928 51.2898 46.467 50.1803 46.467ZM61.7673 46.467C60.748 46.467 59.8385 46.2606 59.0386 45.8477C58.2515 45.422 57.6323 44.835 57.1807 44.0866C56.7292 43.3383 56.5034 42.4933 56.5034 41.5515C56.5034 40.6096 56.7227 39.771 57.1614 39.0356C57.6129 38.2873 58.2194 37.7003 58.9805 37.2745C59.7417 36.8488 60.5997 36.6359 61.5544 36.6359C62.4833 36.6359 63.3026 36.8358 64.0122 37.2358C64.7218 37.6358 65.2765 38.1905 65.6765 38.9002C66.0893 39.6098 66.2958 40.4226 66.2958 41.3386C66.2958 41.5063 66.2829 41.6869 66.2571 41.8805C66.2442 42.061 66.212 42.2739 66.1603 42.5191L58.0516 42.5384V40.5064L64.9024 40.4871L63.6251 41.3386C63.6122 40.7967 63.5284 40.3516 63.3736 40.0033C63.2187 39.642 62.9865 39.371 62.6769 39.1904C62.3802 38.9969 62.0125 38.9002 61.5738 38.9002C61.1093 38.9002 60.7029 39.0098 60.3546 39.2291C60.0191 39.4356 59.7546 39.7323 59.5611 40.1194C59.3805 40.5064 59.2902 40.9773 59.2902 41.5321C59.2902 42.0869 59.3869 42.5642 59.5805 42.9642C59.7869 43.3512 60.0708 43.6545 60.432 43.8738C60.8061 44.0802 61.2448 44.1834 61.7479 44.1834C62.2124 44.1834 62.6317 44.106 63.0059 43.9512C63.38 43.7834 63.709 43.5384 63.9928 43.2158L65.6185 44.8414C65.154 45.3833 64.5928 45.7897 63.9348 46.0606C63.2768 46.3315 62.5543 46.467 61.7673 46.467ZM74.5178 46.2541V40.8935C74.5178 40.4032 74.3628 40.0097 74.0536 39.713C73.7565 39.4033 73.3763 39.2485 72.9114 39.2485C72.5893 39.2485 72.3051 39.3195 72.0602 39.4614C71.8152 39.5904 71.6217 39.784 71.4796 40.042C71.3375 40.2871 71.2664 40.5709 71.2664 40.8935L70.125 40.3322C70.125 39.5968 70.2859 38.9518 70.6088 38.397C70.9308 37.8422 71.3761 37.4164 71.9437 37.1197C72.5243 36.8101 73.176 36.6553 73.8987 36.6553C74.5949 36.6553 75.208 36.823 75.7372 37.1584C76.2792 37.481 76.7048 37.9132 77.014 38.455C77.3239 38.9969 77.4789 39.5904 77.4789 40.2355V46.2541H74.5178ZM68.3054 46.2541V36.8488H71.2664V46.2541H68.3054ZM81.1831 46.2541V32.9589H84.1442V46.2541H81.1831ZM79.0543 39.3646V36.8488H86.2729V39.3646H79.0543ZM92.6132 46.467C91.5941 46.467 90.6848 46.2606 89.885 45.8477C89.098 45.422 88.4789 44.835 88.0269 44.0866C87.5755 43.3383 87.3495 42.4933 87.3495 41.5515C87.3495 40.6096 87.5687 39.771 88.0079 39.0356C88.4592 38.2873 89.0655 37.7003 89.8267 37.2745C90.588 36.8488 91.446 36.6359 92.4008 36.6359C93.3298 36.6359 94.1486 36.8358 94.8584 37.2358C95.5684 37.6358 96.1235 38.1905 96.5228 38.9002C96.9354 39.6098 97.1421 40.4226 97.1421 41.3386C97.1421 41.5063 97.1289 41.6869 97.1034 41.8805C97.0911 42.061 97.0581 42.2739 97.0071 42.5191L88.8977 42.5384V40.5064L95.7487 40.4871L94.4714 41.3386C94.4585 40.7967 94.3746 40.3516 94.2197 40.0033C94.0647 39.642 93.8326 39.371 93.5234 39.1904C93.2263 38.9969 92.859 38.9002 92.4197 38.9002C91.9555 38.9002 91.5488 39.0098 91.201 39.2291C90.8654 39.4356 90.6008 39.7323 90.4073 40.1194C90.2266 40.5064 90.1367 40.9773 90.1367 41.5321C90.1367 42.0869 90.2334 42.5642 90.4269 42.9642C90.6334 43.3512 90.9168 43.6545 91.2782 43.8738C91.6524 44.0802 92.0909 44.1834 92.5943 44.1834C93.0585 44.1834 93.478 44.106 93.8523 43.9512C94.2265 43.7834 94.5553 43.5384 94.8388 43.2158L96.4652 44.8414C95.9998 45.3833 95.4391 45.7897 94.7813 46.0606C94.1229 46.3315 93.4002 46.467 92.6132 46.467ZM99.1519 46.2541V36.8488H102.112V46.2541H99.1519ZM102.112 41.087L100.875 40.1194C101.119 39.0227 101.532 38.1712 102.112 37.5648C102.693 36.9585 103.5 36.6553 104.532 36.6553C104.984 36.6553 105.377 36.7262 105.713 36.8681C106.061 36.9972 106.364 37.2036 106.622 37.4874L104.86 39.713C104.732 39.5711 104.571 39.4614 104.377 39.384C104.184 39.3066 103.964 39.2679 103.719 39.2679C103.228 39.2679 102.836 39.4227 102.538 39.7323C102.255 40.029 102.112 40.4806 102.112 41.087Z" fill="#0E0E0E"/>
</g>
</g>
</g>
<defs>
<clipPath id="clip0_36_433">
<rect width="143.492" height="57.3969" fill="white" transform="translate(0.5 0.697266)"/>
</clipPath>
<clipPath id="clip1_36_433">
<rect width="143.492" height="57.3969" fill="white" transform="translate(0.5 0.697266)"/>
</clipPath>
<clipPath id="clip2_36_433">
<rect width="143.492" height="38.7052" fill="white" transform="translate(0.5 10.043)"/>
</clipPath>
</defs>
</svg>
