<svg width="143" height="40" viewBox="0 0 143 40" fill="none" xmlns="http://www.w3.org/2000/svg">
<g clip-path="url(#clip0_42_4142)">
<mask id="mask0_42_4142" style="mask-type:luminance" maskUnits="userSpaceOnUse" x="0" y="-1" width="144" height="42">
<path d="M143.884 -0.27832H0.39209V40.1865H143.884V-0.27832Z" fill="white"/>
</mask>
<g mask="url(#mask0_42_4142)">
<path d="M131.464 4.21408H143.885V-0.27832H129.615L123.713 5.62346V13.1548H139.392V17.6472H123.713V22.1396H143.885V8.66242H128.206V7.47325L131.464 4.21408Z" fill="#1D1D1D"/>
<path d="M99.0488 5.62346V22.1396H103.541V7.47325L106.8 4.21408H114.728V22.1396H119.22V-0.27832H104.95L99.0488 5.62346Z" fill="#1D1D1D"/>
<path d="M25.0566 23.5493V40.0655H45.2282V35.573H29.5491V31.0805H45.2282V17.6475H30.9585L25.0566 23.5493ZM40.736 22.1398V26.6322H29.5049V25.4432L32.7642 22.184H40.736V22.1398Z" fill="#1D1D1D"/>
<path d="M74.3853 5.62346V22.1396H94.5572V17.6472H78.8778V13.1548H94.5572V-0.27832H80.2871L74.3853 5.62346ZM90.0647 4.21408V8.70645H78.8335V7.5173L82.0928 4.2581H90.0647V4.21408Z" fill="#1D1D1D"/>
<path d="M4.88449 19.0554V4.21289H0.39209V40.0639H4.88449V25.3976L8.14366 22.1384H16.0714V40.0639H20.5638V17.6461H6.29387L4.88449 19.0554Z" fill="#1D1D1D"/>
<path d="M54.2124 -0.27832H47.4737L40.7354 6.46024V13.1548H45.2275V8.31006L49.3236 4.21408H54.2124V-0.27832Z" fill="#00F3A7"/>
<path d="M74.385 31.4767L70.2889 35.5726H65.4004V40.0651H72.1388L78.8775 33.3263V26.6318H74.385V31.4767Z" fill="#00F3A7"/>
<path d="M65.3996 31.1241H69.8921V25.0462L63.4178 19.8931L69.8921 14.7401V8.66211H65.3996V12.5819L59.8063 17.0303L54.2127 12.5819V8.66211H49.7202V14.7401L56.1946 19.8931L49.7202 25.0462V31.1241H54.2127V27.2043L59.8063 22.7559L65.3996 27.2043V31.1241Z" fill="#1D1D1D"/>
</g>
</g>
<defs>
<clipPath id="clip0_42_4142">
<rect width="142" height="40" fill="white" transform="translate(0.5)"/>
</clipPath>
</defs>
</svg>
