<svg width="140" height="38" viewBox="0 0 140 38" fill="none" xmlns="http://www.w3.org/2000/svg">
<g clip-path="url(#clip0_42_4720)">
<path d="M14.2489 24.8804C17.495 24.8804 20.1265 22.2488 20.1265 19.0027C20.1265 15.7565 17.495 13.125 14.2489 13.125C11.0027 13.125 8.37109 15.7565 8.37109 19.0027C8.37109 22.2488 11.0027 24.8804 14.2489 24.8804Z" fill="#020202"/>
<path d="M2.70507 21.669C4.1991 21.669 5.41015 20.4579 5.41015 18.9639C5.41015 17.4699 4.1991 16.2588 2.70507 16.2588C1.21114 16.2588 0 17.4699 0 18.9639C0 20.4579 1.21114 21.669 2.70507 21.669Z" fill="#020202"/>
<path d="M23.2993 19.0034C23.2993 25.4266 28.0415 30.7309 34.2143 31.6326V6.37402C28.0415 7.2702 23.2993 12.5802 23.2993 19.0034Z" fill="#020202"/>
<path d="M12.6797 0.935547V9.54058H16.164V4.41983H34.003V5.80583V6.59615V31.8492V33.5802H21.7189H16.164V28.3148H12.6797V37.0646H37.4929V0.935547H12.6797Z" fill="#020202"/>
<path d="M50.9614 5.57227H53.3771V16.2591H50.9614V5.57227Z" fill="#020202"/>
<path d="M55.109 8.12256H57.0738L57.2464 9.15224H57.3077C57.9922 8.49541 58.8104 7.92773 59.9237 7.92773C61.6936 7.92773 62.445 9.17446 62.445 11.2116V16.2655H60.0349V11.5177C60.0349 10.3489 59.7232 9.98153 59.022 9.98153C58.4153 9.98153 58.0479 10.2654 57.5136 10.7719V16.2599H55.1035V8.12256H55.109Z" fill="#020202"/>
<path d="M63.2852 8.21698L64.5041 8.12241H68.2445V10.0148H63.2852V8.21698ZM64.365 7.69933C64.365 5.97941 65.1609 4.57129 67.3594 4.57129C68.0386 4.57129 68.6229 4.7215 68.9848 4.86068L68.5506 6.63624C68.2778 6.52497 67.9773 6.45813 67.7045 6.45813C67.1146 6.45813 66.775 6.78094 66.775 7.62699V16.2543H64.365V7.69933Z" fill="#020202"/>
<path d="M69.1089 5.67296C69.1089 4.93268 69.6933 4.41504 70.5059 4.41504C71.313 4.41504 71.903 4.93828 71.903 5.67296C71.903 6.40764 71.3185 6.93088 70.5059 6.93088C69.6989 6.93088 69.1089 6.40764 69.1089 5.67296ZM69.2981 8.12206H71.7082V16.2596H69.2981V8.12206Z" fill="#020202"/>
<path d="M73.2159 8.12256H75.1804L75.3529 9.15224H75.4143C76.099 8.49541 76.9173 7.92773 78.0301 7.92773C79.8004 7.92773 80.5519 9.17446 80.5519 11.2116V16.2655H78.1421V11.5177C78.1421 10.3489 77.8295 9.98153 77.1286 9.98153C76.5217 9.98153 76.155 10.2654 75.6203 10.7719V16.2599H73.2104V8.12256H73.2159Z" fill="#020202"/>
<path d="M81.8374 5.67296C81.8374 4.93268 82.4227 4.41504 83.2347 4.41504C84.0422 4.41504 84.632 4.93828 84.632 5.67296C84.632 6.40764 84.0476 6.93088 83.2347 6.93088C82.4281 6.93088 81.8374 6.40764 81.8374 5.67296ZM82.0271 8.12206H84.4369V16.2596H82.0271V8.12206Z" fill="#020202"/>
<path d="M86.4467 13.3038V10.0198H85.333V8.22204L86.5804 8.12739L86.864 5.96777H88.8565V8.12739H90.8051V10.0198H88.8565V13.276C88.8565 14.2 89.2738 14.5673 89.9088 14.5673C90.1761 14.5673 90.4655 14.4893 90.6832 14.4114L91.0616 16.1647C90.6272 16.3038 90.0424 16.4597 89.2521 16.4597C87.2424 16.4541 86.4467 15.1851 86.4467 13.3038Z" fill="#020202"/>
<path d="M92.4743 19.2777L92.9024 17.4409C93.0532 17.4798 93.2754 17.5467 93.4479 17.5467C94.2437 17.5467 94.6619 17.1069 94.8732 16.478L94.9952 16.0549L91.8564 8.12891H94.2771L95.4404 11.63C95.6744 12.3647 95.8695 13.1384 96.0808 13.9343H96.1477C96.331 13.1662 96.509 12.3925 96.7158 11.63L97.7003 8.12891H100.011L97.1882 16.3555C96.415 18.3926 95.5461 19.4502 93.6376 19.4502C93.1309 19.4446 92.8085 19.3779 92.4743 19.2777Z" fill="#020202"/>
<path d="M53.0558 22.6647H50.1113V20.6387H58.4103V22.6647H55.4658V31.3255H53.0502V22.6647H53.0558Z" fill="#020202"/>
<path d="M57.6807 27.2643C57.6807 24.626 59.562 22.9951 61.5213 22.9951C63.8367 22.9951 64.9888 24.6816 64.9888 26.9025C64.9888 27.3367 64.9332 27.7707 64.8887 27.9656H60.0184C60.2355 29.1455 61.0426 29.6855 62.128 29.6855C62.7458 29.6855 63.2968 29.4963 63.8868 29.1511L64.6827 30.6039C63.8478 31.1828 62.7625 31.5223 61.794 31.5223C59.4785 31.5278 57.6807 29.9582 57.6807 27.2643ZM62.9239 26.3737C62.9239 25.4775 62.5342 24.8375 61.5713 24.8375C60.8088 24.8375 60.152 25.3496 59.9906 26.3737H62.9239Z" fill="#020202"/>
<path d="M66.04 27.2643C66.04 24.5591 68.0326 22.9951 70.2813 22.9951C71.2832 22.9951 72.0513 23.3514 72.658 23.869L71.517 25.4163C71.1274 25.088 70.799 24.9377 70.4149 24.9377C69.2571 24.9377 68.5114 25.8505 68.5114 27.2587C68.5114 28.6669 69.285 29.5741 70.3314 29.5741C70.8658 29.5741 71.3778 29.3125 71.8008 28.973L72.747 30.5483C71.9567 31.2495 70.9493 31.5167 70.0643 31.5167C67.7933 31.5278 66.04 29.9638 66.04 27.2643Z" fill="#020202"/>
<path d="M73.789 19.8379H76.1988V22.6432L76.0932 24.1182C76.7056 23.5616 77.4959 22.9939 78.6032 22.9939C80.3736 22.9939 81.125 24.2407 81.125 26.2778V31.3318H78.7143V26.5895C78.7143 25.4206 78.4027 25.0533 77.7018 25.0533C77.0948 25.0533 76.7272 25.3372 76.1934 25.8438V31.3318H73.7827V19.8379H73.789Z" fill="#020202"/>
<path d="M82.6548 23.1948H84.6203L84.7928 24.2245H84.8533C85.5379 23.5677 86.3563 23 87.4699 23C89.2393 23 89.9908 24.2467 89.9908 26.2839V31.3379H87.581V26.5957C87.581 25.4268 87.2694 25.0594 86.5676 25.0594C85.9615 25.0594 85.5939 25.3432 85.0592 25.8498V31.3379H82.6494V23.1948H82.6548Z" fill="#020202"/>
<path d="M91.1714 27.2643C91.1714 24.5591 93.0745 22.9951 95.1338 22.9951C97.1932 22.9951 99.0972 24.5591 99.0972 27.2643C99.0972 29.9638 97.1932 31.5278 95.1338 31.5278C93.0745 31.5278 91.1714 29.9638 91.1714 27.2643ZM96.626 27.2643C96.626 25.8561 96.1301 24.9432 95.1338 24.9432C94.1376 24.9432 93.6426 25.8561 93.6426 27.2643C93.6426 28.6724 94.1376 29.5797 95.1338 29.5797C96.1301 29.5797 96.626 28.6724 96.626 27.2643Z" fill="#020202"/>
<path d="M100.311 28.7992V19.8379H102.721V28.8995C102.721 29.4171 102.961 29.5785 103.155 29.5785C103.25 29.5785 103.311 29.5785 103.45 29.545L103.739 31.3206C103.473 31.432 103.077 31.521 102.532 31.521C100.873 31.5265 100.311 30.4467 100.311 28.7992Z" fill="#020202"/>
<path d="M103.952 27.2643C103.952 24.5591 105.855 22.9951 107.915 22.9951C109.974 22.9951 111.878 24.5591 111.878 27.2643C111.878 29.9638 109.974 31.5278 107.915 31.5278C105.855 31.5278 103.952 29.9638 103.952 27.2643ZM109.407 27.2643C109.407 25.8561 108.911 24.9432 107.915 24.9432C106.918 24.9432 106.423 25.8561 106.423 27.2643C106.423 28.6724 106.918 29.5797 107.915 29.5797C108.911 29.5797 109.407 28.6724 109.407 27.2643Z" fill="#020202"/>
<path d="M112.568 32.7245C112.568 32.051 112.974 31.5056 113.72 31.0881V31.0214C113.297 30.7375 112.98 30.3089 112.98 29.641C112.98 29.0565 113.369 28.4832 113.887 28.1159V28.049C113.314 27.6484 112.796 26.8914 112.796 25.9395C112.796 23.9859 114.41 22.9951 116.164 22.9951C116.614 22.9951 117.06 23.0675 117.422 23.1899H120.399V24.9488H119.091C119.242 25.1937 119.369 25.5944 119.369 26.023C119.369 27.8932 117.945 28.756 116.169 28.756C115.874 28.756 115.534 28.7059 115.178 28.6001C114.978 28.7727 114.895 28.9174 114.895 29.2068C114.895 29.6075 115.222 29.8024 116.113 29.8024H117.433C119.425 29.8024 120.538 30.4147 120.538 31.8729C120.538 33.565 118.774 34.7951 115.986 34.7951C114.076 34.7895 112.568 34.1717 112.568 32.7245ZM118.218 32.2793C118.218 31.7672 117.778 31.6503 116.977 31.6503H116.13C115.574 31.6503 115.256 31.6169 114.989 31.5445C114.689 31.8006 114.55 32.051 114.55 32.3404C114.55 32.9583 115.262 33.2755 116.352 33.2755C117.438 33.2755 118.218 32.8414 118.218 32.2793ZM117.266 25.9395C117.266 25.0713 116.792 24.6149 116.152 24.6149C115.512 24.6149 115.039 25.0657 115.039 25.9395C115.039 26.8301 115.518 27.2976 116.152 27.2976C116.787 27.2976 117.266 26.8301 117.266 25.9395Z" fill="#020202"/>
<path d="M121.329 20.7403C121.329 20.0001 121.913 19.4824 122.725 19.4824C123.533 19.4824 124.123 20.0056 124.123 20.7403C124.123 21.475 123.538 21.9982 122.725 21.9982C121.913 22.0038 121.329 21.475 121.329 20.7403ZM121.512 23.1949H123.922V31.3325H121.512V23.1949Z" fill="#020202"/>
<path d="M125.069 27.2643C125.069 24.626 126.95 22.9951 128.909 22.9951C131.224 22.9951 132.377 24.6816 132.377 26.9025C132.377 27.3367 132.321 27.7707 132.277 27.9656H127.406C127.623 29.1455 128.431 29.6855 129.515 29.6855C130.133 29.6855 130.684 29.4963 131.275 29.1511L132.071 30.6039C131.236 31.1828 130.15 31.5223 129.182 31.5223C126.866 31.5278 125.069 29.9582 125.069 27.2643ZM130.312 26.3737C130.312 25.4775 129.922 24.8375 128.959 24.8375C128.197 24.8375 127.54 25.3496 127.378 26.3737H130.312Z" fill="#020202"/>
<path d="M133.146 30.3924L134.231 28.8896C134.966 29.4461 135.65 29.7467 136.329 29.7467C137.047 29.7467 137.359 29.474 137.359 29.0454C137.359 28.511 136.552 28.2662 135.717 27.9377C134.721 27.5537 133.563 26.8914 133.563 25.5444C133.563 24.0304 134.793 22.9951 136.669 22.9951C137.915 22.9951 138.845 23.496 139.536 24.0248L138.456 25.472C137.877 25.049 137.303 24.7763 136.741 24.7763C136.118 24.7763 135.812 25.0211 135.812 25.4275C135.812 25.9451 136.574 26.1455 137.415 26.4516C138.445 26.8301 139.608 27.4145 139.608 28.9007C139.608 30.3756 138.445 31.5223 136.263 31.5223C135.199 31.5278 133.969 31.0603 133.146 30.3924Z" fill="#020202"/>
</g>
<defs>
<clipPath id="clip0_42_4720">
<rect width="140" height="36.129" fill="white" transform="translate(0 0.935547)"/>
</clipPath>
</defs>
</svg>
