<svg width="145" height="56" viewBox="0 0 145 56" fill="none" xmlns="http://www.w3.org/2000/svg">
<g clip-path="url(#clip0_36_503)">
<g clip-path="url(#clip1_36_503)">
<g clip-path="url(#clip2_36_503)">
<g clip-path="url(#clip3_36_503)">
<mask id="mask0_36_503" style="mask-type:luminance" maskUnits="userSpaceOnUse" x="0" y="13" width="144" height="32">
<path d="M143.664 13.2598H0.502441V44.1378H143.664V13.2598Z" fill="white"/>
</mask>
<g mask="url(#mask0_36_503)">
<mask id="mask1_36_503" style="mask-type:luminance" maskUnits="userSpaceOnUse" x="0" y="13" width="144" height="32">
<path d="M143.566 13.2607H0.503418V44.0397H143.566V13.2607Z" fill="white"/>
</mask>
<g mask="url(#mask1_36_503)">
<path d="M45.9464 35.1729C45.352 36.1472 44.6749 37.0554 43.9153 37.8974C40.6294 41.5467 35.9233 43.8914 30.6724 44.0236L27.6177 32.2007L37.3269 26.7021L45.9464 35.1729Z" fill="url(#paint0_linear_36_503)"/>
<path d="M70.4501 13.293H66.999V31.8528H80.1428V28.9302H70.4501V13.293Z" fill="#0E0E0E"/>
<path d="M92.9562 19.4195C91.8173 18.1481 90.2318 17.5371 88.4154 17.5371C84.2874 17.5371 81.2656 20.3772 81.2656 24.7695C81.2656 29.1783 84.2874 32.0349 88.4154 32.0349C90.3474 32.0349 91.9989 31.3744 93.1051 30.0204V31.8532H96.2592V17.7022H92.9398V19.4195H92.9562ZM88.7952 29.1948C86.4009 29.1948 84.6011 27.4776 84.6011 24.7695C84.6011 22.0615 86.4009 20.3442 88.7952 20.3442C91.206 20.3442 93.0061 22.0615 93.0061 24.7695C93.0061 27.4776 91.206 29.1948 88.7952 29.1948Z" fill="#0E0E0E"/>
<path d="M118.485 17.5371C116.24 17.5371 114.324 18.4453 113.185 19.8984C112.21 18.3132 110.477 17.5371 108.412 17.5371C106.481 17.5371 104.829 18.2306 103.772 19.5021V17.7022H100.619V31.8532H103.938V24.6705C103.938 21.8633 105.423 20.4268 107.62 20.4268C109.635 20.4268 110.807 21.6487 110.807 24.1585V31.8532H114.109V24.6705C114.109 21.8633 115.629 20.4268 117.792 20.4268C119.806 20.4268 120.979 21.6487 120.979 24.1585V31.8532H124.297V23.7458C124.281 19.4691 121.903 17.5371 118.485 17.5371Z" fill="#0E0E0E"/>
<path d="M136.385 17.5371C134.453 17.5371 132.802 18.1976 131.696 19.5516V17.7022H128.542V37.0051H131.86V30.136C133 31.4404 134.585 32.0514 136.401 32.0514C140.529 32.0514 143.585 29.1948 143.585 24.786C143.567 20.3937 140.513 17.5371 136.385 17.5371ZM136.005 29.1948C133.627 29.1948 131.795 27.4776 131.795 24.7695C131.795 22.0615 133.627 20.3442 136.005 20.3442C138.383 20.3442 140.199 22.0615 140.199 24.7695C140.199 27.4776 138.399 29.1948 136.005 29.1948Z" fill="#0E0E0E"/>
<path d="M17.9405 13.2607L10.7081 25.5625L3.34354 13.2607H0.503418V31.8206H3.78937V19.684L9.88245 29.6905H11.4181L17.5277 19.5189L17.5441 31.8206H20.8136L20.7806 13.2607H17.9405Z" fill="#0E0E0E"/>
<path d="M60.724 19.3873C59.5846 18.1158 57.9995 17.5049 56.1831 17.5049C52.055 17.5049 49.0332 20.345 49.0332 24.7373C49.0332 29.1461 52.055 32.0027 56.1831 32.0027C58.115 32.0027 59.7662 31.3422 60.8726 29.9882V31.8211H64.0264V17.67H60.7075V19.3873H60.724ZM56.5628 29.1626C54.1851 29.1626 52.3688 27.4453 52.3688 24.7373C52.3688 22.0293 54.1686 20.312 56.5628 20.312C58.9737 20.312 60.7735 22.0293 60.7735 24.7373C60.7735 27.4453 58.9737 29.1626 56.5628 29.1626Z" fill="#0E0E0E"/>
<path d="M27.1702 18.9896L28.1444 20.6739C28.4747 20.7069 28.7718 20.872 28.97 21.1527C30.5387 20.7069 32.0909 21.2518 33.1147 22.5893L34.7494 24.191L36.9125 22.9526C36.7803 22.6719 36.5987 22.3086 36.4667 22.0774C34.3696 18.4117 30.6047 17.3384 27.1702 18.9896ZM23.8842 29.2108C24.8089 30.8125 26.1299 31.9353 27.682 32.4638L26.1629 26.5688C25.552 24.9837 25.8657 23.3984 26.9885 22.2756C26.84 21.9619 26.84 21.6151 26.9885 21.3014L26.0309 19.6336C22.844 21.8463 21.8862 25.7597 23.8842 29.2108Z" fill="#0E0E0E"/>
<path d="M37.9369 27.2977C37.458 29.0149 36.1866 30.4845 34.2877 31.5909C31.9759 32.9284 29.6642 33.1596 27.6828 32.4661L26.1636 26.5711L33.1153 22.5586L34.75 24.1603L27.2864 28.47C28.6735 30.0552 30.8201 30.3525 32.9502 29.114C34.3207 28.3214 35.1628 27.2646 35.5096 25.8611C35.5922 25.5804 35.6252 25.2831 35.6417 25.0355L37.9369 27.2977Z" fill="#FFA300"/>
<path d="M45.1692 29.2768C43.9307 29.2768 43.2042 28.5337 43.2042 27.1632V20.4096H47.002V17.7677H43.2042V14.5312H39.8853V27.2293C39.8853 30.35 41.6686 32.0013 44.7564 32.0013C45.9453 32.0013 47.1507 31.6875 47.9433 31.0435L47.0185 28.6824C46.5232 29.0786 45.8627 29.2768 45.1692 29.2768Z" fill="#0E0E0E"/>
</g>
</g>
</g>
</g>
</g>
</g>
<defs>
<linearGradient id="paint0_linear_36_503" x1="32.913" y1="29.929" x2="37.9988" y2="39.0423" gradientUnits="userSpaceOnUse">
<stop stop-color="#FFA300" stop-opacity="0.8"/>
<stop offset="1" stop-color="#FFA300" stop-opacity="0"/>
</linearGradient>
<clipPath id="clip0_36_503">
<rect width="144" height="56" fill="white" transform="translate(0.5)"/>
</clipPath>
<clipPath id="clip1_36_503">
<rect width="143.492" height="57.3969" fill="white" transform="translate(0.5)"/>
</clipPath>
<clipPath id="clip2_36_503">
<rect width="143.492" height="57.3969" fill="white" transform="translate(0.5)"/>
</clipPath>
<clipPath id="clip3_36_503">
<rect width="143.492" height="30.8781" fill="white" transform="translate(0.5 13.2588)"/>
</clipPath>
</defs>
</svg>
