<svg width="147" height="56" viewBox="0 0 147 56" fill="none" xmlns="http://www.w3.org/2000/svg">
<g clip-path="url(#clip0_42_4632)">
<g clip-path="url(#clip1_42_4632)">
<g clip-path="url(#clip2_42_4632)">
<g clip-path="url(#clip3_42_4632)">
<mask id="mask0_42_4632" style="mask-type:luminance" maskUnits="userSpaceOnUse" x="0" y="2" width="144" height="53">
<path d="M143.015 2.79004H0.000976562V54.6067H143.015V2.79004Z" fill="white"/>
</mask>
<g mask="url(#mask0_42_4632)">
<path d="M3.66478 47.3603C3.84425 47.3154 4.11721 47.293 4.48363 47.293C4.85007 47.293 5.12302 47.3154 5.30249 47.3603C5.45954 47.3902 5.65024 47.4575 5.87458 47.5621C6.02414 47.6295 6.19988 47.7528 6.40178 47.9323C6.60369 48.1118 6.74204 48.2614 6.81683 48.3811C6.8617 48.4483 6.9103 48.6054 6.96265 48.8523C7.02247 49.0915 7.05238 49.2672 7.05238 49.3793C7.05238 49.3869 7.04865 49.3982 7.04117 49.4131V49.4354C7.01873 49.4729 6.91404 49.4916 6.72709 49.4916C6.54013 49.4916 6.39804 49.4729 6.30084 49.4354C6.09893 49.3533 5.94562 49.2037 5.84092 48.9868C5.78111 48.8597 5.66893 48.7325 5.50441 48.6054C5.34736 48.4708 5.19406 48.3811 5.0445 48.3362C4.89494 48.2913 4.7192 48.2689 4.51729 48.2689C4.33781 48.2689 4.16208 48.2876 3.99008 48.325C3.7433 48.3774 3.54513 48.4895 3.39557 48.6615C3.24601 48.8259 3.17122 49.0129 3.17122 49.2224C3.17122 49.3047 3.18992 49.4019 3.2273 49.514C3.30209 49.701 3.4367 49.8505 3.63113 49.9627C3.83304 50.0749 4.20321 50.2169 4.74162 50.3889C5.38476 50.5909 5.87084 50.8003 6.19988 51.0171C6.52891 51.234 6.77195 51.5033 6.92899 51.8247C7.00378 51.9744 7.04865 52.094 7.06361 52.1837C7.07856 52.266 7.08605 52.4192 7.08605 52.6436C7.08605 52.9726 7.04491 53.2232 6.96265 53.3951C6.70091 53.9336 6.19613 54.3038 5.44831 54.5057C5.24641 54.5581 4.96224 54.5841 4.59581 54.5841C4.20694 54.5841 3.89287 54.5543 3.65357 54.4944C3.30956 54.3972 2.988 54.2551 2.68889 54.0682C2.38976 53.8737 2.18037 53.6756 2.06071 53.4738C2.0009 53.3765 1.94107 53.2119 1.88124 52.9802C1.82141 52.7409 1.7915 52.5575 1.7915 52.4304C1.7915 52.3932 1.7915 52.3706 1.7915 52.3632C1.79898 52.3483 1.8102 52.337 1.82514 52.3295C1.84759 52.3221 1.88124 52.3183 1.92611 52.3183C1.94107 52.3183 1.97471 52.3221 2.02706 52.3295C2.07941 52.3295 2.12802 52.3295 2.17289 52.3295C2.40471 52.337 2.57297 52.3782 2.67766 52.453C2.78984 52.5202 2.89827 52.6511 3.00296 52.8455C3.25722 53.339 3.75452 53.5859 4.49486 53.5859H4.64068C5.17162 53.5634 5.53433 53.4251 5.72875 53.1708C5.84092 53.0212 5.897 52.8417 5.897 52.6325C5.897 52.4903 5.8671 52.3594 5.80727 52.2397C5.71005 52.0602 5.56049 51.9145 5.35858 51.8023C5.16416 51.6902 4.81641 51.5631 4.31537 51.4209C3.50026 51.1816 2.902 50.89 2.52062 50.546C2.13923 50.1946 1.94853 49.7758 1.94853 49.2896C1.94853 49.1924 1.95228 49.1214 1.95976 49.0765C1.99715 48.6802 2.17289 48.3251 2.48698 48.011C2.80105 47.6893 3.19366 47.4725 3.66478 47.3603Z" fill="#CFAB6D"/>
<path d="M16.7072 48.3702C16.5054 48.2805 16.2548 48.2356 15.9558 48.2356C15.836 48.2356 15.7313 48.2468 15.6415 48.2692C15.4248 48.3142 15.2153 48.4188 15.0135 48.5833C14.819 48.748 14.6658 48.9423 14.5535 49.1667C14.4339 49.406 14.374 49.9631 14.374 50.838C14.374 51.743 14.4377 52.3299 14.5647 52.5991C14.6396 52.7562 14.7442 52.9095 14.8789 53.0591C15.0209 53.2011 15.1704 53.3095 15.3276 53.3843C15.5071 53.4742 15.7464 53.5189 16.0454 53.5189C16.3371 53.5189 16.5764 53.4742 16.7633 53.3843C16.9129 53.3095 17.0588 53.2048 17.2008 53.0703C17.343 52.9282 17.4513 52.7823 17.5262 52.6329C17.6682 52.3487 17.7392 51.7653 17.7392 50.8829C17.7392 50.4417 17.7206 50.0864 17.6831 49.8172C17.6458 49.4733 17.5635 49.2002 17.4364 48.9984C17.242 48.7068 16.9989 48.4974 16.7072 48.3702ZM15.6304 47.2373C15.78 47.2223 15.9034 47.2148 16.0005 47.2148C16.4941 47.2148 16.9502 47.3158 17.369 47.5176C18.0122 47.8243 18.4572 48.3142 18.7039 48.9872C18.8684 49.4209 18.9508 50.0678 18.9508 50.9277C18.9508 51.2941 18.9283 51.6381 18.8834 51.9598C18.831 52.386 18.7451 52.73 18.6254 52.9917C18.5058 53.246 18.3226 53.4965 18.0757 53.7432C17.5448 54.2743 16.8681 54.5397 16.0454 54.5397C15.2303 54.5397 14.561 54.2817 14.0376 53.7658C13.7384 53.4666 13.5253 53.1338 13.3981 52.7675C13.2785 52.3936 13.2 51.8625 13.1626 51.1746C13.1626 51.1447 13.1588 51.0998 13.1514 51.04C13.1514 50.9801 13.1514 50.9351 13.1514 50.9054C13.1514 50.0827 13.2374 49.4396 13.4094 48.9761C13.7907 47.9665 14.5312 47.3869 15.6304 47.2373Z" fill="#CFAB6D"/>
<path d="M25.2501 47.4627C25.3398 47.3729 25.4446 47.3281 25.5642 47.3281C25.6914 47.3281 25.8148 47.3879 25.9344 47.5075C26.0391 47.6198 26.1102 47.7506 26.1475 47.9001C26.185 48.0647 26.2036 48.9246 26.2036 50.4802C26.2036 51.6617 26.2073 52.3571 26.2149 52.5665C26.2223 52.7759 26.2559 52.9292 26.3157 53.0265C26.3905 53.1536 26.4915 53.2545 26.6186 53.3294C26.7159 53.3816 26.8206 53.4153 26.9327 53.4303C27.0449 53.4377 27.3104 53.4416 27.7292 53.4416C28.2301 53.4416 28.5854 53.4602 28.7948 53.4975C29.0116 53.5275 29.1761 53.5873 29.2884 53.677C29.3781 53.7519 29.4193 53.8528 29.4117 53.9799C29.3892 54.1968 29.1948 54.3426 28.8284 54.4174C28.6564 54.4548 28.1442 54.4735 27.2916 54.4735C26.342 54.4735 25.7922 54.4548 25.6427 54.4174C25.4109 54.3501 25.2277 54.2079 25.0931 53.9912L24.981 53.8117V50.211C24.981 48.9621 24.9921 48.2216 25.0146 47.9899C25.037 47.7581 25.1155 47.5824 25.2501 47.4627Z" fill="#CFAB6D"/>
<path d="M35.7561 47.4622C35.8533 47.3799 35.9618 47.3389 36.0814 47.3389C36.1935 47.3389 36.2946 47.3725 36.3843 47.4398C36.5188 47.5444 36.5974 47.7089 36.6199 47.9333C36.6498 48.1577 36.6685 48.797 36.6759 49.8514C36.6908 51.1004 36.7171 51.9379 36.7543 52.3642L36.8217 52.9138L37.0797 53.1494C37.3639 53.4111 37.7153 53.542 38.1341 53.542C38.1566 53.542 38.1902 53.542 38.2351 53.542C38.28 53.5344 38.3173 53.5307 38.3474 53.5307C38.8334 53.5082 39.2147 53.355 39.4914 53.0708C39.5737 52.981 39.626 52.9025 39.6485 52.8353C39.6709 52.7605 39.697 52.596 39.727 52.3417C39.7643 52.0052 39.7831 51.1975 39.7831 49.9188C39.7831 48.6624 39.8093 47.9595 39.8616 47.81C39.9663 47.4959 40.1458 47.3389 40.4 47.3389C40.5346 47.3389 40.6505 47.3912 40.7478 47.4959C40.8375 47.6005 40.9048 47.7089 40.9496 47.8212C40.9871 47.9483 41.0057 48.64 41.0057 49.8964C41.0057 51.3248 40.9685 52.2632 40.8936 52.7119C40.8187 53.1605 40.6393 53.527 40.3551 53.8112C39.8542 54.3122 39.1512 54.5628 38.2463 54.5628C37.3938 54.5628 36.7058 54.3309 36.1824 53.8672C35.8758 53.5905 35.6813 53.224 35.5991 52.7681C35.5243 52.3118 35.4868 51.3545 35.4868 49.8964C35.4868 48.8195 35.4981 48.1763 35.5206 47.967C35.543 47.7501 35.6214 47.5819 35.7561 47.4622Z" fill="#CFAB6D"/>
<path d="M47.4376 47.4729C47.5497 47.4206 48.3424 47.3945 49.8156 47.3945H50.7354C51.3561 47.3945 51.7376 47.402 51.8796 47.4169C52.0216 47.4244 52.1375 47.4506 52.2273 47.4955C52.4442 47.6001 52.5526 47.7235 52.5526 47.8657C52.5526 47.9104 52.5414 47.9553 52.519 48.0003C52.4143 48.2171 52.0814 48.3405 51.5206 48.3704C51.1616 48.3853 50.9485 48.4115 50.8811 48.4489C50.8139 48.4863 50.7354 48.5573 50.6456 48.662C50.5635 48.7593 50.5073 48.8453 50.4775 48.9199C50.44 49.0172 50.4214 49.8473 50.4214 51.4103C50.4214 52.9732 50.4026 53.8182 50.3652 53.9454C50.3353 54.0575 50.2717 54.1735 50.1746 54.2931C50.0773 54.4128 49.9875 54.48 49.9054 54.495C49.883 54.5026 49.8529 54.5063 49.8156 54.5063C49.6062 54.5063 49.4417 54.3829 49.322 54.136L49.1986 53.8893V51.4551C49.1986 50.139 49.1837 49.3613 49.1538 49.122C49.1313 48.8752 49.0379 48.6882 48.8735 48.5611C48.8659 48.5611 48.8584 48.5611 48.8509 48.5611C48.8509 48.5535 48.8471 48.5461 48.8397 48.5386C48.75 48.4714 48.6677 48.4302 48.593 48.4153C48.5256 48.3929 48.3649 48.3779 48.1106 48.3704C47.7367 48.348 47.4937 48.3068 47.3815 48.247C47.1646 48.1423 47.0562 48.0189 47.0562 47.8768C47.0562 47.7198 47.1833 47.5852 47.4376 47.4729Z" fill="#CFAB6D"/>
<path d="M58.8805 47.4164C58.9627 47.334 59.0637 47.293 59.1834 47.293C59.3927 47.293 59.5648 47.4127 59.6993 47.652C59.7591 47.7565 59.7929 47.936 59.8003 48.1905C59.8078 48.4372 59.8152 49.2672 59.8228 50.6806V51.6004C59.8228 52.8643 59.8078 53.5859 59.7779 53.7654C59.7405 53.9449 59.6769 54.0869 59.5871 54.1916C59.4899 54.3113 59.3704 54.3711 59.2282 54.3711C58.9964 54.3711 58.8244 54.2589 58.7123 54.0346C58.6674 53.9373 58.6374 53.7354 58.6225 53.4289C58.615 53.1222 58.6113 52.266 58.6113 50.8601C58.6113 49.2748 58.6225 48.3399 58.6449 48.0557C58.6674 47.7641 58.7421 47.5547 58.8692 47.4276L58.8805 47.4164Z" fill="#CFAB6D"/>
<path d="M69.3986 48.3702C69.1968 48.2805 68.9462 48.2356 68.6471 48.2356C68.5274 48.2356 68.4227 48.2468 68.333 48.2692C68.1162 48.3142 67.9067 48.4188 67.7049 48.5833C67.5105 48.748 67.357 48.9423 67.2449 49.1667C67.1252 49.406 67.0654 49.9631 67.0654 50.838C67.0654 51.743 67.129 52.3299 67.2562 52.5991C67.331 52.7562 67.4355 52.9095 67.5703 53.0591C67.7123 53.2011 67.8619 53.3095 68.0189 53.3843C68.1983 53.4742 68.4377 53.5189 68.7368 53.5189C69.0284 53.5189 69.2677 53.4742 69.4547 53.3843C69.6043 53.3095 69.7501 53.2048 69.8922 53.0703C70.0343 52.9282 70.1428 52.7823 70.2176 52.6329C70.3596 52.3487 70.4305 51.7653 70.4305 50.8829C70.4305 50.4417 70.4119 50.0864 70.3746 49.8172C70.3371 49.4733 70.2549 49.2002 70.1277 48.9984C69.9332 48.7068 69.6902 48.4974 69.3986 48.3702ZM68.3217 47.2373C68.4713 47.2223 68.5948 47.2148 68.6919 47.2148C69.1855 47.2148 69.6416 47.3158 70.0604 47.5176C70.7036 47.8243 71.1484 48.3142 71.3953 48.9872C71.5597 49.4209 71.6421 50.0678 71.6421 50.9277C71.6421 51.2941 71.6197 51.6381 71.5748 51.9598C71.5224 52.386 71.4365 52.73 71.3167 52.9917C71.1972 53.246 71.0139 53.4965 70.7671 53.7432C70.2362 54.2743 69.5595 54.5397 68.7368 54.5397C67.9217 54.5397 67.2523 54.2817 66.729 53.7658C66.4299 53.4666 66.2166 53.1338 66.0895 52.7675C65.9699 52.3936 65.8914 51.8625 65.8539 51.1746C65.8539 51.1447 65.8502 51.0998 65.8428 51.04C65.8428 50.9801 65.8428 50.9351 65.8428 50.9054C65.8428 50.0827 65.9287 49.4396 66.1008 48.9761C66.4821 47.9665 67.2226 47.3869 68.3217 47.2373Z" fill="#CFAB6D"/>
<path d="M77.7503 47.7202C77.8626 47.4659 78.0382 47.3389 78.2777 47.3389C78.5244 47.3389 78.7786 47.4696 79.0404 47.7315C79.1676 47.8586 79.6798 48.6624 80.5771 50.1431C81.452 51.6014 81.912 52.3304 81.9568 52.3304C81.9868 52.3304 82.0017 51.9677 82.0017 51.2424C82.0091 50.5095 82.0204 49.7542 82.0354 48.9765C82.0503 48.1913 82.0839 47.7501 82.1363 47.6528C82.2484 47.4436 82.4093 47.3389 82.6186 47.3389C82.8504 47.3389 83.0225 47.4846 83.1346 47.7763C83.1721 47.8884 83.1945 48.1054 83.202 48.4269C83.2169 48.7485 83.2243 49.5673 83.2243 50.8834C83.2243 52.1995 83.2169 53.0185 83.202 53.34C83.1945 53.6617 83.1721 53.8784 83.1346 53.9907C83.0225 54.2749 82.8504 54.4169 82.6186 54.4169C82.499 54.4169 82.383 54.387 82.2709 54.3272C82.0017 54.185 81.7101 53.8672 81.396 53.3736C81.1342 52.955 80.966 52.6931 80.8912 52.5886C80.8313 52.5062 80.5023 51.9715 79.904 50.9844C79.3059 49.9973 79.003 49.5 78.9955 49.4926L78.9057 49.3691L78.8946 49.4926C78.8946 50.203 78.8983 50.9433 78.9057 51.7135V52.566C78.9057 53.269 78.8908 53.7065 78.8609 53.8784C78.8309 54.043 78.7562 54.185 78.6365 54.3046C78.5543 54.387 78.4533 54.4281 78.3337 54.4281C78.1019 54.4281 77.9336 54.3272 77.8289 54.1253C77.7691 54.0206 77.7317 53.7625 77.7167 53.3512C77.7017 52.9324 77.6905 52.0501 77.6831 50.7039V49.0439C77.6831 48.2661 77.7054 47.8249 77.7503 47.7202Z" fill="#CFAB6D"/>
<path d="M91.1473 47.3603C91.3267 47.3154 91.5996 47.293 91.966 47.293C92.3324 47.293 92.6055 47.3154 92.785 47.3603C92.942 47.3902 93.1327 47.4575 93.3571 47.5621C93.5066 47.6295 93.6823 47.7528 93.8841 47.9323C94.0861 48.1118 94.2244 48.2614 94.2992 48.3811C94.3441 48.4483 94.3927 48.6054 94.4451 48.8523C94.5049 49.0915 94.5348 49.2672 94.5348 49.3793C94.5348 49.3869 94.5311 49.3982 94.5236 49.4131V49.4354C94.5012 49.4729 94.3965 49.4916 94.2095 49.4916C94.0226 49.4916 93.8804 49.4729 93.7833 49.4354C93.5813 49.3533 93.428 49.2037 93.3233 48.9868C93.2635 48.8597 93.1513 48.7325 92.9868 48.6054C92.8299 48.4708 92.6764 48.3811 92.527 48.3362C92.3773 48.2913 92.2016 48.2689 91.9997 48.2689C91.8202 48.2689 91.6445 48.2876 91.4725 48.325C91.2257 48.3774 91.0276 48.4895 90.878 48.6615C90.7285 48.8259 90.6536 49.0129 90.6536 49.2224C90.6536 49.3047 90.6723 49.4019 90.7097 49.514C90.7846 49.701 90.9192 49.8505 91.1135 49.9627C91.3155 50.0749 91.6857 50.2169 92.2241 50.3889C92.8671 50.5909 93.3532 50.8003 93.6823 51.0171C94.0113 51.234 94.2544 51.5033 94.4113 51.8247C94.4861 51.9744 94.5311 52.094 94.5459 52.1837C94.5611 52.266 94.5685 52.4192 94.5685 52.6436C94.5685 52.9726 94.5273 53.2232 94.4451 53.3951C94.1834 53.9336 93.6786 54.3038 92.9307 54.5057C92.7288 54.5581 92.4446 54.5841 92.0781 54.5841C91.6894 54.5841 91.3753 54.5543 91.136 54.4944C90.792 54.3972 90.4704 54.2551 90.1713 54.0682C89.8721 53.8737 89.6628 53.6756 89.5431 53.4738C89.4833 53.3765 89.4235 53.2119 89.3636 52.9802C89.3038 52.7409 89.2739 52.5575 89.2739 52.4304C89.2739 52.3932 89.2739 52.3706 89.2739 52.3632C89.2814 52.3483 89.2927 52.337 89.3075 52.3295C89.33 52.3221 89.3636 52.3183 89.4085 52.3183C89.4235 52.3183 89.4571 52.3221 89.5095 52.3295C89.5618 52.3295 89.6105 52.3295 89.6554 52.3295C89.8872 52.337 90.0554 52.3782 90.16 52.453C90.2723 52.5202 90.3807 52.6511 90.4854 52.8455C90.7397 53.339 91.237 53.5859 91.9773 53.5859H92.123C92.6541 53.5634 93.0168 53.4251 93.2112 53.1708C93.3233 53.0212 93.3794 52.8417 93.3794 52.6325C93.3794 52.4903 93.3495 52.3594 93.2897 52.2397C93.1925 52.0602 93.0429 51.9145 92.841 51.8023C92.6467 51.6902 92.2988 51.5631 91.7978 51.4209C90.9827 51.1816 90.3844 50.89 90.0031 50.546C89.6216 50.1946 89.431 49.7758 89.431 49.2896C89.431 49.1924 89.4347 49.1214 89.4421 49.0765C89.4796 48.6802 89.6554 48.3251 89.9693 48.011C90.2834 47.6893 90.6762 47.4725 91.1473 47.3603Z" fill="#CFAB6D"/>
<path d="M107.956 47.4627C108.046 47.3729 108.15 47.3281 108.27 47.3281C108.397 47.3281 108.52 47.3879 108.64 47.5075C108.745 47.6198 108.816 47.7506 108.853 47.9001C108.891 48.0647 108.91 48.9246 108.91 50.4802C108.91 51.6617 108.913 52.3571 108.92 52.5665C108.928 52.7759 108.962 52.9292 109.022 53.0265C109.096 53.1536 109.197 53.2545 109.324 53.3294C109.422 53.3816 109.527 53.4153 109.638 53.4303C109.75 53.4377 110.017 53.4416 110.435 53.4416C110.936 53.4416 111.291 53.4602 111.501 53.4975C111.717 53.5275 111.882 53.5873 111.994 53.677C112.084 53.7519 112.125 53.8528 112.117 53.9799C112.096 54.1968 111.901 54.3426 111.534 54.4174C111.362 54.4548 110.85 54.4735 109.997 54.4735C109.048 54.4735 108.498 54.4548 108.348 54.4174C108.117 54.3501 107.934 54.2079 107.799 53.9912L107.687 53.8117V50.211C107.687 48.9621 107.698 48.2216 107.72 47.9899C107.743 47.7581 107.822 47.5824 107.956 47.4627Z" fill="#CFAB6D"/>
<path d="M118.597 47.4729C118.709 47.4206 119.502 47.3945 120.975 47.3945H121.895C122.516 47.3945 122.897 47.402 123.039 47.4169C123.181 47.4244 123.297 47.4506 123.386 47.4955C123.604 47.6001 123.712 47.7235 123.712 47.8657C123.712 47.9104 123.7 47.9553 123.678 48.0003C123.574 48.2171 123.241 48.3405 122.679 48.3704C122.321 48.3853 122.107 48.4115 122.041 48.4489C121.974 48.4863 121.895 48.5573 121.805 48.662C121.723 48.7593 121.667 48.8453 121.637 48.9199C121.599 49.0172 121.581 49.8473 121.581 51.4103C121.581 52.9732 121.562 53.8182 121.525 53.9454C121.495 54.0575 121.431 54.1735 121.334 54.2931C121.237 54.4128 121.147 54.48 121.065 54.495C121.042 54.5026 121.012 54.5063 120.975 54.5063C120.765 54.5063 120.6 54.3829 120.481 54.136L120.358 53.8893V51.4551C120.358 50.139 120.343 49.3613 120.313 49.122C120.291 48.8752 120.197 48.6882 120.033 48.5611C120.025 48.5611 120.018 48.5611 120.01 48.5611C120.01 48.5535 120.007 48.5461 119.999 48.5386C119.909 48.4714 119.827 48.4302 119.752 48.4153C119.684 48.3929 119.524 48.3779 119.27 48.3704C118.896 48.348 118.653 48.3068 118.54 48.247C118.324 48.1423 118.216 48.0189 118.216 47.8768C118.216 47.7198 118.342 47.5852 118.597 47.4729Z" fill="#CFAB6D"/>
<path d="M132.529 48.3698C132.029 48.3025 131.715 48.2688 131.587 48.2688C131.527 48.2688 131.487 48.2726 131.464 48.2801C131.397 48.295 131.322 48.3362 131.239 48.4034C131.12 48.5157 131.048 48.6802 131.027 48.897C131.004 49.1064 130.992 49.757 130.992 50.8489C130.992 51.851 130.997 52.4492 131.004 52.6436C131.019 52.8306 131.053 52.9763 131.105 53.081C131.164 53.2082 131.229 53.2943 131.296 53.339C131.362 53.3839 131.467 53.4064 131.61 53.4064C131.662 53.4064 131.853 53.3914 132.182 53.3615C132.615 53.3091 132.885 53.2605 132.99 53.2156C133.08 53.1708 133.194 53.0736 133.336 52.924C133.487 52.7745 133.594 52.6399 133.662 52.5202C133.744 52.378 133.812 52.0641 133.864 51.5779C133.901 51.2863 133.92 51.0396 133.92 50.8376C133.92 50.6431 133.901 50.4038 133.864 50.1198C133.827 49.7458 133.785 49.4916 133.74 49.357C133.696 49.215 133.603 49.0578 133.461 48.8859C133.318 48.7064 133.188 48.5866 133.068 48.5269C132.955 48.4595 132.776 48.4072 132.529 48.3698ZM130.399 47.3043C130.488 47.2817 130.671 47.2705 130.948 47.2705C131.763 47.2705 132.432 47.3229 132.955 47.4276C133.42 47.5248 133.824 47.7268 134.167 48.0333C134.519 48.3325 134.766 48.6989 134.908 49.1326C134.975 49.327 135.034 49.6561 135.088 50.1198C135.117 50.3665 135.131 50.6394 135.131 50.9385C135.131 51.3724 135.091 51.7949 135.008 52.2061C134.971 52.4155 134.882 52.6548 134.739 52.924C134.605 53.1857 134.462 53.3914 134.313 53.541C134.179 53.6681 133.994 53.799 133.764 53.9335C133.538 54.0607 133.34 54.1504 133.169 54.2028C132.713 54.3374 132.006 54.4047 131.048 54.4047C130.653 54.4047 130.402 54.3823 130.297 54.3374C130.065 54.2401 129.908 54.0795 129.827 53.8551C129.788 53.7578 129.77 52.7483 129.77 50.8265C129.77 49.4728 129.774 48.6464 129.781 48.3474C129.797 48.0483 129.827 47.8501 129.871 47.7528C129.983 47.5285 130.159 47.3789 130.399 47.3043Z" fill="#CFAB6D"/>
<path d="M141.431 53.518C141.514 53.4655 141.617 53.4395 141.745 53.4395C141.999 53.4395 142.182 53.5366 142.295 53.7311C142.34 53.8208 142.361 53.9106 142.361 54.0003C142.361 54.2694 142.229 54.4565 141.959 54.5611C141.891 54.5911 141.829 54.606 141.767 54.606C141.722 54.606 141.66 54.5911 141.577 54.5611C141.45 54.5163 141.349 54.4377 141.275 54.3255C141.199 54.221 141.162 54.105 141.162 53.9778C141.162 53.7684 141.252 53.6152 141.431 53.518Z" fill="#CFAB6D"/>
<path d="M7.70582 9.12123H7.46043C7.29685 11.2806 6.96969 15.3375 6.47893 21.292C6.0209 27.2138 5.79188 30.4364 5.79188 30.9597C5.79188 31.974 6.299 32.4812 7.31322 32.4812L9.32531 32.4321L9.42346 32.6284L8.98178 34.8367C8.6219 34.804 7.96756 34.755 7.01877 34.6896C6.10269 34.6568 5.17026 34.6405 4.22147 34.6405C3.40353 34.6405 2.55289 34.6896 1.66955 34.7877C0.8189 34.9185 0.262712 35.0004 0.000976562 35.0331L0.246353 32.7756C1.29329 32.6447 2.04579 32.3176 2.50382 31.794C2.96186 31.238 3.25632 30.3054 3.38718 28.9968C4.82673 15.8446 5.5465 8.77772 5.5465 7.7962C5.5465 6.94556 5.20298 6.30758 4.51592 5.88225C3.86158 5.45693 2.78191 5.19521 1.27694 5.09705L1.12971 4.85167L1.52231 3.13404C1.94763 3.16675 2.78191 3.21583 4.02516 3.28126C5.2684 3.34669 6.2172 3.37941 6.87153 3.37941C7.46043 3.37941 8.09843 3.36305 8.78549 3.33034C9.50525 3.2649 9.97965 3.21583 10.2087 3.18311C11.5173 7.40359 12.777 11.3296 13.9875 14.9612C15.2307 18.56 16.2449 21.4228 17.03 23.5494C17.8154 25.676 18.3062 27.001 18.5024 27.5246H18.7478C19.2058 26.3141 20.2528 23.4349 21.8886 18.8873C23.5245 14.3396 25.3075 9.1376 27.2379 3.28126C27.2379 3.24854 27.6796 3.2649 28.5628 3.33034L30.4769 3.37941C31.0984 3.37941 32.031 3.34669 33.2742 3.28126C34.5174 3.18311 35.3516 3.11768 35.7769 3.08496L35.8751 3.28126L35.6298 5.09705C34.2228 5.26064 33.2251 5.55509 32.6361 5.98041C32.0472 6.37301 31.7527 6.97827 31.7527 7.7962C31.7527 8.51598 31.9001 11.1988 32.1945 15.8446C32.4889 20.4577 32.767 24.4492 33.0288 27.819C33.1923 29.1604 33.3559 30.1582 33.5196 30.8125C33.683 31.4342 33.912 31.876 34.2066 32.1376C34.501 32.3666 34.91 32.4812 35.4334 32.4812C35.7279 32.4812 36.006 32.4648 36.2677 32.4321C36.5294 32.3993 36.7095 32.383 36.8075 32.383L36.9057 32.5792L36.4641 34.7877C36.1368 34.755 35.5153 34.7223 34.5992 34.6896C33.7158 34.6568 32.7834 34.6405 31.8019 34.6405C30.9185 34.6405 29.9207 34.6896 28.8082 34.7877C27.7286 34.9185 27.0252 35.0004 26.6981 35.0331L26.8943 32.7756C27.9085 32.6447 28.6447 32.383 29.1028 31.9904C29.5608 31.5978 29.7897 31.0416 29.7897 30.3219C29.7897 29.6347 29.5443 26.4449 29.0536 20.7521C28.5955 15.0593 28.2847 11.1824 28.1212 9.12123H27.8758L18.4042 35.2294L17.2265 35.5729L7.70582 9.12123Z" fill="#CFAB6D"/>
<path d="M50.4359 7.94416C50.2395 11.7721 50.0759 15.7799 49.9451 19.9676C49.8142 24.1227 49.7487 27.1817 49.7487 29.1448C49.7487 30.4861 49.896 31.3859 50.1905 31.8439C50.4849 32.2692 51.0574 32.4819 51.9081 32.4819C52.497 32.4819 53.0368 32.4655 53.5276 32.4329C54.0184 32.4002 54.3455 32.3674 54.509 32.3347L54.6072 32.531L54.1655 34.7884C53.7075 34.7557 52.8404 34.723 51.5645 34.6903C50.3213 34.6575 49.0453 34.6412 47.7366 34.6412C46.6896 34.6412 45.561 34.723 44.3505 34.8866C43.1726 35.0501 42.4037 35.1647 42.0439 35.2302L42.3384 32.9727C43.876 32.6781 44.9066 32.2528 45.4301 31.6967C45.9863 31.1078 46.2643 30.1264 46.2643 28.7522L46.3134 8.14047C46.3134 7.09353 46.1826 6.39012 45.9209 6.03023C45.6918 5.67034 45.2175 5.49039 44.4977 5.49039C44.0724 5.49039 43.6471 5.50675 43.2216 5.53947C42.829 5.57218 42.5674 5.58855 42.4364 5.58855L42.3384 5.39225L42.6818 3.23293C43.1073 3.26564 43.8925 3.29836 45.0375 3.33108C46.1826 3.3638 47.344 3.38016 48.5218 3.38016C49.4706 3.38016 50.5502 3.33108 51.7608 3.23293C53.0041 3.10206 53.8057 3.00391 54.1655 2.93848L53.9692 5.14688C52.5951 5.31046 51.6791 5.58855 51.2209 5.98115C50.763 6.34104 50.5012 6.99539 50.4359 7.94416Z" fill="#CFAB6D"/>
<path d="M72.5856 35.2289C72.0948 35.1634 71.0479 35.0489 69.4447 34.8853C67.8743 34.7219 66.5656 34.6399 65.5186 34.6399C64.5045 34.6399 63.392 34.7219 62.1815 34.8853C61.0038 35.0489 60.2349 35.1634 59.875 35.2289L60.1696 32.9714C61.6745 32.677 62.6886 32.2516 63.2121 31.6954C63.7356 31.1065 63.9973 30.1251 63.9973 28.7509L64.0464 8.13923C64.0464 7.0923 63.9155 6.38888 63.6539 6.02899C63.4248 5.66911 62.9504 5.48916 62.2307 5.48916C61.9034 5.48916 61.5763 5.50551 61.2492 5.53824C60.922 5.57095 60.6929 5.58732 60.562 5.58732L60.4638 5.39101L60.8074 3.23169C61.1672 3.26441 61.8544 3.29713 62.8687 3.32985C63.8828 3.36256 64.9134 3.37892 65.9603 3.37892C67.3673 3.37892 68.8231 3.36256 70.328 3.32985C71.833 3.26441 72.8636 3.21533 73.4199 3.18262C76.5606 3.18262 79.3579 3.80424 81.8118 5.04749C84.2655 6.25801 86.163 7.97565 87.5044 10.2004C88.8786 12.4252 89.5655 14.9771 89.5655 17.8562C89.5655 21.0625 88.8131 23.9906 87.3082 26.6407C85.8031 29.2907 83.7584 31.3846 81.1738 32.9224C78.5891 34.46 75.7264 35.2289 72.5856 35.2289ZM70.0336 5.58732C69.3466 5.58732 68.8884 5.66911 68.6595 5.83269C68.4305 5.96356 68.2996 6.24165 68.2669 6.66698C67.7762 19.263 67.5307 26.4444 67.5307 28.211C67.5307 29.4544 67.6944 30.3867 68.0215 31.0085C68.3814 31.63 68.9868 32.0717 69.8373 32.3334C70.7208 32.5951 72.013 32.726 73.7143 32.726C77.2478 32.726 80.0286 31.5155 82.057 29.0945C84.0856 26.6407 85.0997 23.2873 85.0997 19.0341C85.0997 14.7153 83.7912 11.3946 81.1738 9.07167C78.5891 6.74877 74.8757 5.58732 70.0336 5.58732Z" fill="#CFAB6D"/>
<path d="M115.153 29.0944C115.545 30.3049 116.069 31.1557 116.724 31.6465C117.378 32.1371 118.424 32.4479 119.864 32.5788L119.962 32.7751L119.618 34.7872C119.226 34.7872 118.506 34.7545 117.459 34.689C116.445 34.6563 115.431 34.64 114.417 34.64C112.847 34.64 111.324 34.7055 109.853 34.8362C108.413 34.9671 107.497 35.0653 107.105 35.1308L106.957 34.7872L107.153 32.8732C108.822 32.7425 109.967 32.5462 110.589 32.2843C111.21 32.0226 111.521 31.5973 111.521 31.0085C111.521 30.3541 111.374 29.5689 111.08 28.6528L109.46 23.3036C108.675 23.2709 106.974 23.2546 104.356 23.2546C102.786 23.2546 101.003 23.3854 99.0071 23.647L97.1912 28.7508C96.8968 29.6343 96.7496 30.2723 96.7496 30.6649C96.7496 31.3846 96.9786 31.9081 97.4366 32.2353C97.8946 32.5297 98.6471 32.677 99.6941 32.677H102.491L102.589 32.8732L102.295 34.9835C101.903 34.9508 101.003 34.8854 99.5959 34.7872C98.1892 34.689 96.815 34.64 95.4736 34.64C94.263 34.64 93.1342 34.6563 92.0874 34.689C91.0731 34.7218 90.4024 34.7545 90.0752 34.7872L90.4679 32.4807C91.3839 32.3825 92.1201 32.0718 92.6763 31.5483C93.2324 30.9921 93.7722 30.0433 94.2957 28.702L103.866 3.62432L106.957 2.79004H107.35C107.546 3.57525 108.037 5.39104 108.822 8.2374C109.64 11.0838 110.622 14.4537 111.767 18.347C112.944 22.2403 114.073 25.8228 115.153 29.0944ZM104.209 21.2423C105.354 21.2423 106.875 21.1606 108.773 20.9971L104.896 8.13926H104.553L99.8903 21.2423H104.209Z" fill="#CFAB6D"/>
<path d="M130.078 35.2289C128.704 35.2289 127.445 35.098 126.3 34.8362C125.154 34.6073 124.205 34.3456 123.453 34.0512C122.734 33.7566 122.373 33.593 122.373 33.5604L122.127 33.0696C122.161 32.8732 122.226 32.3825 122.324 31.5973C122.423 30.8121 122.505 29.7979 122.57 28.5546C122.667 27.2787 122.717 25.9372 122.717 24.5304L124.926 24.285C124.926 26.7389 125.089 28.5546 125.416 29.7324C125.743 30.9103 126.348 31.7282 127.231 32.1863C128.115 32.6116 129.473 32.8242 131.305 32.8242C133.366 32.8242 135.018 32.3498 136.261 31.4011C137.505 30.4195 138.127 29.0944 138.127 27.4259C138.127 26.4445 137.783 25.5611 137.096 24.7758C136.441 23.9906 135.657 23.3199 134.74 22.7638C133.825 22.2076 132.467 21.4551 130.667 20.5063C128.966 19.6229 127.575 18.8214 126.496 18.1016C125.416 17.3491 124.5 16.4656 123.747 15.4515C123.028 14.4373 122.667 13.2595 122.667 11.9181C122.667 10.2168 123.159 8.67909 124.14 7.30498C125.154 5.89815 126.512 4.80213 128.213 4.01692C129.948 3.199 131.862 2.79004 133.955 2.79004C135.264 2.79004 136.474 2.88819 137.586 3.08449C138.699 3.24808 139.583 3.42802 140.237 3.62432C140.892 3.82062 141.3 3.95149 141.463 4.01692L141.611 4.31138C141.579 4.50768 141.496 4.96571 141.366 5.68549C141.235 6.40526 141.087 7.40313 140.924 8.67909C140.76 9.95506 140.629 11.2637 140.532 12.6051L138.617 12.8014L138.323 12.556C138.355 12.4252 138.389 12.1307 138.42 11.6727C138.454 11.1819 138.471 10.6258 138.471 10.0041C138.471 8.27013 138.044 7.07595 137.194 6.42162C136.344 5.76728 134.823 5.4401 132.63 5.4401C130.831 5.4401 129.342 5.89815 128.164 6.81423C127.019 7.69758 126.447 8.80996 126.447 10.1514C126.447 11.46 127.002 12.6051 128.115 13.5867C129.26 14.5354 130.929 15.5823 133.121 16.7275C135.248 17.8072 136.867 18.7069 137.979 19.4266C139.093 20.1137 140.073 20.9807 140.924 22.0276C141.774 23.0747 142.2 24.285 142.2 25.6593C142.2 27.4913 141.677 29.1436 140.629 30.6158C139.615 32.0554 138.192 33.1841 136.36 34.002C134.528 34.82 132.434 35.2289 130.078 35.2289Z" fill="#CFAB6D"/>
</g>
</g>
</g>
</g>
</g>
<defs>
<clipPath id="clip0_42_4632">
<rect width="147" height="56" fill="white"/>
</clipPath>
<clipPath id="clip1_42_4632">
<rect width="143.492" height="57.3969" fill="white"/>
</clipPath>
<clipPath id="clip2_42_4632">
<rect width="143.492" height="57.3969" fill="white"/>
</clipPath>
<clipPath id="clip3_42_4632">
<rect width="143.492" height="51.8167" fill="white" transform="translate(0 2.79102)"/>
</clipPath>
</defs>
</svg>
