<svg width="141" height="32" viewBox="0 0 141 32" fill="none" xmlns="http://www.w3.org/2000/svg">
<path d="M22.1362 0.438424C21.0435 4.43163 19.0328 7.94739 16.1918 10.9857C13.0447 14.3278 9.242 16.6717 4.7837 17.9304C3.42873 18.3211 2.07375 18.6683 0.631348 18.6683C0.631348 12.7218 0.631348 6.77547 0.631348 0.829064C0.631348 0.481828 0.718766 0.39502 1.06844 0.39502C8.06188 0.438424 15.0991 0.438424 22.1362 0.438424Z" fill="#2979F3"/>
<path d="M11.9956 31.6897C11.4274 31.4292 10.8155 31.4292 10.2036 31.299C6.26976 30.2139 3.47238 27.8267 1.72401 24.1373C1.59289 23.8335 1.54918 23.7033 1.98627 23.6165C5.78896 23.0956 9.32941 21.9237 12.6513 20.0139C12.9572 19.8403 13.1758 19.7969 13.3943 20.1875C15.4049 23.3126 17.4156 26.4377 19.4261 29.5629C19.6447 29.9101 19.5573 29.9969 19.2514 30.1705C17.8526 30.9084 16.3665 31.3858 14.793 31.5595C14.6619 31.5595 14.5307 31.5161 14.4434 31.6897C13.6566 31.6897 12.8261 31.6897 11.9956 31.6897Z" fill="#2979F3"/>
<path d="M140.5 13.3297C139.844 13.3297 139.232 13.2863 138.577 13.2863C138.227 13.2863 138.009 13.156 137.834 12.8522C136.479 10.465 135.124 8.12112 133.769 5.73388C133.681 5.60366 133.594 5.43005 133.506 5.29983C133.376 5.47345 133.419 5.64706 133.419 5.82068C133.419 8.12112 133.419 10.465 133.419 12.7654C133.419 13.156 133.332 13.3731 132.895 13.3297C132.326 13.2429 131.584 13.5467 131.277 13.1994C131.015 12.8956 131.19 12.1578 131.19 11.6369C131.19 8.51178 131.19 5.43005 131.19 2.30493C131.19 1.87088 131.321 1.74066 131.758 1.78407C132.064 1.82748 132.413 1.82748 132.72 1.78407C133.506 1.65386 133.856 2.0011 134.206 2.65216C135.386 4.86579 136.654 6.9926 137.877 9.1628C137.965 9.29302 138.052 9.42324 138.139 9.55346C138.358 9.46664 138.271 9.33642 138.271 9.2062C138.271 6.90579 138.271 4.56196 138.271 2.26152C138.271 1.82748 138.358 1.69727 138.795 1.74066C139.364 1.78407 139.931 1.74066 140.5 1.69727C140.5 5.60366 140.5 9.46664 140.5 13.3297Z" fill="#020202"/>
<path d="M25.9829 4.86572C25.9829 5.86403 25.9829 6.73212 25.9829 7.5568C25.9829 11.5934 26.0266 15.6735 25.9392 19.71C25.8954 22.0973 25.0212 24.2241 23.71 26.1773C23.3603 26.6982 23.2729 26.6548 22.967 26.1339C21.0875 23.2258 19.208 20.2743 17.3285 17.3662C17.1099 17.019 17.1973 16.8454 17.4596 16.6283C21.1749 13.4598 23.9285 9.59678 25.808 5.12615C25.808 5.08275 25.8517 5.08275 25.9829 4.86572Z" fill="#2979F3"/>
<path d="M68.3814 4.38742C67.7695 7.2087 67.1138 10.0734 66.5019 12.8947C66.4145 13.1985 66.2834 13.2853 65.9774 13.2853C65.4966 13.2419 64.9721 13.2419 64.4913 13.2853C64.1416 13.2853 64.0542 13.1551 63.9668 12.8513C63.3548 10.0734 62.743 7.29552 62.131 4.51763C62.0873 4.34401 62.0436 4.2138 61.9562 4.04018C61.9562 4.90827 61.9562 5.77636 61.9562 6.64445C61.9562 8.68449 61.9562 10.7244 61.9562 12.7645C61.9562 13.1985 61.825 13.3287 61.388 13.2853C60.9946 13.2419 60.6012 13.2419 60.2078 13.2853C59.8145 13.3287 59.7271 13.1551 59.7271 12.8079C59.7271 9.2921 59.7271 5.77636 59.7271 2.21719C59.7271 1.82656 59.8145 1.73975 60.2078 1.73975C61.0383 1.78315 61.8687 1.78315 62.6555 1.73975C63.0926 1.73975 63.2237 1.86996 63.3111 2.30401C63.9231 5.03849 64.535 7.72956 65.1469 10.4207C65.1469 10.4641 65.1906 10.5075 65.2343 10.7678C65.4529 9.85638 65.6277 9.07507 65.8026 8.33723C66.2834 6.29721 66.7642 4.25721 67.2013 2.21719C67.2887 1.86996 67.3761 1.78315 67.7258 1.78315C68.5999 1.82656 69.4742 1.78315 70.3483 1.78315C70.6543 1.78315 70.7417 1.86996 70.7417 2.1738C70.7417 5.73296 70.7417 9.33551 70.7417 12.8947C70.7417 13.2419 70.6106 13.3287 70.3046 13.2853C69.8675 13.2853 69.4305 13.2419 68.9933 13.2853C68.5999 13.3287 68.5125 13.1551 68.5125 12.8079C68.5125 9.9866 68.5125 7.2087 68.5562 4.38742C68.5562 4.2138 68.5562 3.99678 68.5562 3.82316H68.5125C68.4688 4.04018 68.4251 4.2138 68.3814 4.38742Z" fill="#020202"/>
<path d="M46.4379 7.38205C46.3942 8.90121 46.1757 10.2033 45.3452 11.3752C45.2141 11.5489 45.2578 11.6357 45.3889 11.7659C45.6512 12.0263 45.9134 12.2868 46.1757 12.5038C46.4379 12.7208 46.4816 12.851 46.2194 13.1114C45.8697 13.4153 45.6075 13.9795 45.2578 14.0229C44.9081 14.0664 44.5585 13.5021 44.2525 13.1982C43.9902 12.8944 43.7717 12.8944 43.3783 13.068C40.0564 14.8476 35.9915 12.634 35.5544 8.8144C35.3795 7.29524 35.4232 5.77608 36.1226 4.34374C37.0842 2.26033 39.3134 1.1318 41.6736 1.43564C44.0776 1.78287 45.8697 3.43224 46.3068 5.68927C46.3942 6.29694 46.4379 6.86119 46.4379 7.38205ZM43.422 10.1165C44.1651 8.59737 44.2525 6.68757 43.6842 5.29864C43.2034 4.08331 42.2856 3.43224 40.9743 3.43224C39.6631 3.43224 38.6577 4.12671 38.2206 5.34204C38.0895 5.73268 37.9584 6.12332 37.9147 6.55736C37.8273 7.8595 37.7398 9.20506 38.5703 10.377C39.4008 11.5489 41.0617 11.9395 42.1981 11.245C42.1544 11.2016 42.1107 11.1148 42.067 11.0715C41.1054 10.0731 41.1054 10.1165 42.1107 9.11825C42.373 8.90121 42.5041 8.94462 42.679 9.11825C42.8975 9.42209 43.116 9.72586 43.422 10.1165Z" fill="#020202"/>
<path d="M49.3669 21.0984C49.3669 21.272 49.3669 21.4456 49.3669 21.6192C49.3669 23.9197 49.3669 26.2635 49.3669 28.5639C49.3669 28.9546 49.3232 29.1282 48.8861 29.0848C48.449 29.0414 47.9682 29.0414 47.5311 29.0848C47.2688 29.0848 47.1377 29.0414 47.1377 28.7376C47.1377 25.135 47.1377 21.489 47.1377 17.8865C47.1377 17.5826 47.2688 17.5392 47.4874 17.5392C48.0993 17.5392 48.7112 17.5392 49.3232 17.5392C49.6291 17.5392 49.7165 17.7129 49.8476 17.9299C51.159 20.2737 52.4702 22.5741 53.8252 24.9179C53.9126 25.0482 53.9563 25.2652 54.1749 25.3954C54.1749 25.1784 54.1749 25.0482 54.1749 24.8745C54.1749 22.6176 54.1749 20.3171 54.1749 18.0601C54.1749 17.6694 54.2623 17.4958 54.6993 17.5392C55.1364 17.5826 55.5736 17.5826 56.0107 17.5392C56.3603 17.5392 56.4477 17.626 56.4477 17.9733C56.4477 21.5324 56.4477 25.135 56.4477 28.6942C56.4477 28.9546 56.3603 29.0848 56.0981 29.0414H56.0544C55.3987 29.0414 54.6119 29.215 54.1312 28.9546C53.6503 28.6942 53.4318 27.9128 53.1258 27.392C52.0331 25.4388 50.9404 23.529 49.8039 21.5758C49.7165 21.4022 49.5854 21.2286 49.498 21.055C49.4106 21.0984 49.3669 21.0984 49.3669 21.0984Z" fill="#020202"/>
<path d="M91.9395 23.5732C92.9444 24.0073 93.2944 24.832 93.2944 25.8303C93.2944 26.3946 93.2944 27.0022 93.3379 27.5665C93.3379 28.0005 93.3815 28.3911 93.7315 28.7384C93.9057 28.912 93.9057 29.0856 93.5565 29.0856C92.8573 29.0856 92.1573 29.0856 91.5024 29.0856C91.2395 29.0856 91.1959 28.9554 91.1088 28.7384C90.9338 28.0874 90.9338 27.4363 90.9338 26.7852C90.9338 24.832 90.6281 24.5282 88.6176 24.5282C88.1361 24.5282 87.6555 24.5716 87.2184 24.5282C86.6941 24.4848 86.6063 24.7018 86.6063 25.1792C86.6506 26.3512 86.6063 27.4797 86.6063 28.6516C86.6063 28.9988 86.5192 29.129 86.1692 29.0856C85.6885 29.0422 85.1643 29.0422 84.6836 29.0856C84.3336 29.129 84.29 28.9554 84.29 28.6516C84.29 25.0924 84.29 21.5333 84.29 17.9741C84.29 17.7137 84.29 17.54 84.64 17.54C86.6063 17.5834 88.5297 17.4966 90.4967 17.5834C92.9879 17.6703 94.3871 20.1443 93.2944 22.3579C92.9879 22.9222 92.5508 23.2694 91.9395 23.5732ZM88.3547 19.5367C87.8305 19.5367 87.3934 19.5367 86.9127 19.5367C86.6941 19.5367 86.5627 19.5801 86.6063 19.8405C86.6063 20.6652 86.6063 21.4899 86.6063 22.3145C86.6063 22.4881 86.6063 22.6618 86.8691 22.6184C87.9619 22.575 89.0539 22.7052 90.1467 22.5316C90.8903 22.4013 91.2395 21.9673 91.2395 21.1426C91.2395 20.2745 90.8903 19.7537 90.1467 19.5801C89.5354 19.4498 88.9233 19.5801 88.3547 19.5367Z" fill="#020202"/>
<path d="M115.324 7.51363C115.324 5.73405 115.324 3.95446 115.324 2.21828C115.324 2.00126 115.237 1.74083 115.63 1.74083C117.291 1.74083 118.995 1.69743 120.657 1.78424C122.886 1.91445 124.197 3.04297 124.721 5.25659C125.159 7.03618 125.071 8.81572 124.372 10.5085C123.629 12.2881 122.274 13.2864 120.263 13.2864C118.733 13.2864 117.248 13.2864 115.718 13.2864C115.368 13.2864 115.281 13.1562 115.281 12.809C115.368 11.0728 115.368 9.29319 115.324 7.51363ZM117.641 7.51363C117.641 8.59877 117.641 9.64044 117.641 10.7255C117.641 11.1596 117.728 11.3332 118.209 11.2898C118.733 11.2464 119.258 11.2898 119.783 11.2898C121.007 11.2898 121.793 10.7689 122.187 9.64044C122.711 8.25151 122.711 6.81915 122.318 5.38681C122.012 4.3451 121.356 3.86765 120.22 3.82424C119.477 3.78084 118.778 3.82424 118.034 3.82424C117.685 3.82424 117.641 3.95446 117.641 4.25829C117.685 5.3 117.641 6.42851 117.641 7.51363Z" fill="#020202"/>
<path d="M102.998 20.9685C102.867 20.9685 102.735 20.9685 102.605 20.9685C102.123 21.0119 101.774 20.9685 101.731 20.3608C101.686 20.0136 101.381 19.7098 101.075 19.5362C100.201 19.1021 99.2829 19.0587 98.4086 19.4493C97.8836 19.6664 97.578 20.1004 97.578 20.6647C97.578 21.2289 97.9715 21.5328 98.4958 21.7063C99.5885 22.0102 100.681 22.2706 101.774 22.5745C101.949 22.6179 102.123 22.6613 102.298 22.7047C103.566 23.1387 104.44 23.92 104.571 25.3089C104.702 26.7413 104.134 27.9132 102.91 28.6511C101.818 29.3456 100.638 29.4324 99.37 29.3456C98.4086 29.3022 97.4901 29.0417 96.7038 28.5208C95.786 27.8698 95.3053 26.9583 95.2174 25.8732C95.1739 25.6128 95.2174 25.4825 95.5239 25.526C95.8295 25.526 96.0916 25.5694 96.3981 25.526C97.0973 25.4391 97.6215 25.4825 97.7086 26.3507C97.7086 26.5676 97.9272 26.7413 98.0586 26.8715C98.8457 27.566 101.031 27.6094 101.818 26.9149C102.517 26.3073 102.386 25.3089 101.556 24.9183C100.638 24.4843 99.6756 24.3975 98.7143 24.137C98.3208 24.0068 97.9272 23.92 97.4901 23.7898C96.2231 23.3991 95.4795 22.5745 95.3489 21.2723C95.2174 19.7966 95.6981 18.5378 97.0094 17.8868C98.8893 16.9318 100.812 16.9753 102.605 18.1038C103.523 18.668 103.96 19.5796 104.09 20.6212C104.134 20.9685 104.003 21.0553 103.697 21.0119C103.523 20.9685 103.26 20.9685 102.998 20.9685Z" fill="#020202"/>
<path d="M73.7112 23.3128C73.7112 21.5333 73.7112 19.7537 73.7112 18.0175C73.7112 17.6702 73.7986 17.5835 74.1483 17.5835C76.6397 17.5835 79.1314 17.5835 81.6226 17.5835C81.9718 17.5835 82.1033 17.6702 82.1033 18.0175C82.0597 18.4081 82.0597 18.7988 82.1033 19.1461C82.1468 19.5366 81.9718 19.6234 81.6226 19.6234C79.9177 19.6234 78.2569 19.6234 76.5523 19.6234C76.2026 19.6234 76.0278 19.7103 76.0715 20.1009C76.1152 20.6218 76.1152 21.0992 76.0715 21.6201C76.0715 21.9673 76.1589 22.0975 76.5086 22.0975C78.0384 22.0975 79.5685 22.0975 81.0984 22.0975C81.4912 22.0975 81.6662 22.1409 81.6226 22.5749C81.5347 23.0524 81.8412 23.7469 81.4912 24.0073C81.1855 24.2677 80.5734 24.0942 80.0492 24.0942C78.8685 24.0942 77.6887 24.0942 76.5086 24.0942C76.1589 24.0942 76.0277 24.1809 76.0277 24.5281C76.0715 25.1792 76.0715 25.8303 76.0277 26.4814C75.984 27.0022 76.2026 27.0456 76.6397 27.0456C78.3878 27.0022 80.1363 27.0456 81.8847 27.0456C82.2783 27.0456 82.409 27.1325 82.3654 27.523C82.3218 27.9571 82.3654 28.3912 82.3654 28.8252C82.3654 29.0856 82.2783 29.129 82.0597 29.129C79.3935 29.129 76.7271 29.129 74.0172 29.129C73.6675 29.129 73.7112 28.9555 73.7112 28.7384C73.7112 26.872 73.7112 25.0924 73.7112 23.3128Z" fill="#020202"/>
<path d="M44.8656 21.9241C44.8219 23.096 44.953 24.5718 44.7782 26.0041C44.5159 27.9139 43.2921 29.0858 41.3688 29.3029C40.5384 29.3897 39.7516 29.3897 38.9649 29.2595C36.8668 28.8688 35.7741 27.6101 35.7304 25.3096C35.643 22.8356 35.6867 20.3615 35.6867 17.8875C35.6867 17.5837 35.8178 17.5402 36.08 17.5402C36.6046 17.5402 37.1728 17.5837 37.6973 17.5402C38.047 17.5402 38.0907 17.6705 38.0907 17.9743C38.0907 20.1445 38.0907 22.3581 38.0907 24.5284C38.0907 24.919 38.1344 25.2662 38.1781 25.6569C38.3092 26.742 38.9649 27.3062 40.1013 27.3062C41.4126 27.3497 42.1119 26.8722 42.3304 25.7437C42.4178 25.353 42.4178 25.0058 42.4178 24.6152C42.4178 22.445 42.4178 20.2313 42.4178 18.0611C42.4178 17.6705 42.4615 17.4968 42.8987 17.5402C43.5106 17.6271 44.341 17.2798 44.7344 17.6705C45.0841 18.0177 44.8219 18.8424 44.8219 19.4501C44.8656 20.1879 44.8656 20.9258 44.8656 21.9241Z" fill="#020202"/>
<path d="M112.571 13.2854C111.303 13.2854 111.303 13.2854 110.953 12.1135C110.604 10.9416 110.604 10.9416 109.336 10.9416C108.462 10.9416 107.631 10.9416 106.757 10.9416C106.451 10.9416 106.32 11.0284 106.232 11.3322C106.057 11.853 105.882 12.3739 105.708 12.9382C105.62 13.1985 105.49 13.3722 105.183 13.3288C104.659 13.2854 104.09 13.2854 103.566 13.3288C103.173 13.3722 103.129 13.2419 103.261 12.8948C104.44 9.63944 105.577 6.38408 106.713 3.12874C107.194 1.7832 107.194 1.7832 108.637 1.7832C109.86 1.7832 109.86 1.7832 110.297 2.95512C111.478 6.25386 112.614 9.55263 113.794 12.8514C113.969 13.2854 113.838 13.3722 113.445 13.3288C113.095 13.2854 112.833 13.2854 112.571 13.2854ZM108.505 4.56109C108.462 4.56109 108.418 4.56109 108.374 4.56109C107.937 5.90663 107.5 7.25217 107.063 8.59768C106.975 8.90153 107.107 8.90153 107.325 8.90153C108.068 8.90153 108.767 8.90153 109.511 8.90153C109.773 8.90153 109.86 8.85812 109.773 8.55428C109.336 7.25217 108.942 5.90663 108.505 4.56109Z" fill="#020202"/>
<path d="M81.6669 13.2863C80.4434 13.2863 80.4434 13.2863 80.0499 12.071C79.6999 10.899 79.6999 10.899 78.4329 10.899C77.6459 10.899 76.8592 10.9424 76.0724 10.899C75.5479 10.8556 75.3731 11.0726 75.242 11.5067C75.1108 11.9841 74.936 12.4615 74.7612 12.939C74.6737 13.1994 74.5426 13.2863 74.2803 13.2863C73.7122 13.2863 73.1439 13.2429 72.5757 13.2863C72.1386 13.3297 72.1386 13.156 72.2697 12.8088C73.2751 10.0309 74.2366 7.20962 75.242 4.43174C75.5042 3.65046 75.8101 2.91259 76.0287 2.13131C76.1161 1.82748 76.2473 1.69727 76.5969 1.69727C77.2088 1.74066 77.8208 1.74066 78.4329 1.69727C78.7385 1.69727 78.87 1.78407 79.0007 2.0879C80.2684 5.64706 81.4927 9.24961 82.7597 12.8088C82.8911 13.156 82.8032 13.2863 82.4104 13.2429C82.2354 13.2863 81.9298 13.2863 81.6669 13.2863ZM77.5585 4.38834C77.0778 5.90749 76.5969 7.29643 76.1598 8.6854C76.0724 8.90236 76.2473 8.90236 76.3784 8.90236C77.1215 8.90236 77.9082 8.90236 78.6514 8.90236C78.87 8.90236 78.9571 8.81562 78.87 8.59859C78.4764 7.29643 78.0393 5.90749 77.5585 4.38834Z" fill="#020202"/>
<path d="M52.9075 1.73975C54.2624 1.73975 54.2624 1.73975 54.6995 3.04188C55.8359 6.29721 56.9724 9.50913 58.1088 12.7645C58.2837 13.2853 58.1526 13.3287 57.7154 13.3287C57.191 13.2853 56.6227 13.2853 56.0982 13.3287C55.7923 13.3287 55.7049 13.2419 55.6175 12.9815C55.4426 12.4172 55.2678 11.853 55.0929 11.2887C55.0492 11.0717 54.9181 10.9849 54.6558 10.9849C53.4757 10.9849 52.2956 10.9849 51.1154 10.9849C50.8532 10.9849 50.7221 11.0717 50.6783 11.3321C50.5035 11.8964 50.2849 12.4172 50.1538 12.9815C50.0664 13.3287 49.8915 13.3722 49.5419 13.3722C49.0174 13.3287 48.5366 13.3287 48.012 13.3722C47.5313 13.4156 47.5313 13.2419 47.6624 12.8513C48.624 10.1602 49.5419 7.51254 50.5035 4.82146C50.8095 3.99678 51.1154 3.17209 51.3776 2.30401C51.5088 1.91336 51.6836 1.73975 52.1207 1.78315C52.3393 1.78315 52.6452 1.73975 52.9075 1.73975ZM52.9075 4.56104C52.8637 4.56104 52.82 4.56104 52.82 4.56104C52.383 5.90658 51.9459 7.25211 51.5088 8.59767C51.4214 8.90152 51.5525 8.90152 51.771 8.90152C52.5141 8.90152 53.2134 8.90152 53.9565 8.90152C54.2624 8.90152 54.3061 8.8147 54.2187 8.55427C53.7817 7.25211 53.3446 5.90658 52.9075 4.56104Z" fill="#020202"/>
<path d="M67.2875 26.0903C67.5935 25.0052 67.9431 23.8767 68.249 22.7915C68.7299 21.1856 69.2107 19.5796 69.6478 17.9302C69.7351 17.5831 69.8663 17.4963 70.216 17.5397C70.7405 17.5397 71.265 17.5831 71.7895 17.5397C72.1829 17.4963 72.2266 17.6265 72.0955 17.9736C71.1776 20.6648 70.2597 23.3992 69.3418 26.0903C69.0358 26.9584 68.7299 27.8265 68.4676 28.6946C68.3802 28.955 68.249 29.0852 67.9869 29.0418C67.3749 28.9984 66.6318 29.2154 66.1511 28.955C65.714 28.6946 65.714 27.9133 65.4954 27.3491C64.4464 24.2239 63.3973 21.0988 62.3484 18.0171C62.2172 17.5831 62.3046 17.4963 62.7418 17.5397C63.3973 17.5831 64.2279 17.2792 64.7087 17.6699C65.1457 18.0171 65.1457 18.8418 65.3206 19.4928C65.9325 21.7065 66.5881 23.9201 67.2001 26.0903C67.2001 26.0903 67.2438 26.0903 67.2875 26.0903Z" fill="#020202"/>
<path d="M119.607 17.5393C120.394 17.5393 121.224 17.5393 122.054 17.5393C122.317 17.5393 122.361 17.7563 122.448 17.93C123.103 19.2755 123.716 20.621 124.371 22.01C124.458 22.1836 124.502 22.3572 124.677 22.4874C125.333 21.0117 125.988 19.5793 126.644 18.147C126.819 17.7129 127.081 17.4959 127.562 17.5393C128.087 17.5827 128.611 17.5827 129.135 17.5393C129.617 17.4959 129.572 17.6695 129.398 17.9734C128.305 20.0134 127.256 22.01 126.163 24.05C125.901 24.484 125.813 24.918 125.813 25.4389C125.858 26.524 125.813 27.5658 125.813 28.6508C125.813 28.9547 125.77 29.0849 125.42 29.0849C124.895 29.0415 124.328 29.0415 123.803 29.0849C123.497 29.0849 123.453 28.9981 123.453 28.6942C123.453 27.5223 123.453 26.3504 123.453 25.1785C123.453 24.8746 123.366 24.5709 123.235 24.3104C122.054 22.1836 120.874 20.0567 119.694 17.8866C119.651 17.7998 119.563 17.7129 119.607 17.5393Z" fill="#020202"/>
<path d="M113.181 24.2672C113.181 22.8349 113.181 21.4025 113.181 19.9702C113.181 19.6663 113.093 19.5361 112.744 19.5361C111.87 19.5795 110.996 19.5361 110.122 19.5361C109.815 19.5361 109.728 19.4493 109.728 19.1455C109.772 18.7114 109.772 18.2774 109.728 17.8433C109.728 17.5395 109.815 17.4961 110.122 17.4961C112.963 17.4961 115.76 17.4961 118.601 17.4961C118.951 17.4961 119.038 17.5829 119.038 17.9302C118.994 18.3208 118.994 18.7114 119.038 19.0587C119.082 19.4059 118.951 19.5795 118.557 19.5361C117.727 19.4927 116.896 19.5361 116.11 19.5361C115.716 19.5361 115.585 19.6229 115.585 20.0569C115.585 22.8783 115.585 25.6995 115.585 28.5208C115.585 28.9549 115.454 29.0851 115.06 29.0417C114.448 28.9983 113.618 29.3021 113.268 28.9115C112.963 28.5642 113.181 27.783 113.181 27.1753C113.181 26.2204 113.181 25.2655 113.181 24.2672Z" fill="#020202"/>
<path d="M94.169 7.46979C94.169 5.73361 94.169 3.95402 94.169 2.21785C94.169 1.82721 94.2562 1.69699 94.6497 1.7404C95.1304 1.78381 95.611 1.78381 96.0482 1.7404C96.4853 1.69699 96.5732 1.87061 96.5732 2.26125C96.5732 5.03914 96.5732 7.81702 96.5288 10.5949C96.5288 11.1157 96.7038 11.2025 97.1409 11.2025C98.6708 11.1591 100.201 11.2025 101.731 11.2025C102.08 11.2025 102.211 11.2894 102.211 11.6366C102.168 12.1575 102.43 12.8085 102.124 13.1558C101.818 13.503 101.118 13.2426 100.594 13.286C98.6273 13.286 96.6167 13.286 94.6497 13.286C94.2562 13.286 94.1255 13.1992 94.1255 12.7651C94.169 11.0289 94.169 9.2494 94.169 7.46979Z" fill="#020202"/>
<path d="M84.4653 7.46983C84.4653 5.73365 84.4653 3.95407 84.4653 2.21789C84.4653 1.87066 84.5524 1.74044 84.9024 1.74044C85.3831 1.78385 85.9073 1.78385 86.388 1.74044C86.7816 1.69704 86.8687 1.87066 86.8687 2.21789C86.8687 5.03918 86.8687 7.86047 86.8687 10.6818C86.8687 11.1158 87.0001 11.2026 87.4372 11.2026C88.9671 11.1592 90.497 11.2026 92.0269 11.2026C92.4197 11.2026 92.6382 11.246 92.5947 11.7234C92.5511 12.1141 92.5511 12.5048 92.5947 12.8953C92.5947 13.1558 92.5076 13.286 92.2454 13.286C89.7978 13.286 87.3501 13.286 84.946 13.286C84.5524 13.286 84.5524 13.1124 84.5524 12.8086C84.4653 11.029 84.4653 9.24943 84.4653 7.46983Z" fill="#020202"/>
<path d="M129.004 7.51254C129.004 9.24869 129.004 10.9849 129.004 12.7211C129.004 13.1985 128.874 13.3287 128.392 13.2853C127.911 13.2419 127.431 13.2419 126.994 13.2853C126.688 13.2853 126.6 13.1985 126.6 12.8947C126.6 9.2921 126.6 5.68955 126.6 2.13039C126.6 1.82656 126.732 1.73975 127.037 1.73975C127.562 1.78315 128.043 1.78315 128.567 1.73975C128.917 1.73975 129.004 1.82656 129.004 2.21719C129.004 3.99678 129.004 5.73296 129.004 7.51254Z" fill="#020202"/>
<path d="M58.4585 23.2695C58.4585 21.5333 58.4585 19.7537 58.4585 18.0175C58.4585 17.6703 58.5459 17.54 58.8956 17.54C59.4201 17.5834 59.9009 17.5834 60.4254 17.54C60.775 17.54 60.8624 17.6703 60.8624 17.9741C60.8624 21.5333 60.8624 25.0924 60.8624 28.6516C60.8624 28.9554 60.8187 29.0856 60.4691 29.0856C59.9446 29.0422 59.4638 29.0422 58.9392 29.0856C58.5896 29.129 58.5022 28.9988 58.5022 28.6516C58.4585 26.8286 58.4585 25.049 58.4585 23.2695Z" fill="#020202"/>
<path d="M108.461 23.3136C108.461 25.0932 108.461 26.8728 108.461 28.6089C108.461 28.9562 108.418 29.0864 108.024 29.0864C107.543 29.043 107.063 29.043 106.538 29.0864C106.145 29.1298 106.057 28.9562 106.057 28.6089C106.057 25.0932 106.057 21.5774 106.057 18.0616C106.057 17.6276 106.189 17.5408 106.582 17.5842C107.019 17.6276 107.456 17.6276 107.893 17.5842C108.286 17.5408 108.461 17.671 108.461 18.105C108.461 19.7978 108.461 21.5774 108.461 23.3136Z" fill="#020202"/>
</svg>
