<svg width="101" height="67" viewBox="0 0 101 67" fill="none" xmlns="http://www.w3.org/2000/svg">
<path fill-rule="evenodd" clip-rule="evenodd" d="M77.4786 19.9355C77.4786 22.0821 79.2191 23.8229 81.3634 23.8229C83.5094 23.8229 85.249 22.0821 85.249 19.9355V4.38742C85.249 3.33835 84.8336 2.38784 84.1597 1.68874C83.2525 4.72097 80.6656 7.02696 77.4786 7.52398V19.9355ZM56.6671 13.9064C56.5694 13.6821 55.535 13.3633 55.3675 13.3157C54.4029 13.0422 53.3635 13.0133 52.3784 13.2253C52.1632 13.2713 51.4416 13.4619 51.307 13.5638C51.3464 13.6648 51.738 14.1405 51.8291 14.2556L52.1066 14.594C52.3324 14.8634 52.875 15.5429 53.0729 15.7408L53.4948 16.2148C53.5613 16.1886 53.6328 16.1179 53.696 16.0686C53.7625 16.0184 53.8265 15.9676 53.8938 15.9166C53.9686 15.8607 54.0187 15.8131 54.0884 15.7621C54.1582 15.7096 54.2099 15.6685 54.2748 15.6168L54.6565 15.3169C55.0612 15.0121 55.4003 14.7418 55.8346 14.4321C55.9783 14.3295 56.5299 13.9483 56.6671 13.9064ZM55.8026 19.5371C55.7534 19.4031 55.4389 19.1148 55.3396 19.0006L54.8576 18.4929L54.2591 19.054C54.2149 19.0951 54.1779 19.1206 54.1319 19.16C54.086 19.1994 54.0646 19.2372 54.0179 19.2783C53.9661 19.3235 53.9185 19.3456 53.8882 19.404C54.0072 19.6159 54.6984 20.2945 54.8264 20.3799L55.6187 19.7046C55.6508 19.6759 55.6475 19.6726 55.6787 19.6479C55.7287 19.6077 55.7559 19.5806 55.8026 19.5371ZM54.4053 20.7742C54.3782 20.6839 54.0466 20.3512 53.9686 20.2633C53.8808 20.1655 53.5901 19.8237 53.4957 19.7835C53.3627 19.864 53.0401 20.2082 52.9259 20.3322C52.8792 20.3832 52.8455 20.4201 52.7987 20.4719L52.5188 20.7561C52.4662 20.8128 52.4292 20.8186 52.371 20.8884C52.4366 21.0584 52.8643 21.4536 53.0326 21.6212C53.1221 21.7091 53.1386 21.7494 53.2798 21.8405C53.343 21.8176 53.3651 21.7658 53.4161 21.7099C53.6336 21.4767 54.2288 20.9936 54.4053 20.7742ZM54.5408 18.1396C54.5243 18.0944 54.4472 18.0115 54.4152 17.9778C54.3758 17.9351 54.3791 17.9376 54.3471 17.8965C54.32 17.8603 54.3043 17.8521 54.2764 17.8176L53.4661 16.8737C53.3126 17.0027 52.7109 17.5399 52.6238 17.6418C52.5622 17.7133 52.4827 17.7494 52.449 17.8521L53.1066 18.6095C53.1558 18.6687 53.4776 18.994 53.5491 19.0195L54.5408 18.1396ZM53.1427 19.3538C52.9284 19.0663 52.7297 18.8749 52.5155 18.6037C52.4399 18.5085 52.1969 18.2079 52.1189 18.1602C52.0467 18.1955 51.8759 18.3606 51.8144 18.4297L51.2232 19.0195C51.1156 19.1345 51.0295 19.1986 50.9334 19.3365C50.9737 19.413 51.1149 19.5806 51.1732 19.6372C51.2593 19.7211 51.3473 19.8484 51.4293 19.9306C51.5369 20.0382 51.8882 20.4399 51.9695 20.4736L52.5754 19.9289C52.6427 19.8516 53.0991 19.4524 53.1427 19.3538ZM52.8668 22.2571C52.8257 22.1593 52.7305 22.0846 52.669 22.004L52.3414 21.6327C52.2905 21.5695 52.0311 21.3091 51.9827 21.2869C51.953 21.3386 51.8849 21.4134 51.839 21.4577C51.6633 21.6294 51.3998 21.9383 51.2881 22.0378L51.1338 22.2161C51.1026 22.2489 51.078 22.2629 51.0476 22.2966L50.4368 22.9833C50.4015 23.0186 50.3932 23.0178 50.362 23.0581C50.3308 23.0975 50.3218 23.1156 50.2857 23.1493C50.1363 23.2922 49.6149 23.9371 49.5657 24.0587C49.5821 24.085 49.5657 24.0636 49.5878 24.0858C49.6897 24.1844 50.3899 24.7208 50.4959 24.7168C50.55 24.7143 50.6642 24.5664 50.6962 24.5294L51.0739 24.1088C51.165 24.0209 51.1961 23.9659 51.2717 23.8903L52.8668 22.2571ZM58.9608 22.6408L57.5422 21.2712C57.2475 21.0043 56.6383 20.3364 56.4996 20.2189C56.374 20.1145 56.2501 19.9265 56.1491 19.8615C56.0973 19.8846 56.0776 19.9158 56.03 19.9511C55.8716 20.0718 55.3239 20.5976 55.2041 20.7554C55.2518 20.8679 55.6204 21.2031 55.7427 21.3132C55.8125 21.3748 55.8559 21.4364 55.9257 21.4972C56.1605 21.701 56.672 22.2161 56.874 22.3779C57.0274 22.5011 57.3748 22.8519 57.548 22.985L58.2549 23.5756C58.4018 23.4984 58.9166 22.8149 58.9608 22.6408ZM51.61 20.8786C51.5877 20.798 51.3333 20.4917 51.2569 20.4046C51.1272 20.2592 50.7028 19.7203 50.587 19.666C50.5443 19.7416 50.3645 19.8912 50.2898 19.9824L49.5411 20.8145C49.3169 21.038 49.0912 21.3116 48.877 21.5481C48.8465 21.5818 48.8219 21.5949 48.7932 21.6294C48.7463 21.682 48.7004 21.7452 48.6503 21.8036C48.482 22.0058 48.4147 22.1158 48.2103 22.3073C48.2497 22.5118 48.478 22.8182 48.5773 22.9505C48.6725 23.077 48.9565 23.4262 49.0108 23.5271C49.1126 23.4861 49.372 23.2174 49.4335 23.1427L49.5862 22.9619C49.7159 22.7943 49.9048 22.6078 50.0583 22.4518C50.0878 22.4214 50.1076 22.3959 50.1355 22.363C50.1863 22.304 50.2389 22.2407 50.2931 22.1881C50.3612 22.1232 50.3932 22.0977 50.4531 22.032L51.2676 21.1998C51.3743 21.0947 51.4851 20.9468 51.61 20.8786ZM53.1788 16.5204C53.1312 16.4144 51.5499 14.2325 51.2725 13.8324C51.224 13.7626 51.1806 13.7108 51.1428 13.6501C50.8062 13.7009 49.6971 14.4715 49.702 14.5652L49.9835 14.9283C50.4746 15.5116 50.9531 16.1417 51.4646 16.7423L52.0852 17.4487C52.2175 17.3937 52.9546 16.6765 53.1788 16.5204ZM57.7524 24.0924C57.7171 24.0102 57.6375 23.9659 57.5808 23.9017L57.0004 23.3686C56.9347 23.3037 56.8863 23.2585 56.8223 23.1813L56.539 22.9159C56.374 22.7772 56.3321 22.7147 56.2476 22.6408C55.9742 22.4033 55.5029 21.8529 55.2493 21.6106C55.1533 21.5186 55.0695 21.4602 54.9603 21.3337C54.8905 21.2516 54.8511 21.1998 54.751 21.1538C54.6065 21.3164 53.7534 22.129 53.6902 22.2571C53.7994 22.4386 54.2034 22.7976 54.384 22.9652C54.4283 23.0055 54.4522 23.0449 54.4956 23.0851L55.1097 23.652C55.1606 23.6939 55.1795 23.7267 55.2262 23.7686L56.4816 24.8588C56.5489 24.9081 56.557 24.9155 56.6392 24.8703C56.9553 24.6954 57.213 24.522 57.4881 24.306L57.7524 24.0924ZM59.3508 16.8005C59.3335 16.5656 58.7105 15.5889 58.4872 15.3884C58.3879 15.4245 58.1547 15.6234 58.0676 15.6948L57.0586 16.5483C56.8165 16.7611 56.2492 17.2048 56.0407 17.4101L55.6417 17.7593C55.5415 17.8562 55.3174 18.0443 55.264 18.1355C55.3486 18.2884 55.4841 18.3951 55.6039 18.5158L55.9635 18.8897C56.0349 18.962 56.1548 19.054 56.1925 19.1427C56.3608 19.1 57.5193 18.129 57.7524 17.9474C57.8813 17.8464 58.0168 17.7601 58.1498 17.6631L58.9436 17.0939C59.0068 17.0495 59.0799 16.9953 59.1481 16.9484C59.2228 16.8967 59.2827 16.8581 59.3508 16.8005ZM51.7692 17.7363C51.7405 17.6435 51.7002 17.6065 51.6411 17.5317L50.9293 16.5968C50.5369 16.0694 49.8966 15.1756 49.6372 14.6145C49.3489 14.7131 48.2637 16.0751 48.3195 16.2189C48.3531 16.306 49.1166 17.2376 49.1839 17.3181C49.3342 17.498 50.4294 18.8346 50.5435 18.8889L50.8669 18.6112C50.9186 18.5529 50.9729 18.5257 51.027 18.4716L51.7692 17.7363ZM55.8461 25.2096L55.5333 24.8949C55.4224 24.7874 55.3216 24.6929 55.2091 24.587L54.4939 23.8714C54.4661 23.8402 54.4406 23.8196 54.4094 23.79C54.1902 23.5781 53.9611 23.3883 53.7658 23.1534C53.7395 23.1222 53.7239 23.1008 53.6968 23.0712C53.6664 23.0376 53.6435 23.0252 53.6098 22.9924C53.5408 22.9241 53.3627 22.7023 53.2576 22.686C53.178 22.7886 53.0884 22.8814 52.9883 22.9644C52.8833 23.0515 52.8216 23.1649 52.715 23.2568C52.6082 23.3497 52.0459 24.0135 51.9129 24.1524C51.8562 24.2115 51.825 24.255 51.7791 24.3002C51.7174 24.3618 51.7068 24.3864 51.6461 24.4506C51.5459 24.5532 51.1715 25.0166 51.1478 25.0765C51.2775 25.1735 51.9867 25.3821 52.1953 25.4356C53.0294 25.6475 53.8905 25.6845 54.7436 25.5309C54.9619 25.4923 55.7369 25.3345 55.8461 25.2096ZM55.8937 14.7755C55.3978 15.1863 54.8659 15.6611 54.3774 16.053L53.8159 16.5336C53.8504 16.6313 54.0063 16.7972 54.0679 16.8754L54.925 17.7962C55.0612 17.7428 55.2394 17.5572 55.3536 17.4693L55.7838 17.1513C55.929 17.0479 56.0694 16.9386 56.2156 16.8343L58.2663 15.3276C58.3164 15.2882 58.3205 15.2808 58.3763 15.2561C58.3065 15.1205 57.924 14.7698 57.7671 14.6227C57.7343 14.5924 57.7097 14.5817 57.6744 14.548C57.5422 14.4248 57.0652 14.0263 56.8452 13.9778L55.8937 14.7755ZM50.2389 19.2036C50.1904 19.1008 50.0731 18.9636 49.9975 18.8519C49.5986 18.262 49.1421 17.6542 48.7415 17.0626C48.6561 16.9377 48.5724 16.8236 48.4869 16.702C48.4475 16.6469 48.4016 16.5788 48.3638 16.5246C48.3409 16.4909 48.3236 16.4711 48.3014 16.4383C48.2949 16.4284 48.2678 16.3882 48.2678 16.3882L48.2127 16.3413C48.1102 16.5665 48.0396 16.6502 47.9114 16.9739C47.8253 17.1891 47.7399 17.4381 47.6784 17.6705C47.5363 18.1988 47.4476 18.7434 47.4492 19.3202C47.45 19.8254 47.62 21.3378 47.8901 21.6261L48.18 21.3304C48.299 21.2301 48.3704 21.13 48.4697 21.0207L49.0542 20.4079C49.1552 20.2961 49.2349 20.2189 49.3481 20.1031C49.3834 20.067 49.3892 20.066 49.4278 20.0332C49.4614 20.0045 49.4631 19.993 49.5009 19.956L50.0961 19.3547C50.1322 19.3169 50.22 19.2364 50.2389 19.2036ZM59.4329 17.0191C59.3147 17.0741 58.5266 17.7551 58.3402 17.9047C58.3008 17.9359 58.291 17.9515 58.2516 17.9819L56.5784 19.4705C56.6253 19.56 57.2401 20.1572 57.3904 20.2903L58.5027 21.3238C58.5348 21.3535 58.5628 21.3674 58.5948 21.3978L58.85 21.6253C58.9288 21.6861 59.2129 21.9728 59.3164 21.9909C59.6423 21.5481 59.8911 20.2288 59.9058 19.5707C59.9165 19.0909 59.8845 18.6243 59.7982 18.1709C59.7432 17.8841 59.5881 17.1793 59.4329 17.0191ZM62.6003 2.55051C63.2562 1.32973 64.5434 0.5 66.0245 0.5C68.1713 0.5 69.9102 2.23998 69.9102 4.38742V11.4747C68.3372 7.86655 65.7905 4.78011 62.6003 2.55051ZM50.4852 0.5C61.2136 0.5 69.9102 9.20235 69.9102 19.9355C69.9102 20.0784 69.9077 20.2197 69.9044 20.3619L69.9102 20.3675C69.9102 26.5692 74.9352 31.597 81.1335 31.597C87.3327 31.597 92.3578 26.5692 92.3578 20.3675V5.03642V4.38742C92.3578 2.23998 94.0974 0.5 96.2427 0.5C98.3886 0.5 100.127 2.23998 100.127 4.38742V20.3668C100.127 30.8617 91.6239 39.3718 81.1335 39.3718C74.9065 39.3718 69.3797 36.3733 65.9161 31.7407C62.3655 36.379 56.7746 39.3718 50.4852 39.3718H36.5189C39.3833 37.6359 41.5555 34.8747 42.5292 31.597H50.4852C56.8731 31.597 62.0609 26.4542 62.138 20.0809C62.1371 19.9001 62.1347 19.7038 62.1307 19.4968C61.8999 13.2599 56.7746 8.27402 50.4852 8.27402H34.9435H25.4473C23.3014 8.27402 21.5617 6.53405 21.5617 4.38742C21.5617 2.23998 23.3014 0.5 25.4473 0.5H50.4852ZM12.4604 23.8229C6.03968 23.8032 0.841309 18.5899 0.841309 12.1614C0.841309 5.72074 6.05938 0.5 12.4965 0.5H12.5155H21.3179C20.2867 1.47514 19.6431 2.85529 19.6431 4.38742C19.6431 5.91873 20.2867 7.29971 21.3187 8.27402H12.4965C10.3506 8.27402 8.61094 10.0148 8.61094 12.1614C8.61094 14.3081 10.3506 16.0489 12.4965 16.0489H29.4389H29.4767C35.913 16.0489 41.132 21.2697 41.132 27.7103C41.132 34.1502 35.913 39.3718 29.4767 39.3718L29.4577 39.3709H4.72612C2.58094 39.3709 0.841309 37.6309 0.841309 35.4835C0.841309 33.3426 2.57027 31.6076 4.70806 31.597H29.4767C31.6218 31.597 33.3614 29.8569 33.3614 27.7103C33.3614 25.5629 31.6218 23.8229 29.4767 23.8229H12.4604Z" fill="#020202"/>
<path fill-rule="evenodd" clip-rule="evenodd" d="M2.83286 54.7116C2.5956 54.7773 2.34684 54.8061 2.09809 54.8061C1.89367 54.8061 1.69007 54.7913 1.4914 54.7535C1.29026 54.7157 1.09569 54.6557 0.913435 54.5662C0.824771 54.5218 0.776333 54.484 0.745136 54.4027C0.721329 54.3402 0.718044 54.2639 0.718044 54.1357C0.718044 53.794 0.740211 53.504 0.753346 53.3331L0.761556 53.2287C0.766481 53.168 0.776333 53.1212 0.793573 53.085C0.827233 53.016 0.876491 52.9823 0.949557 52.9823C1.02344 52.9823 1.07106 53.0077 1.1039 53.0653C1.12524 53.1022 1.13017 53.1433 1.13017 53.1967C1.13017 53.2353 1.13099 53.2855 1.13345 53.3306C1.13592 53.3791 1.14166 53.4317 1.15316 53.4851V53.4867C1.20488 53.7397 1.33623 53.9213 1.51192 54.042C1.72291 54.1875 2.00122 54.25 2.28445 54.25C2.6235 54.25 2.88047 54.1398 3.05862 53.9747C3.26715 53.7801 3.36977 53.5089 3.36977 53.2485C3.36977 52.9815 3.31476 52.7712 3.17684 52.5609C3.03235 52.3391 2.79755 52.1123 2.44371 51.8199L2.06361 51.5077C1.60305 51.1298 1.31899 50.8029 1.14905 50.4948C0.975008 50.1793 0.920823 49.886 0.920823 49.5796C0.920823 49.0874 1.108 48.6726 1.44214 48.3818C1.76724 48.0993 2.22944 47.9365 2.79098 47.9365C2.95929 47.9365 3.10788 47.9456 3.24169 47.9612C3.37305 47.976 3.49128 47.9974 3.60129 48.0236C3.67927 48.0401 3.73428 48.0516 3.77532 48.0556C3.81309 48.0614 3.84182 48.063 3.8722 48.063C3.93295 48.063 3.97729 48.0754 4.01258 48.1016C4.06185 48.1387 4.07827 48.1846 4.07827 48.2446L4.07416 48.3137C4.06513 48.427 4.04461 48.6916 4.04461 49.1409C4.04461 49.2189 4.03885 49.2797 4.02572 49.3224C3.99781 49.4145 3.94526 49.4572 3.86399 49.4572C3.78436 49.4572 3.73674 49.4227 3.70554 49.3594C3.68749 49.3225 3.68092 49.2855 3.67516 49.2395L3.67435 49.2354C3.67107 49.1844 3.65465 49.099 3.63412 49.0177C3.61688 48.9528 3.59718 48.8928 3.57994 48.8608C3.55941 48.823 3.50194 48.7318 3.36649 48.6472C3.22199 48.5568 2.99212 48.4763 2.6309 48.4763C2.36245 48.4763 2.12519 48.5609 1.96017 48.7162C1.80665 48.8616 1.71388 49.0711 1.71388 49.3348C1.71388 49.5492 1.76231 49.725 1.90106 49.9164C2.05047 50.1217 2.30169 50.3493 2.69658 50.6582L2.93383 50.8448C3.44447 51.2472 3.76219 51.5858 3.95348 51.9135C4.14968 52.2495 4.21372 52.5691 4.21372 52.9264C4.21372 53.1425 4.16447 53.4637 4.00109 53.7833C3.88369 54.0133 3.70554 54.2434 3.44447 54.429C3.25811 54.5579 3.05042 54.6508 2.83286 54.7116ZM1.60551 65.2525C1.44788 64.8319 1.35183 64.2888 1.35183 63.5593V62.1291C1.35183 61.3297 1.35183 60.8566 1.34937 60.6175C1.34773 60.3258 1.3428 60.1797 1.33295 60.0228C1.32392 59.8773 1.30504 59.7738 1.25824 59.7065C1.21473 59.6448 1.13756 59.6037 1.00785 59.5758L1.00456 59.575C0.975008 59.5676 0.929854 59.5618 0.881417 59.5569C0.81656 59.5528 0.746778 59.5496 0.700804 59.5496C0.655651 59.5496 0.608035 59.5356 0.571091 59.5084C0.528401 59.4772 0.500488 59.4304 0.500488 59.3688C0.500488 59.2875 0.534969 59.2333 0.608035 59.1988C0.651547 59.1774 0.708193 59.1691 0.778796 59.1691C1.07352 59.1691 1.46184 59.1831 1.70074 59.1922L1.90434 59.198C1.94292 59.198 2.03077 59.1947 2.14489 59.1897C2.37147 59.1815 2.69083 59.1691 2.87226 59.1691C2.94368 59.1691 2.99951 59.1774 3.04303 59.198C3.11609 59.2333 3.15056 59.2875 3.15056 59.3688C3.15056 59.4304 3.12348 59.4772 3.08078 59.5084C3.04384 59.5356 2.99623 59.5496 2.95107 59.5496C2.89114 59.5496 2.83614 59.5585 2.73023 59.5767L2.72366 59.5775C2.6309 59.5907 2.57261 59.626 2.53731 59.685C2.49379 59.7574 2.47409 59.8699 2.46506 60.022C2.44617 60.3275 2.44617 60.6019 2.44617 62.1291V63.5002C2.44617 64.192 2.52171 64.6832 2.64814 65.048C2.77128 65.4044 2.9445 65.6419 3.14154 65.8301C3.36731 66.042 3.5824 66.1677 3.8057 66.2408C4.02982 66.3147 4.26873 66.3345 4.53554 66.3345C4.81302 66.3345 5.08805 66.2695 5.33434 66.157C5.58719 66.0412 5.81132 65.8744 5.9788 65.6739C6.18979 65.4119 6.32361 65.0816 6.4057 64.6963C6.48863 64.3028 6.51736 63.8502 6.51736 63.354V62.1291C6.51736 61.3297 6.51736 60.8566 6.51571 60.6175C6.51325 60.3258 6.50833 60.1797 6.49848 60.0228C6.49026 59.8773 6.47056 59.7738 6.42377 59.7065C6.38025 59.6448 6.30308 59.6037 6.17337 59.5758L6.17009 59.575C6.14053 59.5676 6.09538 59.5618 6.04694 59.5569C5.98208 59.5528 5.9123 59.5496 5.86633 59.5496C5.82117 59.5496 5.77356 59.5356 5.73744 59.5084C5.69393 59.4772 5.66601 59.4304 5.66601 59.3688C5.66601 59.2875 5.7005 59.2333 5.77356 59.1988C5.8179 59.1774 5.87372 59.1691 5.94431 59.1691C6.26039 59.1691 6.64296 59.1848 6.84738 59.1938L6.9812 59.198L7.14786 59.1914C7.33093 59.1823 7.61007 59.1691 7.80382 59.1691C7.87441 59.1691 7.93024 59.1774 7.97375 59.198C8.04682 59.2333 8.08212 59.2875 8.08212 59.3688C8.08212 59.4304 8.0542 59.4772 8.01151 59.5084C7.97457 59.5356 7.92696 59.5496 7.8818 59.5496C7.82187 59.5496 7.76768 59.5585 7.66096 59.5767H7.6585C7.56327 59.5988 7.50333 59.6349 7.46803 59.6933C7.42452 59.7632 7.40482 59.8707 7.39662 60.022C7.37773 60.3283 7.37773 60.6027 7.37773 62.1291V63.1773C7.37773 63.7138 7.34735 64.2807 7.21682 64.8056C7.08464 65.3404 6.84821 65.8293 6.43608 66.1956C6.06911 66.5218 5.69311 66.7107 5.33434 66.8184C4.97722 66.9251 4.63816 66.9506 4.34015 66.9506C4.16857 66.9506 3.82868 66.9408 3.43955 66.8463C3.04712 66.7493 2.60627 66.5677 2.24094 66.2228C1.98891 65.9812 1.76559 65.6805 1.60551 65.2525ZM15.3058 62.1882C14.86 61.6978 14.4824 61.2763 14.2353 60.9995L14.3534 65.3577C14.3625 65.7463 14.3904 65.9985 14.4463 66.1611C14.4906 66.2893 14.5539 66.3509 14.645 66.3788C14.7139 66.3968 14.7877 66.4092 14.8567 66.4174C14.9593 66.4298 15.0514 66.4331 15.1014 66.4331C15.1522 66.4331 15.1974 66.4461 15.2327 66.4725C15.2771 66.5053 15.3017 66.553 15.3017 66.6137C15.3017 66.6992 15.2615 66.7542 15.1819 66.7871C15.1367 66.806 15.0776 66.8134 15.0037 66.8134C14.6105 66.8134 14.2902 66.7986 14.108 66.7895L13.9676 66.7838C13.9356 66.7838 13.8806 66.7871 13.8059 66.7904C13.622 66.7994 13.3264 66.8134 13.0268 66.8134C12.9644 66.8134 12.9111 66.8101 12.8667 66.7912C12.7895 66.76 12.7494 66.7066 12.7494 66.6137C12.7494 66.5538 12.7731 66.5062 12.8182 66.4725C12.8527 66.4461 12.8979 66.4331 12.9489 66.4331C12.9915 66.4331 13.0662 66.4298 13.1467 66.4182C13.2025 66.41 13.2599 66.3985 13.3117 66.3805L13.3175 66.3788C13.3921 66.3582 13.4381 66.2959 13.4701 66.1562C13.5104 65.9771 13.5218 65.6904 13.5218 65.2525L13.5317 59.6432C13.5317 59.4444 13.5399 59.3129 13.5588 59.2283C13.5924 59.0837 13.6589 59.032 13.7607 59.032C13.8724 59.032 14.0005 59.1733 14.108 59.2925L14.1967 59.386C14.2829 59.4846 14.7394 59.9808 15.3698 60.6627C15.8805 61.2139 16.5569 61.9426 17.3016 62.7419C17.8122 63.2899 18.3459 63.8765 18.7826 64.3571C19.0396 64.6396 19.2637 64.8862 19.4295 65.066L19.3285 60.4097C19.3237 60.1049 19.3064 59.9044 19.2563 59.7771C19.2161 59.6761 19.1496 59.6235 19.0387 59.5938C18.9747 59.5808 18.9024 59.5701 18.8335 59.5627C18.7317 59.5536 18.6365 59.5496 18.5904 59.5496C18.5166 59.5496 18.4682 59.5265 18.4345 59.4888C18.3992 59.4493 18.3911 59.4058 18.3911 59.359C18.3911 59.2645 18.4419 59.2127 18.533 59.1864C18.5807 59.1724 18.6398 59.1691 18.7079 59.1691C18.9944 59.1691 19.3088 59.1823 19.5166 59.1914C19.611 59.1955 19.6824 59.198 19.7235 59.198C19.7636 59.198 19.8228 59.1947 19.8999 59.1905C20.0601 59.1815 20.2956 59.1691 20.5567 59.1691C20.6208 59.1691 20.6757 59.1733 20.7226 59.1873C20.8079 59.2143 20.8556 59.2669 20.8556 59.359C20.8556 59.4223 20.8244 59.4764 20.7685 59.5125C20.7307 59.5356 20.6823 59.5496 20.6257 59.5496C20.6018 59.5496 20.5731 59.5496 20.5452 59.5528C20.5132 59.5552 20.473 59.5618 20.4196 59.575L20.4163 59.5758C20.3005 59.6004 20.2365 59.6497 20.2029 59.7401C20.1593 59.8592 20.1504 60.0482 20.1504 60.3283L20.1306 66.065C20.1306 66.3935 20.1258 66.5727 20.1109 66.6729C20.0847 66.8578 20.0215 66.8824 19.9213 66.8824C19.8507 66.8824 19.7793 66.8479 19.6479 66.7329C19.5412 66.6393 19.3819 66.4816 19.1232 66.2243C19.0585 66.1636 18.5191 65.6157 17.8746 64.9452C17.4486 64.5024 16.9773 64.0063 16.5668 63.5634C16.1234 63.0861 15.6892 62.6105 15.3058 62.1882ZM27.9955 60.022C27.9766 60.3275 27.9766 60.6019 27.9766 62.1291V63.8527C27.9766 64.3365 27.9766 64.7785 27.9823 65.1112C27.9889 65.4677 28.0005 65.7594 28.0251 65.9632V65.9647C28.0381 66.0922 28.0563 66.2014 28.0998 66.2769C28.1366 66.3386 28.1975 66.3821 28.3009 66.3953H28.3026C28.3674 66.4043 28.4544 66.4141 28.5374 66.4215C28.6112 66.429 28.6818 66.4331 28.7262 66.4331C28.7803 66.4331 28.823 66.4486 28.8559 66.4725C28.906 66.5103 28.9257 66.5629 28.9257 66.6137C28.9257 66.6869 28.8912 66.7435 28.8181 66.7806C28.7754 66.8019 28.7188 66.8134 28.6473 66.8134C28.2426 66.8134 27.7738 66.7961 27.5571 66.7879L27.4446 66.7838L27.2845 66.7895C27.0654 66.7986 26.6869 66.8134 26.4857 66.8134C26.4143 66.8134 26.3593 66.8052 26.315 66.7838C26.2419 66.7501 26.2074 66.695 26.2074 66.6137C26.2074 66.5629 26.2263 66.5103 26.2764 66.4725C26.3092 66.4486 26.3519 66.4331 26.4069 66.4331C26.443 66.4331 26.4833 66.4298 26.5227 66.4248C26.576 66.4174 26.6294 66.4067 26.6745 66.3977L26.677 66.3968C26.7288 66.3862 26.7641 66.3476 26.7895 66.2893C26.8256 66.2088 26.8461 66.0938 26.8634 65.9632C26.9118 65.5598 26.9118 64.79 26.9118 63.8527V62.1291C26.9118 61.3297 26.911 60.8566 26.9093 60.6175C26.9069 60.3258 26.902 60.1797 26.8921 60.0228C26.8839 59.8757 26.8601 59.7688 26.8166 59.6974C26.7813 59.6382 26.7279 59.6021 26.654 59.5857L26.6491 59.5841C26.608 59.5725 26.5629 59.5643 26.521 59.5594C26.4669 59.5528 26.4143 59.5496 26.3773 59.5496C26.3331 59.5496 26.2846 59.5356 26.2476 59.5084C26.2057 59.4772 26.1779 59.4304 26.1779 59.3688C26.1779 59.2875 26.2123 59.2333 26.2846 59.1988C26.329 59.1774 26.3848 59.1691 26.4562 59.1691C26.6803 59.1691 27.0727 59.184 27.2928 59.193L27.4446 59.198L27.6031 59.193C27.8231 59.184 28.2016 59.1691 28.4027 59.1691C28.4741 59.1691 28.53 59.1774 28.5734 59.198C28.6465 59.2333 28.681 59.2875 28.681 59.3688C28.681 59.4304 28.6531 59.4772 28.6104 59.5084C28.5742 59.5356 28.5267 59.5496 28.4815 59.5496C28.4208 59.5496 28.3666 59.5585 28.2599 59.5767L28.2566 59.5775C28.163 59.594 28.1031 59.6301 28.0678 59.69C28.0242 59.7607 28.0046 59.8699 27.9955 60.022ZM35.4934 60.4269C36.1141 61.9804 36.6829 63.5996 37.2716 65.1704C37.5483 64.5107 37.9382 63.5273 38.3003 62.5875C38.737 61.453 39.1327 60.385 39.2419 60.0293L39.2428 60.026C39.2657 59.9562 39.287 59.8889 39.3018 59.8272C39.3158 59.7721 39.324 59.7261 39.324 59.6916C39.324 59.6662 39.32 59.6374 39.3068 59.6153C39.2986 59.6013 39.287 59.589 39.2715 59.58C39.1754 59.5503 39.0441 59.5496 38.9472 59.5496C38.9037 59.5496 38.861 59.5446 38.8232 59.5282C38.7583 59.4995 38.7174 59.451 38.7174 59.3688C38.7174 59.2817 38.7567 59.2259 38.8479 59.193C38.8963 59.1765 38.9636 59.1691 39.0547 59.1691C39.3018 59.1691 39.586 59.1815 39.7871 59.1897C39.8881 59.1947 39.966 59.198 40.0137 59.198L40.1531 59.1914C40.3191 59.1831 40.5851 59.1691 40.7771 59.1691C40.8445 59.1691 40.9011 59.1765 40.9438 59.193C41.0235 59.2242 41.0644 59.2785 41.0644 59.359C41.0644 59.432 41.0341 59.4838 40.9725 59.5183C40.9339 59.5397 40.8847 59.5496 40.8255 59.5496C40.7943 59.5496 40.7295 59.5503 40.6557 59.5618C40.5826 59.575 40.498 59.5988 40.4216 59.6481C40.3707 59.6842 40.3141 59.7376 40.241 59.8536C40.1589 59.9841 40.0596 60.1854 39.9307 60.5099C39.8478 60.7218 39.5399 61.4645 39.1754 62.3436L38.7527 63.3614C38.1985 64.6889 37.7888 65.6698 37.5704 66.1364C37.5064 66.2728 37.4523 66.392 37.4095 66.4889C37.2502 66.8446 37.2018 66.9506 37.0492 66.9506C36.8537 66.9506 36.7971 66.8077 36.6066 66.3246L34.1872 60.2659C34.0854 60.0071 34.0025 59.8551 33.909 59.7607C33.8219 59.672 33.7143 59.6276 33.5633 59.5849C33.4319 59.5503 33.2785 59.5496 33.2242 59.5496C33.1643 59.5496 33.1191 59.5315 33.0855 59.5027C33.0412 59.464 33.0239 59.414 33.0239 59.359C33.0239 59.2603 33.0822 59.2086 33.1881 59.184C33.2432 59.1724 33.3145 59.1691 33.3999 59.1691C33.7045 59.1691 34.0641 59.1823 34.3038 59.1914C34.4139 59.1955 34.4959 59.198 34.5444 59.198C34.5837 59.198 34.651 59.1947 34.7414 59.1905C34.9327 59.1815 35.2135 59.1691 35.4548 59.1691C35.5516 59.1691 35.6272 59.1757 35.6813 59.1881C35.7873 59.2152 35.8407 59.2702 35.8407 59.359C35.8407 59.4263 35.8161 59.4764 35.7643 59.5117C35.7265 59.5381 35.6798 59.5496 35.6206 59.5496C35.5615 59.5496 35.4818 59.5528 35.413 59.5618C35.3661 59.5676 35.3251 59.5758 35.2988 59.5882C35.2734 59.5988 35.2594 59.6128 35.252 59.6243C35.2455 59.6374 35.2439 59.6555 35.2439 59.6728C35.2439 59.7771 35.3538 60.0647 35.4934 60.4269ZM46.0346 65.9632C46.0822 65.5598 46.0822 64.79 46.0822 63.8527V62.1291C46.0822 61.3297 46.0822 60.8566 46.0806 60.6175C46.0781 60.3258 46.0732 60.1797 46.0634 60.0228C46.0552 59.8773 46.0354 59.7738 45.9887 59.7065C45.9451 59.6448 45.8679 59.6037 45.739 59.5758L45.7349 59.575C45.7054 59.5676 45.6603 59.5618 45.6118 59.5569C45.5469 59.5528 45.478 59.5496 45.4311 59.5496C45.3861 59.5496 45.3384 59.5356 45.3014 59.5084C45.2588 59.4772 45.2318 59.4304 45.2318 59.3688C45.2318 59.2875 45.2661 59.2333 45.3384 59.1988C45.3828 59.1774 45.4386 59.1691 45.51 59.1691L45.8663 59.1708C45.9903 59.1724 46.1126 59.1749 46.2193 59.1782L46.615 59.1988L47.6765 59.1971C48.1954 59.1963 48.7347 59.1938 48.8497 59.1889C48.935 59.184 49.0155 59.1774 49.0853 59.1691C49.1551 59.161 49.2117 59.1519 49.247 59.1437L49.2823 59.1289C49.3201 59.11 49.3571 59.0903 49.4129 59.0903C49.4818 59.0903 49.527 59.1264 49.5533 59.1848C49.5681 59.2184 49.5746 59.2587 49.5746 59.3006C49.5746 59.3408 49.5648 59.3836 49.5508 59.4427C49.5353 59.515 49.5114 59.6186 49.495 59.773L49.4818 59.9694C49.472 60.1353 49.4589 60.3439 49.4449 60.4261L49.4441 60.431C49.4375 60.4647 49.4269 60.5033 49.4096 60.5362C49.3776 60.5945 49.33 60.6364 49.2569 60.6364C49.1781 60.6364 49.1239 60.6011 49.0886 60.5387C49.0657 60.4967 49.0566 60.4458 49.0566 60.3867C49.0566 60.3497 49.0533 60.2806 49.0418 60.2108C49.0345 60.1657 49.0238 60.1196 49.0073 60.081C48.9827 60.0251 48.9531 59.9759 48.885 59.9372C48.7997 59.8897 48.6576 59.8503 48.4121 59.8231C48.353 59.8157 48.1822 59.8099 47.9819 59.8059C47.6856 59.7993 47.3046 59.7952 47.1478 59.7944V62.4487L47.8252 62.4462C48.1642 62.4437 48.5164 62.4388 48.6297 62.4298C48.7421 62.4199 48.83 62.4109 48.8941 62.3944C48.9449 62.3813 48.9819 62.3624 49.0081 62.3337L49.0238 62.3164C49.105 62.2227 49.1559 62.1645 49.247 62.1645C49.3497 62.1645 49.4178 62.2146 49.4178 62.364C49.4178 62.3952 49.4096 62.4371 49.3981 62.5004C49.3817 62.59 49.3562 62.728 49.3381 62.9243C49.3308 63.0065 49.3218 63.1224 49.3152 63.2341C49.3061 63.3721 49.3005 63.5002 49.3005 63.5397C49.3005 63.5849 49.3005 63.6383 49.2881 63.6891C49.2668 63.7803 49.2175 63.8478 49.1099 63.8478C49.0459 63.8478 48.9975 63.8206 48.963 63.777C48.9327 63.7376 48.9195 63.6883 48.9195 63.6375C48.9195 63.589 48.9195 63.5397 48.9154 63.4978C48.9121 63.4534 48.903 63.4049 48.8867 63.3507L48.885 63.3482C48.871 63.2974 48.848 63.2423 48.7972 63.1987C48.7397 63.1494 48.6436 63.11 48.4819 63.0927C48.3801 63.0812 48.1781 63.0722 47.9582 63.064C47.6519 63.0533 47.3021 63.0467 47.1478 63.0451V63.8527L47.1462 64.284C47.1437 64.7473 47.1404 65.3741 47.1478 65.5212C47.1602 65.8202 47.1947 65.9944 47.3161 66.0831C47.4516 66.1808 47.7077 66.208 48.1609 66.208C48.2865 66.208 48.4565 66.208 48.6207 66.1956C48.7815 66.1824 48.9408 66.1578 49.0533 66.1102C49.1559 66.0666 49.2315 66.0051 49.2865 65.9163C49.3472 65.8177 49.3891 65.6822 49.4211 65.4965C49.4335 65.4283 49.4473 65.379 49.4688 65.3421C49.5064 65.2763 49.5566 65.2484 49.6288 65.2484C49.8094 65.2484 49.8094 65.3914 49.8094 65.5171C49.8094 65.5647 49.7823 65.8153 49.7495 66.0567C49.7265 66.2334 49.6994 66.4067 49.6789 66.4946L49.6772 66.4987C49.5853 66.8438 49.4909 66.8438 49.032 66.8438C48.4433 66.8438 47.9631 66.8298 47.5945 66.8192C47.3638 66.8126 47.1355 66.8027 46.9048 66.7912C46.7883 66.7862 46.6939 66.7838 46.615 66.7838L46.4911 66.7846C46.4246 66.7862 46.3342 66.7887 46.2291 66.7937L46.2243 66.7945C46.1151 66.7945 46.0058 66.7994 45.9065 66.8052C45.8105 66.8093 45.7202 66.8134 45.6562 66.8134C45.5864 66.8134 45.5298 66.8052 45.4862 66.7838C45.4131 66.7501 45.3778 66.695 45.3778 66.6137C45.3778 66.5629 45.3975 66.5103 45.4476 66.4725C45.4805 66.4486 45.5232 66.4331 45.5781 66.4331C45.6143 66.4331 45.6545 66.4298 45.6939 66.4248C45.7473 66.4174 45.8006 66.4067 45.8458 66.3977L45.8482 66.3968C45.8999 66.3862 45.9352 66.3476 45.9608 66.2893C45.9968 66.2088 46.0166 66.0938 46.0346 65.9632ZM55.8058 65.9632C55.8533 65.5598 55.8533 64.79 55.8533 63.8527V62.1291C55.8533 61.3297 55.8533 60.8566 55.8517 60.6175C55.8492 60.3258 55.8444 60.1797 55.8353 60.0228C55.8263 59.8773 55.8074 59.7738 55.7606 59.7065C55.7171 59.6448 55.6391 59.6037 55.5103 59.5758L55.5061 59.575C55.4773 59.5676 55.4314 59.5618 55.3837 59.5569C55.3189 59.5528 55.2491 59.5496 55.2032 59.5496C55.1572 59.5496 55.1095 59.5356 55.0735 59.5084C55.0308 59.4772 55.0029 59.4304 55.0029 59.3688C55.0029 59.2875 55.0374 59.2333 55.1103 59.1988C55.1539 59.1774 55.2098 59.1691 55.2811 59.1691C55.6022 59.1691 56.0406 59.1856 56.2597 59.1938L56.3861 59.198C56.4387 59.198 56.5602 59.1938 56.713 59.1897C56.9904 59.1807 57.3631 59.1691 57.5413 59.1691C57.8557 59.1691 58.1816 59.184 58.4969 59.2473C58.8178 59.3121 59.1274 59.4254 59.4024 59.6227C59.5567 59.7344 59.7801 59.9578 59.9377 60.2676C60.0486 60.4869 60.1281 60.7523 60.1281 61.053C60.1281 61.4333 60.0486 61.8136 59.8539 62.2047C59.6733 62.5678 59.3942 62.9383 58.9861 63.3269L59.2054 63.6078C59.8794 64.4737 60.4517 65.2081 60.9459 65.7372C61.1995 66.0051 61.4244 66.1628 61.615 66.2597C61.8029 66.3533 61.9572 66.3879 62.0706 66.4051C62.243 66.4331 62.376 66.4331 62.4326 66.4331C62.4819 66.4331 62.527 66.4486 62.5615 66.4709C62.6116 66.5045 62.6428 66.5571 62.6428 66.6137C62.6428 66.7016 62.6042 66.7584 62.5073 66.7904C62.4564 66.8077 62.3867 66.8134 62.2857 66.8134H61.5911C61.312 66.8134 61.1068 66.8011 60.936 66.7699C60.7603 66.7379 60.6248 66.6869 60.4869 66.6129C60.0748 66.392 59.7464 65.9582 59.2513 65.3043L59.1274 65.14C58.8852 64.8237 58.634 64.477 58.4263 64.1895C58.2744 63.98 58.1447 63.8009 58.0675 63.7007L58.0469 63.6835C57.7194 63.6456 57.2268 63.667 56.8795 63.6621V63.8527C56.8795 64.3365 56.8795 64.7785 56.8853 65.1112C56.8919 65.4677 56.9042 65.7594 56.928 65.9632V65.9647C56.9412 66.0922 56.96 66.2022 57.0036 66.2769C57.0405 66.3386 57.1013 66.3821 57.2047 66.3953H57.2064C57.2704 66.4043 57.3582 66.4141 57.4412 66.4215C57.5151 66.429 57.5856 66.4331 57.6291 66.4331C57.6841 66.4331 57.7268 66.4486 57.7588 66.4725C57.8098 66.5103 57.8294 66.5629 57.8294 66.6137C57.8294 66.6869 57.7941 66.7435 57.7219 66.7806C57.6791 66.8019 57.6217 66.8134 57.5511 66.8134C57.1463 66.8134 56.6768 66.7961 56.4601 66.7879L56.3475 66.7838L56.3082 66.7854C56.1571 66.792 55.6695 66.8134 55.4281 66.8134C55.3575 66.8134 55.3017 66.8052 55.2573 66.7838C55.1843 66.7501 55.1498 66.695 55.1498 66.6137C55.1498 66.5629 55.1695 66.5103 55.2187 66.4725C55.2524 66.4486 55.2943 66.4331 55.3493 66.4331C55.3854 66.4331 55.4256 66.4298 55.4651 66.4248C55.5184 66.4174 55.5718 66.4067 55.6169 66.3977L55.6202 66.3968C55.672 66.3862 55.7073 66.3476 55.7327 66.2893C55.768 66.2088 55.7877 66.0938 55.8058 65.9632ZM56.8795 59.7771C56.9437 60.6364 56.9148 62.1053 56.8795 62.9876L56.8894 62.9949C56.9485 63.0303 57.0823 63.064 57.2523 63.0894C57.4304 63.1166 57.6448 63.1338 57.854 63.1338C57.9649 63.1338 58.0839 63.1264 58.1997 63.1026C58.3106 63.0787 58.4205 63.0378 58.519 62.9703C58.6775 62.8603 58.8162 62.6771 58.9148 62.4306C59.0076 62.1948 59.0625 61.9024 59.0625 61.5623C59.0625 60.9814 58.9132 60.5198 58.6414 60.2059C58.3729 59.8962 57.9797 59.7261 57.492 59.7261C57.3541 59.7261 57.2268 59.7319 57.1226 59.7418C57.0142 59.7508 56.928 59.764 56.8795 59.7771ZM68.5882 66.8413C68.3157 66.9169 68.0292 66.9506 67.7426 66.9506C67.507 66.9506 67.2722 66.9333 67.0431 66.8898C66.8125 66.8463 66.5884 66.7773 66.3782 66.6746C66.2805 66.6244 66.2271 66.5834 66.1934 66.4955C66.1671 66.4257 66.163 66.3394 66.163 66.1931C66.163 65.7971 66.1894 65.4628 66.2041 65.2649L66.2132 65.1441C66.2189 65.0767 66.2304 65.0249 66.2493 64.9847C66.283 64.9116 66.3355 64.8763 66.4127 64.8763C66.4907 64.8763 66.5399 64.9025 66.5744 64.9634C66.5965 65.0028 66.6023 65.0472 66.6023 65.1054C66.6023 65.1506 66.6031 65.2081 66.6056 65.2624C66.6089 65.3183 66.6154 65.3807 66.6285 65.4431C66.6893 65.7438 66.8453 65.9574 67.0522 66.1003C67.3009 66.2712 67.6269 66.3452 67.9586 66.3452C68.3559 66.3452 68.6589 66.2154 68.8681 66.0206C69.1136 65.7915 69.2351 65.4719 69.2351 65.1654C69.2351 64.8516 69.1702 64.6052 69.0085 64.3579C68.8394 64.0999 68.566 63.8354 68.1548 63.4961L67.7147 63.1338C67.1836 62.6976 66.856 62.3213 66.6605 61.9664C66.4603 61.605 66.3978 61.2674 66.3978 60.9157C66.3978 60.3513 66.6121 59.8757 66.9948 59.543C67.3674 59.2184 67.8986 59.032 68.5447 59.032C68.7392 59.032 68.9108 59.0418 69.0651 59.0599C69.2163 59.0763 69.3525 59.1026 69.4798 59.1322C69.5709 59.1511 69.6341 59.1635 69.6834 59.1708C69.7277 59.1765 69.7622 59.1782 69.7974 59.1782C69.8632 59.1782 69.9108 59.1914 69.9477 59.2184C69.9994 59.257 70.0167 59.3055 70.0167 59.3688L70.0118 59.4477C70.0019 59.5783 69.9781 59.8864 69.9781 60.4072C69.9781 60.4968 69.9715 60.5649 69.9568 60.6134C69.9281 60.7087 69.873 60.7539 69.7877 60.7539C69.7039 60.7539 69.6547 60.7177 69.6218 60.6512C69.6021 60.6134 69.5948 60.5699 69.5882 60.5189V60.514C69.5832 60.4556 69.5643 60.3546 69.5397 60.2601C69.52 60.1838 69.4971 60.1122 69.4757 60.0728C69.4511 60.0284 69.3829 59.9192 69.222 59.819C69.0521 59.7122 68.7828 59.6186 68.3592 59.6186C68.0431 59.6186 67.7639 59.7188 67.5694 59.9011C67.388 60.0728 67.2779 60.321 67.2779 60.6323C67.2779 60.8846 67.3354 61.0916 67.4987 61.3166C67.6728 61.5565 67.9642 61.8211 68.424 62.1808L68.6982 62.3961C69.2877 62.8611 69.6547 63.2522 69.8755 63.6284C70.1012 64.0137 70.1735 64.3817 70.1735 64.7925C70.1735 65.0397 70.1177 65.4094 69.9296 65.7767C69.7943 66.0412 69.5906 66.3033 69.2902 66.5169C69.0767 66.6663 68.8386 66.7723 68.5882 66.8413ZM77.4013 60.022C77.3816 60.3275 77.3816 60.6019 77.3816 62.1291V63.8527C77.3816 64.3365 77.3816 64.7785 77.3873 65.1112C77.3931 65.4677 77.4053 65.7594 77.43 65.9632V65.9647C77.4423 66.0922 77.4612 66.2022 77.5056 66.2769C77.5416 66.3386 77.6025 66.3821 77.7059 66.3953H77.7076C77.7724 66.4043 77.8594 66.4141 77.9424 66.4215C78.0162 66.429 78.0868 66.4331 78.1303 66.4331C78.1861 66.4331 78.228 66.4486 78.26 66.4725C78.311 66.5103 78.3306 66.5629 78.3306 66.6137C78.3306 66.6869 78.2953 66.7435 78.2231 66.7806C78.1805 66.8019 78.1237 66.8134 78.0523 66.8134C77.6475 66.8134 77.1788 66.7961 76.9621 66.7879L76.8488 66.7838L76.6895 66.7895C76.4704 66.7986 76.091 66.8134 75.8907 66.8134C75.8193 66.8134 75.7635 66.8052 75.7199 66.7838C75.6469 66.7501 75.6115 66.695 75.6115 66.6137C75.6115 66.5629 75.6313 66.5103 75.6813 66.4725C75.7142 66.4486 75.7569 66.4331 75.8119 66.4331C75.848 66.4331 75.8882 66.4298 75.9277 66.4248C75.981 66.4174 76.0344 66.4067 76.0795 66.3977L76.082 66.3968C76.1346 66.3862 76.1691 66.3476 76.1945 66.2893C76.2306 66.2088 76.2503 66.0938 76.2684 65.9632C76.316 65.5598 76.3159 64.79 76.3159 63.8527V62.1291C76.3159 61.3297 76.3159 60.8566 76.3143 60.6175C76.3118 60.3258 76.3069 60.1797 76.2971 60.0228C76.2889 59.8757 76.2651 59.7688 76.2216 59.6974C76.1862 59.6382 76.1329 59.6021 76.059 59.5857L76.0533 59.5841C76.013 59.5725 75.9679 59.5643 75.9252 59.5594C75.8719 59.5528 75.8193 59.5496 75.7823 59.5496C75.7372 59.5496 75.6896 59.5356 75.6526 59.5084C75.6099 59.4772 75.5828 59.4304 75.5828 59.3688C75.5828 59.2875 75.6173 59.2333 75.6904 59.1988C75.7339 59.1774 75.7897 59.1691 75.8612 59.1691C76.0861 59.1691 76.4785 59.184 76.6977 59.193L76.8488 59.198L77.008 59.193C77.2281 59.184 77.6066 59.1691 77.8076 59.1691C77.8791 59.1691 77.9349 59.1774 77.9784 59.198C78.0515 59.2333 78.086 59.2875 78.086 59.3688C78.086 59.4304 78.0581 59.4772 78.0153 59.5084C77.9792 59.5356 77.9317 59.5496 77.8856 59.5496C77.8257 59.5496 77.7716 59.5585 77.6648 59.5767L77.6615 59.5775C77.568 59.594 77.5081 59.6301 77.4728 59.69C77.4292 59.7607 77.4096 59.8699 77.4013 60.022ZM87.8587 59.8526L86.7521 59.8346V63.8527C86.7521 64.3365 86.7521 64.7785 86.7578 65.1112C86.7636 65.4677 86.7759 65.7594 86.7997 65.9632V65.9647C86.8129 66.0922 86.8317 66.2014 86.8761 66.2769C86.9122 66.3386 86.9721 66.3821 87.0748 66.3953H87.0764C87.1413 66.4043 87.2282 66.4141 87.3112 66.4215C87.3851 66.429 87.4556 66.4331 87.4992 66.4331C87.5542 66.4331 87.5969 66.4486 87.6289 66.4725C87.6798 66.5103 87.6995 66.5629 87.6995 66.6137C87.6995 66.6869 87.665 66.7435 87.5919 66.7806C87.5493 66.8019 87.4926 66.8134 87.4211 66.8134C87.0165 66.8134 86.5485 66.7961 86.3318 66.7879L86.2192 66.7838L86.06 66.7895C85.84 66.7986 85.4615 66.8134 85.2604 66.8134C85.1898 66.8134 85.134 66.8052 85.0904 66.7838C85.0166 66.7501 84.9821 66.695 84.9821 66.6137C84.9821 66.5629 85.0018 66.5103 85.0511 66.4725C85.0848 66.4486 85.1274 66.4331 85.1825 66.4331C85.2186 66.4331 85.2579 66.4298 85.2982 66.4248C85.3508 66.4174 85.4049 66.4067 85.4493 66.3977L85.4526 66.3968C85.5051 66.3862 85.5395 66.3476 85.565 66.2893C85.6003 66.2088 85.6209 66.0938 85.6389 65.9632C85.6864 65.5598 85.6864 64.79 85.6864 63.8527V59.8346L84.3623 59.8526C84.0717 59.8576 83.8705 59.8757 83.7285 59.9201C83.6045 59.9578 83.5265 60.0187 83.4641 60.1106C83.3631 60.2684 83.3352 60.3324 83.3082 60.3957C83.2868 60.4508 83.2622 60.4886 83.2343 60.5148C83.1907 60.5542 83.1473 60.5682 83.0988 60.5682C83.0397 60.5682 82.9904 60.5412 82.9584 60.4853C82.9387 60.4524 82.928 60.4097 82.928 60.3579C82.928 60.3144 82.9543 60.1747 82.9888 60.0113C83.0479 59.7286 83.1341 59.3614 83.1465 59.3113L83.1538 59.2892C83.1841 59.1963 83.2384 59.032 83.3623 59.032C83.4116 59.032 83.4501 59.0492 83.5027 59.0723C83.5635 59.0985 83.6537 59.1396 83.8016 59.1495L83.8057 59.1503C83.9296 59.1635 84.0733 59.1741 84.2055 59.1823C84.3623 59.1922 84.501 59.198 84.5659 59.198H88.2331C88.3809 59.198 88.5065 59.1938 88.6133 59.1864C88.7306 59.1782 88.8275 59.1658 88.9038 59.1519L88.9104 59.1503C88.9819 59.1412 89.0442 59.1272 89.0903 59.1175C89.137 59.1076 89.1715 59.1002 89.2018 59.1002C89.3726 59.1002 89.3726 59.2201 89.3726 59.34C89.3726 59.5117 89.3603 59.8518 89.3521 60.1074C89.3472 60.2503 89.3431 60.3662 89.3431 60.4162C89.3431 60.4795 89.3307 60.5313 89.3094 60.5691C89.2733 60.6347 89.2175 60.666 89.151 60.666C89.0787 60.666 89.0261 60.643 88.9885 60.5666C88.9687 60.5263 88.9573 60.4704 88.9515 60.3858L88.9424 60.2816C88.9317 60.1731 88.8817 60.0769 88.7454 60.0047C88.5821 59.9184 88.3062 59.8625 87.8587 59.8526ZM96.2606 65.9688C96.2893 65.5647 96.2893 65.1547 96.2893 64.9978V64.1557C96.2893 63.6563 96.1974 63.4509 96.0783 63.1831L96.075 63.1773C96.0421 63.1018 95.6752 62.4889 95.2819 61.8448C94.915 61.2435 94.5267 60.6184 94.3642 60.3768C94.2525 60.2117 94.1416 60.0728 94.0382 59.9611C93.9241 59.8354 93.8182 59.7434 93.7319 59.6859C93.672 59.6456 93.603 59.6128 93.5398 59.589C93.4725 59.5635 93.4126 59.5496 93.3789 59.5496C93.3296 59.5496 93.278 59.5372 93.2377 59.5084C93.1902 59.4756 93.159 59.4263 93.159 59.359C93.159 59.2932 93.1902 59.2374 93.2567 59.2021C93.2944 59.1807 93.3445 59.1691 93.4077 59.1691C93.5218 59.1691 93.8921 59.1815 94.1433 59.1905L94.3764 59.198L94.5036 59.1922C94.6638 59.1831 94.9323 59.1691 95.1983 59.1691C95.2778 59.1691 95.3321 59.184 95.3699 59.2094C95.4314 59.2488 95.4478 59.3022 95.4478 59.359C95.4478 59.4715 95.3846 59.4962 95.2836 59.5356L95.2278 59.5585C95.208 59.5692 95.1925 59.5816 95.1826 59.593C95.1768 59.6021 95.1736 59.6128 95.1736 59.6235C95.1736 59.6679 95.1834 59.7147 95.2006 59.7632C95.2204 59.819 95.2491 59.8798 95.2852 59.9471C95.3681 60.0983 95.8164 60.8722 96.2458 61.6108C96.5331 62.1053 96.8122 62.5826 96.9691 62.8463C97.0782 62.6393 97.2482 62.332 97.437 61.9985C97.8614 61.2451 98.3794 60.3555 98.4994 60.1574C98.5576 60.0647 98.5946 59.9801 98.6175 59.9061C98.6388 59.8363 98.6471 59.7746 98.6471 59.7221C98.6471 59.6711 98.6413 59.6276 98.6274 59.5996C98.6183 59.5832 98.6043 59.5709 98.583 59.5651L98.5748 59.5627C98.524 59.5463 98.4812 59.5315 98.4468 59.5117C98.3819 59.4739 98.3441 59.4254 98.3441 59.3499C98.3441 59.2735 98.3868 59.2209 98.4632 59.1922C98.505 59.1765 98.5593 59.1691 98.6225 59.1691C98.7858 59.1691 98.9787 59.1807 99.1158 59.1897C99.1856 59.1947 99.2406 59.198 99.2678 59.198L99.5239 59.1897C99.7677 59.1807 100.108 59.1691 100.218 59.1691C100.269 59.1691 100.321 59.1782 100.36 59.1963C100.425 59.2267 100.466 59.2776 100.466 59.3499C100.466 59.419 100.433 59.4748 100.374 59.5109C100.333 59.5356 100.279 59.5496 100.218 59.5496C100.168 59.5496 100.097 59.5594 100.021 59.5832C99.959 59.6013 99.8925 59.6293 99.831 59.6679L99.8293 59.6687C99.7407 59.7228 99.6717 59.7762 99.6003 59.8461C99.5255 59.9192 99.4475 60.0121 99.3424 60.1402C99.1906 60.3258 98.7941 60.9552 98.405 61.6042C97.9879 62.2975 97.5815 63.0114 97.492 63.2233C97.3549 63.5537 97.3549 63.8453 97.3549 64.1557V64.9978C97.3549 65.0841 97.3549 65.2393 97.3582 65.3897C97.3615 65.5589 97.3689 65.761 97.3836 65.9688C97.3927 66.0922 97.4148 66.1973 97.4625 66.272C97.5044 66.3369 97.5724 66.3813 97.6791 66.3953H97.6808C97.7457 66.4043 97.8327 66.4141 97.9156 66.4215C97.9895 66.429 98.0601 66.4331 98.1037 66.4331C98.1595 66.4331 98.2022 66.4486 98.2342 66.4725C98.2842 66.5103 98.304 66.5629 98.304 66.6137C98.304 66.6877 98.2695 66.7435 98.1972 66.7806C98.1537 66.8019 98.0971 66.8134 98.0256 66.8134C97.6209 66.8134 97.1521 66.7961 96.9353 66.7879L96.8221 66.7838L96.6628 66.7895C96.4436 66.7986 96.0644 66.8134 95.8632 66.8134C95.7926 66.8134 95.7367 66.8052 95.6925 66.7838C95.6202 66.7501 95.5849 66.696 95.5849 66.6137C95.5849 66.5629 95.6045 66.5103 95.6555 66.4725C95.6875 66.4486 95.7302 66.4331 95.7852 66.4331C95.8222 66.4331 95.8616 66.4298 95.901 66.4248C95.9543 66.4174 96.0077 66.4067 96.0528 66.3977L96.0553 66.3968C96.1095 66.3854 96.1514 66.3485 96.1834 66.2942C96.2269 66.2154 96.2515 66.1011 96.2606 65.9688ZM6.29323 53.3298C6.15695 52.9642 6.07321 52.4943 6.07321 51.8618V50.6279C6.07321 49.9312 6.07321 49.5204 6.07158 49.3224C6.06911 49.0711 6.06582 48.9446 6.05679 48.809C6.0494 48.6874 6.03381 48.6012 5.99522 48.5453C5.96074 48.496 5.89671 48.4623 5.78998 48.4394L5.78587 48.4385C5.76371 48.4328 5.72431 48.4287 5.68243 48.4245C5.63072 48.4196 5.56996 48.4171 5.52809 48.4171C5.48786 48.4171 5.44763 48.4056 5.41397 48.3843C5.368 48.3539 5.33845 48.3071 5.33845 48.2446C5.33845 48.1674 5.37128 48.1156 5.44025 48.0828C5.48129 48.063 5.53137 48.0549 5.59541 48.0549C5.84909 48.0549 6.18487 48.0672 6.39175 48.0754L6.56661 48.0803L6.77432 48.0737C6.97053 48.0655 7.24719 48.0549 7.40236 48.0549C7.4664 48.0549 7.51729 48.063 7.5567 48.082C7.62649 48.1156 7.65932 48.1674 7.65932 48.2446C7.65932 48.3596 7.56491 48.4171 7.47049 48.4171C7.44422 48.4171 7.42124 48.4188 7.39662 48.4221L7.27675 48.441C7.20204 48.4524 7.15525 48.4796 7.12733 48.5256C7.09204 48.5855 7.07479 48.68 7.06823 48.809C7.05181 49.0727 7.05181 49.3093 7.05181 50.6279V51.8116C7.05181 52.4057 7.11666 52.8287 7.22503 53.1417C7.33011 53.4456 7.47789 53.6494 7.64619 53.8096C7.83911 53.9912 8.02301 54.0996 8.21348 54.1612C8.40476 54.2236 8.60918 54.2417 8.83823 54.2417C9.07549 54.2417 9.31028 54.1858 9.52045 54.0897C9.73718 53.9904 9.92847 53.8474 10.0713 53.6765C10.2519 53.453 10.3669 53.1697 10.4366 52.8402C10.5081 52.5017 10.5327 52.1123 10.5327 51.6843V50.6279C10.5327 49.9312 10.5327 49.5204 10.5311 49.3224C10.5294 49.0711 10.5253 48.9446 10.5163 48.809C10.5097 48.6874 10.4933 48.6012 10.4547 48.5453C10.4202 48.496 10.3562 48.4623 10.2495 48.4394L10.2454 48.4385C10.2232 48.4328 10.1846 48.4287 10.1419 48.4245C10.0902 48.4196 10.0303 48.4171 9.98758 48.4171C9.94817 48.4171 9.90712 48.4056 9.87346 48.3843C9.82832 48.3531 9.79794 48.3071 9.79794 48.2446C9.79794 48.1674 9.83078 48.1156 9.89974 48.0828C9.94078 48.063 9.99086 48.0549 10.0549 48.0549C10.3258 48.0549 10.6583 48.0688 10.8348 48.0762L10.9506 48.0803L11.0934 48.0746C11.2502 48.0672 11.4932 48.0549 11.6591 48.0549C11.7231 48.0549 11.774 48.063 11.8134 48.082C11.8833 48.1156 11.9168 48.1674 11.9168 48.2446C11.9168 48.3596 11.8216 48.4171 11.7272 48.4171C11.7009 48.4171 11.6779 48.4188 11.6533 48.4221L11.5384 48.4402C11.4612 48.4582 11.412 48.4869 11.3841 48.5329C11.3487 48.5905 11.3323 48.6809 11.3249 48.809C11.3085 49.0719 11.3085 49.3093 11.3085 50.6279V51.5324C11.3085 51.9957 11.2822 52.487 11.1698 52.9421C11.0548 53.4062 10.8488 53.8317 10.49 54.1497C10.1715 54.4339 9.84556 54.5983 9.53358 54.6919C9.22245 54.7847 8.92772 54.8061 8.66911 54.8061C8.52134 54.8061 8.22661 54.7971 7.88837 54.7157C7.54684 54.632 7.16345 54.4733 6.84656 54.1735L6.84575 54.1727C6.62654 53.9624 6.43279 53.7011 6.29323 53.3298ZM14.906 48.809C14.8904 49.0727 14.8895 49.3093 14.8895 50.6279V52.1321C14.8895 52.7539 14.8978 53.1976 14.9248 53.4982C14.9495 53.7776 14.9857 53.9279 15.0398 53.9813C15.0907 54.0331 15.1613 54.0709 15.2877 54.0963C15.433 54.1266 15.6449 54.1406 15.9675 54.1406C16.1859 54.1406 16.3854 54.1382 16.548 54.1086C16.6949 54.0799 16.8148 54.029 16.8952 53.9312C16.9412 53.8745 16.9823 53.803 17.0151 53.7266C17.0512 53.6437 17.0775 53.5582 17.0889 53.4851C17.0947 53.4357 17.1062 53.394 17.1275 53.3585C17.162 53.3011 17.2113 53.2698 17.2852 53.2698C17.3639 53.2698 17.4116 53.3019 17.4403 53.3783C17.4535 53.4144 17.4575 53.4588 17.4575 53.5188C17.4575 53.5763 17.4362 53.7816 17.405 53.9904C17.3837 54.1374 17.3557 54.2877 17.3262 54.3961L17.3245 54.3986C17.2852 54.5284 17.2557 54.6064 17.1399 54.6607C17.0504 54.7026 16.9182 54.7141 16.6768 54.7141C16.2188 54.7141 15.8378 54.7026 15.5225 54.6943L15.2689 54.6877C15.089 54.6796 14.9347 54.673 14.7993 54.6689C14.6696 54.6648 14.5448 54.6623 14.4134 54.6623L14.3576 54.664C14.2878 54.6664 14.1745 54.6714 14.067 54.6714L13.8141 54.6829C13.7238 54.6861 13.6426 54.6886 13.5858 54.6886C13.5218 54.6886 13.471 54.6804 13.4315 54.6615C13.3617 54.6278 13.3289 54.5761 13.3289 54.4989C13.3289 54.4504 13.3478 54.4002 13.3954 54.3641C13.4258 54.3412 13.4668 54.3263 13.5177 54.3263C13.5482 54.3263 13.5825 54.323 13.6155 54.3189C13.6597 54.3132 13.7066 54.3041 13.7452 54.296L13.7477 54.2943C13.7863 54.2869 13.8133 54.2566 13.833 54.2122C13.8634 54.1448 13.8806 54.047 13.8954 53.9353C13.9364 53.5886 13.9364 52.9231 13.9364 52.1156V50.6279C13.9364 49.9312 13.9364 49.5204 13.9348 49.3224C13.9331 49.0711 13.929 48.9446 13.92 48.809C13.9135 48.6874 13.8978 48.6012 13.8584 48.5453C13.8239 48.496 13.7607 48.4623 13.6532 48.4394L13.649 48.4385C13.6269 48.4328 13.5883 48.4287 13.5465 48.4245C13.4939 48.4196 13.434 48.4171 13.3913 48.4171C13.3519 48.4171 13.3109 48.4056 13.2781 48.3843C13.232 48.3531 13.2017 48.3071 13.2017 48.2446C13.2017 48.1674 13.2345 48.1156 13.3035 48.0828C13.3446 48.063 13.3946 48.0549 13.4586 48.0549C13.7353 48.0549 14.1146 48.0696 14.3042 48.077L14.4134 48.0812L14.5678 48.0762C14.7829 48.068 15.1547 48.0549 15.3255 48.0549C15.3887 48.0549 15.4396 48.063 15.4799 48.082C15.5488 48.1156 15.5825 48.1674 15.5825 48.2446C15.5825 48.3596 15.488 48.4171 15.3928 48.4171C15.3608 48.4171 15.3149 48.4196 15.2672 48.4237C15.2253 48.4278 15.1786 48.4328 15.1342 48.4402C15.0489 48.4549 14.9963 48.4846 14.9667 48.5321C14.9298 48.5897 14.9134 48.6809 14.906 48.809ZM19.2587 53.9353C19.2998 53.5886 19.2998 52.9231 19.2998 52.1156V50.6279C19.2998 49.9312 19.2998 49.5204 19.2981 49.3224C19.2965 49.0711 19.2917 48.9446 19.2834 48.809C19.276 48.6874 19.2604 48.6012 19.2219 48.5453C19.1874 48.496 19.1232 48.4623 19.0166 48.4394L19.0125 48.4385C18.9904 48.4328 18.9518 48.4287 18.9099 48.4245C18.8574 48.4196 18.7965 48.4171 18.7547 48.4171C18.7153 48.4171 18.6742 48.4056 18.6406 48.3843C18.5954 48.3531 18.5658 48.3071 18.5658 48.2446C18.5658 48.1674 18.5979 48.1156 18.6676 48.0828C18.7079 48.063 18.7579 48.0549 18.8221 48.0549L19.1298 48.0564C19.2374 48.0573 19.3433 48.0597 19.4353 48.0639L19.7768 48.0812L20.6929 48.0803C21.1404 48.0795 21.6051 48.077 21.7044 48.0721C21.7775 48.0688 21.8473 48.0622 21.9072 48.0556C21.9671 48.0491 22.0148 48.0409 22.0451 48.0335L22.0697 48.022C22.1059 48.0048 22.1395 47.9875 22.1921 47.9875C22.2586 47.9875 22.3029 48.022 22.3284 48.0795C22.3423 48.1107 22.3481 48.1477 22.3481 48.1854C22.3481 48.2225 22.339 48.2594 22.3276 48.3119C22.3136 48.3736 22.2931 48.4623 22.2791 48.5954L22.2676 48.763C22.2594 48.9068 22.2479 49.0884 22.2356 49.1606L22.2347 49.1639C22.2281 49.1951 22.2192 49.2296 22.2035 49.2591C22.174 49.3159 22.1273 49.3545 22.0575 49.3545C21.9827 49.3545 21.931 49.3216 21.8981 49.2624C21.876 49.2238 21.8678 49.177 21.8678 49.1237C21.8678 49.0916 21.8653 49.0333 21.8555 48.9741C21.8489 48.9363 21.8399 48.8977 21.8268 48.8657C21.8062 48.8205 21.7824 48.7803 21.7283 48.749C21.656 48.7088 21.5361 48.6759 21.326 48.653C21.275 48.6472 21.1282 48.6414 20.9557 48.6381C20.7111 48.6332 20.3982 48.6299 20.253 48.6291V50.8867L20.8211 50.885C21.1133 50.8825 21.4171 50.8784 21.514 50.8694C21.6108 50.8619 21.6856 50.8545 21.7397 50.8398C21.7808 50.8283 21.8111 50.8143 21.8316 50.7922L21.8448 50.7765C21.9179 50.6927 21.9623 50.6409 22.0484 50.6409C22.1001 50.6409 22.1445 50.6607 22.1781 50.7084C22.1994 50.7387 22.2126 50.779 22.2126 50.8308C22.2126 50.8587 22.2052 50.8957 22.1954 50.9515C22.1814 51.0279 22.1593 51.1463 22.1436 51.3147C22.137 51.3861 22.1296 51.4864 22.124 51.5817C22.1166 51.7008 22.1108 51.8116 22.1108 51.8453C22.1108 51.8855 22.1108 51.9324 22.1009 51.9784C22.0804 52.0638 22.0328 52.1271 21.9301 52.1271C21.8686 52.1271 21.8235 52.1024 21.7915 52.0605C21.7618 52.0244 21.7496 51.9776 21.7496 51.9292C21.7496 51.8873 21.7496 51.8453 21.7463 51.8108C21.743 51.773 21.7356 51.732 21.7217 51.6851L21.72 51.6835C21.7085 51.6432 21.6905 51.5972 21.6503 51.5636C21.6026 51.5225 21.5222 51.4896 21.3859 51.4756C21.2988 51.4666 21.1249 51.4575 20.936 51.451C20.6832 51.4428 20.3934 51.4362 20.253 51.4354V52.1156L20.2513 52.4878C20.2489 52.887 20.2464 53.4284 20.2522 53.5549C20.2636 53.808 20.2924 53.9549 20.3916 54.0273C20.5042 54.1095 20.7234 54.1316 21.1109 54.1316C21.2193 54.1316 21.3653 54.1316 21.5066 54.121C21.6445 54.1103 21.78 54.0889 21.8744 54.0486C21.9606 54.0125 22.023 53.9624 22.0689 53.8876C22.1199 53.8047 22.1552 53.6897 22.1822 53.5311C22.1938 53.4703 22.206 53.4276 22.2258 53.394C22.2619 53.3298 22.3095 53.3036 22.3784 53.3036C22.5509 53.3036 22.5509 53.4357 22.5509 53.5525C22.5509 53.5944 22.5271 53.8104 22.4991 54.0199C22.4786 54.1743 22.4556 54.3239 22.4367 54.4002L22.4359 54.4035C22.353 54.7133 22.2692 54.7141 21.8628 54.7141C21.3572 54.7141 20.9409 54.7017 20.6224 54.6935C20.4221 54.6877 20.2251 54.678 20.0248 54.6689C19.9263 54.6648 19.8449 54.6623 19.7768 54.6623L19.6701 54.6631C19.6118 54.664 19.5338 54.6664 19.4435 54.6706L19.4385 54.6714C19.3441 54.6714 19.2514 54.6763 19.166 54.6804C19.0815 54.6846 19.0034 54.6886 18.9485 54.6886C18.8853 54.6886 18.8343 54.6804 18.7941 54.6615C18.7251 54.6278 18.6914 54.5761 18.6914 54.4989C18.6914 54.4504 18.7104 54.4002 18.7579 54.3641C18.7899 54.3412 18.8302 54.3263 18.8811 54.3263C18.9115 54.3263 18.9452 54.323 18.9788 54.3189C19.024 54.3132 19.0699 54.3041 19.1085 54.296L19.111 54.2943C19.1496 54.2869 19.1767 54.2566 19.1963 54.2122C19.226 54.1448 19.2432 54.047 19.2587 53.9353ZM25.9389 53.9419C25.9636 53.5935 25.9636 53.2394 25.9636 53.1047V52.3768C25.9636 51.9488 25.8856 51.773 25.783 51.5438L25.7805 51.539C25.7518 51.4748 25.4365 50.9474 25.0983 50.3921C24.7806 49.8728 24.4448 49.3323 24.3044 49.1237C24.2092 48.9824 24.1131 48.8633 24.0245 48.7671C23.9268 48.6604 23.8364 48.5806 23.7635 48.5321C23.7125 48.4985 23.6551 48.4697 23.6016 48.45C23.5442 48.4295 23.495 48.4171 23.4678 48.4171C23.4227 48.4171 23.3743 48.4048 23.3365 48.3785C23.2906 48.3473 23.261 48.3005 23.261 48.2356C23.261 48.1732 23.2914 48.1206 23.3546 48.0861C23.3899 48.0663 23.4358 48.0549 23.4933 48.0549C23.5886 48.0549 23.9095 48.0663 24.1271 48.0746L24.3291 48.0803L24.4382 48.0754C24.5761 48.068 24.8101 48.0549 25.0383 48.0549C25.1106 48.0549 25.1599 48.0688 25.1952 48.0927C25.2543 48.1313 25.2698 48.1814 25.2698 48.2356C25.2698 48.3449 25.2124 48.367 25.1188 48.404L25.0703 48.4237C25.0556 48.4311 25.0449 48.4402 25.0383 48.4491C25.035 48.4533 25.0335 48.459 25.0335 48.4648C25.0335 48.5001 25.0416 48.5379 25.0556 48.5789C25.0728 48.6266 25.0975 48.6784 25.1279 48.7359C25.2002 48.8657 25.5851 49.5311 25.9554 50.1678L26.5662 51.2128C26.6606 51.0345 26.8019 50.7815 26.957 50.5063C27.324 49.8557 27.7706 49.0874 27.874 48.9167C27.9233 48.8369 27.9553 48.7663 27.9749 48.7038C27.9922 48.6447 27.9996 48.5938 27.9996 48.5486C27.9996 48.5075 27.9947 48.473 27.984 48.4516C27.9782 48.441 27.9701 48.4328 27.9569 48.4303L27.947 48.4278C27.8215 48.3851 27.7378 48.3571 27.7378 48.2273C27.7378 48.1551 27.7779 48.1033 27.8518 48.0762C27.8896 48.0622 27.9381 48.0549 27.9947 48.0549C28.1359 48.0549 28.3026 48.0655 28.4216 48.0737C28.4815 48.0779 28.5283 48.0803 28.5521 48.0803L28.7722 48.0737C28.9839 48.0655 29.277 48.0549 29.3715 48.0549C29.419 48.0549 29.4659 48.0639 29.5028 48.0812C29.5644 48.1099 29.603 48.1575 29.603 48.2273C29.603 48.2939 29.5718 48.3457 29.5159 48.381C29.4781 48.404 29.4281 48.4171 29.3715 48.4171C29.3296 48.4171 29.2705 48.4262 29.2072 48.445C29.1547 48.4607 29.0989 48.4846 29.0471 48.5166L29.0455 48.5182C28.97 48.5634 28.9108 48.6086 28.8501 48.6685C28.7869 48.731 28.7196 48.8107 28.6293 48.9215C28.4988 49.081 28.1572 49.6223 27.8215 50.1809C27.4619 50.7798 27.1113 51.396 27.0342 51.5792C26.9167 51.8601 26.9167 52.1107 26.9167 52.3768V53.1047C26.9167 53.1794 26.9167 53.3158 26.92 53.4423C26.9225 53.587 26.9291 53.7619 26.9422 53.9419C26.9487 54.0445 26.9669 54.1341 27.007 54.1949C27.0407 54.2475 27.0957 54.2828 27.1827 54.2935C27.2385 54.3016 27.3141 54.3107 27.3872 54.3165C27.4528 54.3222 27.5127 54.3263 27.5472 54.3263C27.599 54.3263 27.6383 54.3412 27.6695 54.3641C27.718 54.4002 27.7361 54.4504 27.7361 54.4989C27.7361 54.5695 27.7033 54.6245 27.6343 54.659C27.5949 54.6771 27.5439 54.6886 27.4791 54.6886C27.131 54.6886 26.7255 54.673 26.5382 54.6656L26.4405 54.6623L26.3034 54.6673C26.1138 54.6747 25.7855 54.6886 25.613 54.6886C25.549 54.6886 25.4982 54.6804 25.4587 54.6615C25.3889 54.6278 25.3561 54.5761 25.3561 54.4989C25.3561 54.4504 25.3749 54.4002 25.4226 54.3641C25.4538 54.3412 25.494 54.3263 25.5457 54.3263C25.5761 54.3263 25.6097 54.323 25.6426 54.3189C25.6878 54.3132 25.7338 54.3041 25.7723 54.296L25.7747 54.295C25.8166 54.2869 25.8495 54.2573 25.8741 54.2147C25.911 54.1481 25.9316 54.0527 25.9389 53.9419ZM36.7634 48.0647C36.784 48.114 36.7971 48.1821 36.807 48.2742L37.3726 53.4712C37.3881 53.6165 37.4112 53.8022 37.4695 53.9599C37.5228 54.0996 37.6066 54.2195 37.7453 54.2647C37.9711 54.3346 38.1772 54.3346 38.2567 54.3346C38.297 54.3346 38.3323 54.3412 38.3643 54.3575C38.4177 54.3871 38.4464 54.4314 38.4464 54.4989C38.4464 54.6303 38.3184 54.696 38.1476 54.696C38.0367 54.696 37.6452 54.6935 37.2716 54.6846C37.0492 54.6788 36.8423 54.6714 36.7273 54.6623C36.6164 54.6533 36.5459 54.6394 36.5007 54.6221C36.4071 54.5851 36.3784 54.5292 36.3784 54.4561C36.3784 54.406 36.3931 54.3649 36.4276 54.3313C36.4433 54.3165 36.4605 54.3041 36.4819 54.2943H36.4761C36.4819 54.2467 36.4802 54.1776 36.472 54.107L36.1034 50.1161L34.1438 54.2779C33.9918 54.5998 33.9573 54.6714 33.8145 54.6714C33.6839 54.6714 33.6356 54.5794 33.4631 54.2516L33.445 54.217C33.2455 53.8416 32.6512 52.648 32.4927 52.33L32.455 52.2545C32.4082 52.1608 32.0617 51.4189 31.767 50.7823L31.5019 50.2065L31.1989 53.7233C31.1907 53.8499 31.1907 54.001 31.1907 54.1439C31.1907 54.1776 31.2039 54.2097 31.2244 54.2343C31.2457 54.2606 31.277 54.2795 31.3122 54.2861L31.3163 54.2869C31.3738 54.3008 31.4263 54.3099 31.4699 54.3156C31.5314 54.323 31.5823 54.3263 31.6093 54.3263C31.6488 54.3263 31.6907 54.3379 31.7227 54.3575C31.7687 54.3871 31.7991 54.4331 31.7991 54.4898C31.7991 54.5736 31.7621 54.6278 31.6898 54.6607C31.6463 54.6813 31.5922 54.6886 31.5257 54.6886C31.3179 54.6886 31.0544 54.6763 30.8869 54.6681L30.74 54.6623C30.7072 54.6623 30.6399 54.6656 30.5544 54.6697C30.3919 54.678 30.1703 54.6886 30.0299 54.6886C29.9733 54.6886 29.9207 54.6813 29.8771 54.6607C29.8058 54.6295 29.7647 54.5752 29.7647 54.4898C29.7647 54.4265 29.8017 54.3806 29.8566 54.3526C29.8903 54.3354 29.9322 54.3263 29.9716 54.3263C30.0028 54.3263 30.0332 54.3255 30.066 54.323C30.1005 54.3206 30.1431 54.3148 30.2006 54.3033H30.2031C30.3828 54.2704 30.4107 54.0051 30.4379 53.739L31.0503 48.197C31.056 48.1329 31.0725 48.0779 31.0979 48.036C31.1365 47.9727 31.1923 47.9365 31.263 47.9365C31.322 47.9365 31.3713 47.9555 31.4156 48.0007C31.446 48.0318 31.4723 48.0746 31.4994 48.1321L33.973 53.2198L36.3472 48.1444C36.3677 48.0975 36.389 48.0549 36.4177 48.0203C36.4605 47.9685 36.5139 47.9365 36.5844 47.9365C36.6682 47.9365 36.7256 47.9776 36.7634 48.0647ZM39.306 54.0979C39.4061 53.9714 39.4817 53.7956 39.5531 53.596L41.47 48.3465C41.5233 48.2011 41.5595 48.1132 41.5916 48.0581C41.6466 47.9621 41.6999 47.9365 41.7705 47.9365C41.8378 47.9365 41.8904 47.9588 41.947 48.0475C41.979 48.0975 42.016 48.1806 42.0693 48.3185L42.4239 49.2403C42.8879 50.4529 43.6735 52.5075 44.0372 53.4144C44.1833 53.7751 44.3122 53.9854 44.4247 54.1103C44.5257 54.2211 44.6119 54.2597 44.6841 54.2803L44.6891 54.2828C44.744 54.3008 44.7998 54.3123 44.85 54.3181C44.9 54.3239 44.9485 54.3263 44.9887 54.3263C45.0305 54.3263 45.0691 54.3313 45.1036 54.3493C45.162 54.3781 45.1948 54.4241 45.1948 54.4989C45.1948 54.5802 45.1488 54.632 45.0757 54.6615C45.028 54.6804 44.9673 54.6886 44.9041 54.6886L44.4116 54.6861C44.1669 54.6836 43.8647 54.6796 43.5742 54.6706L43.5331 54.6689C43.323 54.659 43.2031 54.6533 43.2031 54.4898C43.2031 54.4356 43.2245 54.3937 43.2598 54.3608C43.2819 54.342 43.3065 54.328 43.3328 54.3189C43.3361 54.3066 43.3344 54.2861 43.3255 54.2573L42.5463 52.1953H40.7829L40.2796 53.6773C40.2443 53.7768 40.2164 53.8745 40.1975 53.9665C40.1787 54.0536 40.1696 54.1341 40.1696 54.2031C40.1696 54.236 40.1861 54.2614 40.209 54.2795C40.2509 54.3115 40.3125 54.3263 40.3683 54.3263H40.4529C40.5054 54.3263 40.5473 54.337 40.5801 54.3567C40.6343 54.3904 40.6597 54.438 40.6597 54.4989C40.6597 54.5777 40.6212 54.6295 40.5554 54.6607C40.5144 54.6804 40.4651 54.6886 40.411 54.6886C40.2927 54.6886 40.1097 54.6788 39.9619 54.6714C39.8708 54.6664 39.7936 54.6623 39.7518 54.6623L39.5621 54.6689C39.3626 54.6763 39.0563 54.6886 38.7978 54.6886C38.728 54.6886 38.6738 54.6813 38.6311 54.664C38.5532 54.6328 38.5154 54.5802 38.5154 54.4989C38.5154 54.438 38.5433 54.392 38.59 54.3608C38.6237 54.3379 38.6672 54.3263 38.7132 54.3263L38.8224 54.3214L38.9423 54.3107C39.1007 54.2902 39.2149 54.2137 39.306 54.0979ZM41.6334 49.6198L40.9733 51.6473H42.346L41.6334 49.6198ZM47.7931 50.6927C47.4245 50.287 47.1092 49.937 46.895 49.697L46.996 53.4144C47.0041 53.7479 47.028 53.9657 47.0747 54.102C47.1109 54.2072 47.1627 54.2573 47.2356 54.2803C47.294 54.2952 47.3564 54.3058 47.4163 54.3132C47.5041 54.323 47.583 54.3263 47.6257 54.3263C47.6732 54.3263 47.7151 54.3387 47.748 54.3633C47.7915 54.3961 47.8145 54.4421 47.8145 54.4989C47.8145 54.5794 47.7767 54.6328 47.7011 54.664C47.6593 54.6813 47.6067 54.6886 47.5411 54.6886C47.202 54.6886 46.9246 54.6747 46.7669 54.6673L46.647 54.6623L46.5075 54.6681C46.3482 54.6755 46.0921 54.6886 45.8342 54.6886C45.7793 54.6886 45.7316 54.6846 45.6898 54.6673C45.6176 54.6377 45.5773 54.5868 45.5773 54.4989C45.5773 54.4413 45.6011 54.3961 45.6438 54.3641C45.6775 54.3387 45.7194 54.3263 45.7669 54.3263C45.8031 54.3263 45.8671 54.323 45.9352 54.314C45.9829 54.3066 46.0321 54.296 46.0748 54.2828L46.0806 54.2803C46.1388 54.2639 46.175 54.2137 46.2004 54.1004C46.2349 53.9468 46.2448 53.7011 46.2448 53.3241L46.2538 48.4813C46.253 48.3079 46.2604 48.1928 46.2776 48.1198C46.3088 47.985 46.3712 47.9365 46.468 47.9365C46.5715 47.9365 46.6848 48.0614 46.7809 48.1674L46.8564 48.2487C46.9327 48.3342 47.3277 48.7646 47.8719 49.3528C48.3078 49.8235 48.8908 50.4504 49.5368 51.1454C49.9785 51.6186 50.4382 52.1247 50.8151 52.5387L51.3438 53.1195L51.2584 49.1433C51.2543 48.8821 51.2388 48.7104 51.1969 48.602C51.1649 48.5215 51.1098 48.4788 51.0203 48.4557C50.9662 48.4435 50.9045 48.4344 50.8463 48.4295C50.7593 48.4204 50.6771 48.4171 50.6377 48.4171C50.5697 48.4171 50.5237 48.3958 50.4916 48.3596C50.4563 48.3202 50.4489 48.2791 50.4489 48.2356C50.4489 48.1452 50.4982 48.0943 50.5836 48.0704C50.6271 48.0581 50.6796 48.0549 50.7395 48.0549C50.9859 48.0549 51.2576 48.0663 51.4383 48.0746C51.5187 48.0779 51.5777 48.0803 51.6155 48.0803C51.65 48.0803 51.701 48.0779 51.7666 48.0737C51.9061 48.0663 52.1105 48.0549 52.3356 48.0549C52.393 48.0549 52.4414 48.0581 52.4833 48.0721C52.5638 48.0976 52.6089 48.1477 52.6089 48.2356C52.6089 48.2964 52.5801 48.3482 52.5268 48.3818C52.4923 48.404 52.4471 48.4171 52.3946 48.4171C52.3741 48.4171 52.3495 48.4171 52.3265 48.4196C52.3003 48.4221 52.2666 48.4278 52.2214 48.4385L52.2165 48.4394C52.1237 48.4599 52.0719 48.4985 52.0449 48.57C52.0079 48.6701 52.0014 48.8328 52.0014 49.0727L51.9841 54.0257C51.9841 54.309 51.9792 54.4644 51.9669 54.5523C51.9422 54.7248 51.8823 54.7478 51.7863 54.7478C51.7223 54.7478 51.6566 54.7174 51.5401 54.6147C51.4431 54.5292 51.3043 54.3937 51.0819 54.171C51.0088 54.1012 50.5507 53.6346 50.0072 53.0702C49.6394 52.6874 49.2323 52.2594 48.8776 51.8774C48.4975 51.4658 48.1232 51.0567 47.7931 50.6927ZM57.588 53.9353C57.6291 53.5886 57.6291 52.9231 57.6291 52.1156V50.6279C57.6291 49.9312 57.6291 49.5204 57.6275 49.3224C57.6258 49.0719 57.6209 48.9454 57.6128 48.8098C57.6053 48.6874 57.5897 48.6012 57.5511 48.5453C57.5166 48.496 57.4526 48.4623 57.3458 48.4394L57.3418 48.4385C57.3196 48.4328 57.281 48.4287 57.2392 48.4245C57.1866 48.4196 57.1259 48.4171 57.084 48.4171C57.0445 48.4171 57.0027 48.4056 56.9699 48.3843C56.9247 48.3531 56.8944 48.3071 56.8944 48.2446C56.8944 48.1674 56.928 48.1156 56.9962 48.0828C57.0372 48.063 57.0873 48.0549 57.1513 48.0549C57.428 48.0549 57.8073 48.0696 57.9969 48.077L58.1061 48.0812L58.3056 48.0754C58.5355 48.0672 58.9066 48.0549 59.2456 48.0549H59.4065C60.2874 48.0508 61.7397 48.0425 62.72 49.0563C62.9621 49.3076 63.1961 49.6421 63.3578 50.0651C63.4901 50.4118 63.5738 50.8176 63.5738 51.2867C63.5738 51.7879 63.4794 52.2372 63.3307 52.6266C63.1526 53.0915 62.8956 53.4728 62.628 53.7545C62.4384 53.9526 62.1461 54.2064 61.7143 54.4093C61.2848 54.6114 60.7185 54.7642 59.9804 54.7642C59.803 54.7642 59.597 54.7585 59.3884 54.7478C59.1791 54.7379 58.9772 54.7263 58.7982 54.7133L58.3236 54.6788C58.2038 54.6689 58.1241 54.6623 58.1061 54.6623L57.9986 54.6631C57.9411 54.664 57.8631 54.6664 57.7728 54.6706L57.7679 54.6714C57.6735 54.6714 57.5806 54.6763 57.4945 54.6804C57.4108 54.6846 57.3328 54.6886 57.2778 54.6886C57.2145 54.6886 57.1636 54.6804 57.1234 54.6615C57.0536 54.6278 57.0208 54.5761 57.0208 54.4989C57.0208 54.4504 57.0397 54.4002 57.0873 54.3641C57.1184 54.3412 57.1595 54.3263 57.2105 54.3263C57.2408 54.3263 57.2745 54.323 57.3073 54.3189C57.3524 54.3132 57.3984 54.3041 57.4379 54.296L57.4403 54.2943C57.4788 54.2869 57.506 54.2566 57.5257 54.2122C57.556 54.1439 57.5725 54.0461 57.588 53.9353ZM58.5904 48.6965C58.5822 48.9667 58.5822 49.8359 58.5822 50.4923V51.5406C58.5822 52.0072 58.5839 52.4047 58.5863 52.6932C58.5896 53.0357 58.5937 53.2846 58.5987 53.3684V53.3701C58.6028 53.4728 58.6094 53.6059 58.6225 53.7275C58.634 53.8309 58.6487 53.9188 58.6685 53.9452L58.6709 53.9485C58.712 54.0092 58.8015 54.075 58.9894 54.1299C59.1996 54.1908 59.5198 54.2335 60.0058 54.2335C60.3827 54.2335 60.7455 54.1645 61.0714 54.0372C61.399 53.9082 61.6921 53.7209 61.9301 53.4834C62.1296 53.2879 62.2849 53.0061 62.3923 52.6833C62.509 52.335 62.5705 51.9381 62.5705 51.5487C62.5705 51.11 62.49 50.7371 62.3718 50.4274C62.2126 50.0084 61.9836 49.7028 61.793 49.5032C61.4122 49.1023 60.9918 48.874 60.5461 48.745C60.0945 48.6152 59.6126 48.5864 59.1191 48.5864C59.0297 48.5864 58.8992 48.5938 58.7908 48.6045C58.7079 48.6135 58.6406 48.6241 58.6241 48.6324L58.62 48.6348C58.6053 48.6406 58.597 48.6455 58.5954 48.6488C58.5921 48.6538 58.5904 48.6693 58.5904 48.6924V48.6965ZM65.6122 53.9353C65.6533 53.5886 65.6533 52.9231 65.6533 52.1156V50.6279C65.6533 49.9312 65.6533 49.5204 65.6516 49.3224C65.6492 49.0719 65.6451 48.9454 65.6368 48.8098C65.6294 48.6874 65.6139 48.6012 65.5753 48.5453C65.5408 48.496 65.4767 48.4623 65.37 48.4394L65.3659 48.4385C65.3438 48.4328 65.3052 48.4287 65.2624 48.4245C65.2108 48.4196 65.15 48.4171 65.1073 48.4171C65.0687 48.4171 65.0268 48.4056 64.994 48.3843C64.9489 48.3531 64.9185 48.3071 64.9185 48.2446C64.9185 48.1674 64.9514 48.1156 65.0203 48.0828C65.0605 48.063 65.1114 48.0549 65.1755 48.0549L65.4833 48.0564C65.5909 48.0573 65.6967 48.0597 65.7888 48.0639L66.1294 48.0812L67.0464 48.0803C67.4939 48.0795 67.9586 48.077 68.0579 48.0721C68.1309 48.0688 68.2007 48.0622 68.2607 48.0556C68.3206 48.0491 68.3682 48.0409 68.3977 48.0335L68.4232 48.022C68.4594 48.0048 68.493 47.9875 68.5455 47.9875C68.6128 47.9875 68.6556 48.022 68.681 48.0795C68.6957 48.1107 68.7006 48.1477 68.7006 48.1854C68.7006 48.2225 68.6925 48.2594 68.681 48.3119C68.6662 48.3736 68.6465 48.4623 68.6317 48.5954L68.6211 48.763C68.6128 48.9068 68.6005 49.0884 68.5891 49.1606V49.1639C68.5825 49.1943 68.5726 49.2288 68.557 49.2591C68.5275 49.3159 68.4807 49.3545 68.4101 49.3545C68.3353 49.3545 68.2836 49.3216 68.2508 49.2624C68.2294 49.223 68.2204 49.177 68.2204 49.1237C68.2204 49.0916 68.218 49.0333 68.2081 48.9741C68.2023 48.9363 68.1925 48.8977 68.1794 48.8657C68.1597 48.8205 68.135 48.7803 68.0809 48.749C68.0094 48.7088 67.8888 48.6759 67.6786 48.653C67.6286 48.6472 67.4816 48.6414 67.3091 48.6381C67.0645 48.6332 66.7509 48.6299 66.6064 48.6291V50.8867L67.1745 50.885C67.4667 50.8825 67.7697 50.8784 67.8674 50.8694C67.9634 50.8619 68.039 50.8545 68.0932 50.8398C68.1342 50.8291 68.1645 50.8143 68.1851 50.7922L68.1982 50.7765C68.2705 50.6927 68.3157 50.6409 68.4018 50.6409C68.4536 50.6409 68.4979 50.6607 68.5307 50.7075C68.5529 50.7387 68.5652 50.779 68.5652 50.8308C68.5652 50.8587 68.5587 50.8957 68.5488 50.9515C68.534 51.0279 68.5119 51.1463 68.497 51.3147C68.4905 51.3861 68.4823 51.4864 68.4765 51.5817C68.4691 51.7008 68.4642 51.8116 68.4642 51.8453C68.4642 51.8855 68.4642 51.9324 68.4536 51.9784C68.4338 52.0638 68.3863 52.1271 68.2836 52.1271C68.2221 52.1271 68.1769 52.1024 68.1441 52.0605C68.1153 52.0244 68.1022 51.9776 68.1022 51.9292C68.1022 51.8873 68.1022 51.8453 68.0997 51.8108C68.0956 51.773 68.0883 51.7328 68.0743 51.6859L68.0734 51.6835C68.062 51.6432 68.0431 51.5972 68.0028 51.5636C67.9553 51.5225 67.8756 51.4896 67.7393 51.4756C67.6523 51.4666 67.4783 51.4575 67.2886 51.451C67.0357 51.4428 66.7468 51.4362 66.6064 51.4354V52.1156L66.6039 52.4878C66.6023 52.887 66.5998 53.4284 66.6056 53.5549C66.6163 53.808 66.6458 53.9549 66.7451 54.0273C66.8577 54.1095 67.0768 54.1316 67.4643 54.1316C67.5727 54.1316 67.7188 54.1316 67.8601 54.121C67.9971 54.1103 68.1325 54.0889 68.2279 54.0486C68.3132 54.0125 68.3764 53.9624 68.4224 53.8876C68.4733 53.8047 68.5086 53.6897 68.5348 53.5319C68.5455 53.4711 68.5595 53.4276 68.5784 53.394C68.6145 53.3298 68.6629 53.3036 68.731 53.3036C68.9034 53.3036 68.9034 53.4357 68.9034 53.5525C68.9034 53.5944 68.8796 53.8104 68.8526 54.0199C68.832 54.1743 68.8082 54.3239 68.7902 54.4002L68.7894 54.4035C68.7056 54.7141 68.6227 54.7141 68.2163 54.7141C67.7106 54.7141 67.2936 54.7017 66.975 54.6935C66.7755 54.6877 66.5777 54.678 66.3782 54.6689C66.2788 54.6648 66.1983 54.6623 66.1294 54.6623L66.0227 54.6631C65.9652 54.664 65.8873 54.6664 65.7969 54.6706L65.7919 54.6714C65.6967 54.6714 65.604 54.6763 65.5186 54.6804C65.4349 54.6846 65.3561 54.6886 65.3019 54.6886C65.2378 54.6886 65.1878 54.6804 65.1476 54.6615C65.0778 54.6278 65.0449 54.5761 65.0449 54.4989C65.0449 54.4504 65.0638 54.4002 65.1114 54.3641C65.1426 54.3412 65.1837 54.3263 65.2345 54.3263C65.2649 54.3263 65.2986 54.323 65.3314 54.3189C65.3766 54.3132 65.4226 54.3041 65.4619 54.296L65.4644 54.2943C65.503 54.2869 65.5301 54.2566 65.5498 54.2122C65.5802 54.1439 65.5966 54.0461 65.6122 53.9353ZM77.0852 48.0647C77.1066 48.114 77.1197 48.1821 77.1296 48.2742L77.6952 53.4712C77.7116 53.6165 77.733 53.8022 77.7929 53.9599C77.8454 54.0996 77.9292 54.2195 78.0679 54.2647C78.2937 54.3346 78.4998 54.3346 78.5793 54.3346C78.6188 54.3346 78.6549 54.3412 78.6869 54.3575C78.7395 54.3871 78.769 54.4314 78.769 54.4989C78.769 54.6303 78.6402 54.696 78.4694 54.696C78.3594 54.696 77.9678 54.6935 77.5942 54.6846C77.3718 54.6788 77.1649 54.6714 77.0499 54.6623C76.939 54.6533 76.8693 54.6394 76.8233 54.6221C76.7298 54.5851 76.701 54.5292 76.701 54.4561C76.701 54.406 76.7166 54.3649 76.7502 54.3313C76.7659 54.3165 76.7839 54.3041 76.8045 54.2943H76.7987C76.8045 54.2467 76.8028 54.1776 76.7946 54.107L76.426 50.1161L74.4664 54.2779C74.3136 54.5998 74.28 54.6714 74.1372 54.6714C74.0065 54.6714 73.9582 54.5794 73.7857 54.2516L73.7677 54.217C73.5681 53.8416 72.9738 52.648 72.8154 52.33L72.7776 52.2545C72.7317 52.1608 72.3844 51.4189 72.0896 50.7823L71.8245 50.2065L71.5215 53.7233C71.5133 53.8499 71.5133 54.001 71.5133 54.1439C71.5133 54.1776 71.5265 54.2097 71.547 54.2343C71.5691 54.2606 71.5996 54.2795 71.6348 54.2861L71.6389 54.2869C71.6964 54.3008 71.7481 54.3099 71.7925 54.3156C71.854 54.323 71.9049 54.3263 71.9321 54.3263C71.9714 54.3263 72.0133 54.3379 72.0453 54.3575C72.0913 54.3871 72.1217 54.4331 72.1217 54.4898C72.1217 54.5736 72.0847 54.6278 72.0125 54.6607C71.9689 54.6813 71.9148 54.6886 71.8474 54.6886C71.6405 54.6886 71.377 54.6763 71.2095 54.6681L71.0626 54.6623C71.029 54.6623 70.9617 54.6656 70.877 54.6697C70.7145 54.678 70.4929 54.6886 70.3533 54.6886C70.295 54.6886 70.2424 54.6813 70.199 54.6607C70.1292 54.6287 70.0873 54.5752 70.0873 54.4898C70.0873 54.4265 70.1234 54.3806 70.1792 54.3526C70.2121 54.3354 70.2548 54.3263 70.2934 54.3263C70.3254 54.3263 70.3558 54.3255 70.3886 54.323C70.4231 54.3206 70.465 54.3148 70.5233 54.3033H70.5257C70.7055 54.2704 70.7333 54.0051 70.7613 53.739L71.3721 48.197C71.3787 48.1329 71.3951 48.0779 71.4206 48.036C71.4592 47.9727 71.515 47.9365 71.5864 47.9365C71.6447 47.9365 71.6931 47.9555 71.739 48.0007C71.7694 48.0318 71.7958 48.0754 71.8237 48.1354L74.2948 53.2198L76.669 48.1444C76.6903 48.0968 76.7125 48.0541 76.7405 48.0195C76.7839 47.9685 76.8365 47.9365 76.907 47.9365C76.9916 47.9365 77.0474 47.9776 77.0852 48.0647ZM81.3699 48.809C81.3534 49.0727 81.3534 49.3093 81.3534 50.6279V52.1156C81.3534 52.5354 81.3534 52.9175 81.3583 53.2017C81.3633 53.5081 81.374 53.7603 81.3945 53.9353V53.9378C81.406 54.0445 81.4215 54.1382 81.4577 54.1998C81.4864 54.2491 81.5357 54.2836 81.6186 54.2935C81.6753 54.3016 81.7507 54.3107 81.823 54.3165C81.8887 54.3222 81.9494 54.3263 81.9832 54.3263C82.0348 54.3263 82.0751 54.3412 82.1055 54.3641C82.1538 54.4002 82.1728 54.4504 82.1728 54.4989C82.1728 54.5695 82.1399 54.6245 82.071 54.659C82.0315 54.6771 81.9799 54.6886 81.9157 54.6886C81.5677 54.6886 81.1621 54.673 80.9742 54.6656L80.8765 54.6623L80.7402 54.6673C80.5505 54.6747 80.2213 54.6886 80.0489 54.6886C79.9857 54.6886 79.9348 54.6804 79.8946 54.6615C79.8256 54.6278 79.7919 54.5761 79.7919 54.4989C79.7919 54.4504 79.8109 54.4002 79.8584 54.3641C79.8896 54.3412 79.9307 54.3263 79.9815 54.3263C80.0119 54.3263 80.0456 54.323 80.0784 54.3189C80.1236 54.3132 80.1704 54.3041 80.209 54.296L80.2107 54.2943C80.25 54.2869 80.2772 54.2566 80.2968 54.2122C80.3272 54.1439 80.3445 54.0461 80.3592 53.9353C80.4003 53.5886 80.4003 52.9231 80.4003 52.1156V50.6279C80.4003 49.9312 80.4003 49.5204 80.3986 49.3224C80.397 49.0719 80.3929 48.9454 80.3838 48.8098C80.3773 48.6858 80.3568 48.5962 80.3206 48.5362C80.2927 48.4902 80.25 48.4615 80.1917 48.4475L80.1868 48.4467C80.1499 48.4361 80.1122 48.4295 80.0777 48.4254C80.0325 48.4196 79.9873 48.4171 79.9561 48.4171C79.9175 48.4171 79.8757 48.4056 79.8429 48.3843C79.7977 48.3531 79.7665 48.3071 79.7665 48.2446C79.7665 48.1674 79.7993 48.1156 79.8691 48.0828C79.9094 48.063 79.9602 48.0549 80.0234 48.0549C80.2163 48.0549 80.5571 48.0688 80.7475 48.0762L80.8765 48.0803L81.0136 48.0762C81.2032 48.068 81.5316 48.0549 81.704 48.0549C81.768 48.0549 81.8189 48.063 81.8583 48.082C81.9281 48.1156 81.9618 48.1674 81.9618 48.2446C81.9618 48.3596 81.8674 48.4171 81.7721 48.4171C81.7459 48.4171 81.7228 48.4188 81.6982 48.4221L81.5801 48.4402C81.5045 48.4549 81.4577 48.4836 81.4289 48.5296C81.3936 48.588 81.3773 48.6809 81.3699 48.809ZM84.4386 53.9353C84.4805 53.5886 84.4805 52.9231 84.4805 52.1156V50.6279C84.4805 49.9312 84.4797 49.5204 84.4781 49.3224C84.4764 49.0719 84.4723 48.9454 84.4632 48.8098C84.4566 48.6874 84.4403 48.6012 84.4017 48.5453C84.3672 48.496 84.3032 48.4623 84.1964 48.4394L84.1931 48.4385C84.1702 48.4328 84.1316 48.4287 84.0897 48.4245C84.0372 48.4196 83.9773 48.4171 83.9345 48.4171C83.8951 48.4171 83.854 48.4056 83.8212 48.3843C83.7753 48.3531 83.7449 48.3071 83.7449 48.2446C83.7449 48.1674 83.7786 48.1156 83.8476 48.0828C83.8877 48.063 83.9378 48.0549 84.0019 48.0549C84.2794 48.0549 84.6578 48.0696 84.8475 48.077L84.9566 48.0812L85.2374 48.0729C85.478 48.0655 85.8006 48.0549 85.9532 48.0549C86.2258 48.0549 86.5075 48.068 86.7809 48.123C87.0608 48.1789 87.3309 48.2783 87.5698 48.45C87.7044 48.5478 87.8998 48.7417 88.0369 49.0127C88.1338 49.205 88.2036 49.4358 88.2036 49.6979C88.2036 50.029 88.1338 50.36 87.9646 50.7001C87.8095 51.0107 87.5706 51.3302 87.2234 51.663L87.4015 51.8913C87.9836 52.6397 88.4778 53.2748 88.9038 53.7308C89.1223 53.9599 89.3152 54.0963 89.4777 54.1784C89.6378 54.2581 89.77 54.2877 89.866 54.3025C90.013 54.3255 90.1279 54.3263 90.1764 54.3263C90.2215 54.3263 90.2642 54.3402 90.2962 54.3616C90.3447 54.3937 90.3742 54.4438 90.3742 54.4989C90.3742 54.5826 90.3373 54.6361 90.2461 54.6664C90.201 54.6821 90.1386 54.6886 90.0499 54.6886H89.4498C89.2076 54.6886 89.0303 54.6771 88.8817 54.65C88.7273 54.6221 88.6091 54.5777 88.4885 54.5129C88.1288 54.3198 87.8457 53.9452 87.4163 53.3791L87.3096 53.237C87.0994 52.9627 86.8827 52.6635 86.7037 52.4154C86.5731 52.2355 86.4623 52.0836 86.395 51.9949L86.3835 51.9842C86.0625 51.9891 85.7217 51.9726 85.3991 51.9678V52.1156C85.3991 52.5354 85.3991 52.9175 85.4041 53.2017C85.409 53.5081 85.4196 53.7603 85.441 53.9353V53.9378C85.4517 54.0445 85.4673 54.1382 85.5034 54.1998C85.5321 54.2491 85.5806 54.2836 85.6651 54.2935C85.7202 54.3016 85.7965 54.3107 85.8687 54.3165C85.9352 54.3222 85.9951 54.3263 86.0288 54.3263C86.0806 54.3263 86.1208 54.3412 86.1512 54.3641C86.1996 54.4002 86.2185 54.4504 86.2185 54.4989C86.2185 54.5695 86.1857 54.6245 86.1167 54.659C86.0773 54.6771 86.0255 54.6886 85.9615 54.6886C85.6135 54.6886 85.2071 54.673 85.0198 54.6656L84.9238 54.6623L84.8893 54.664C84.7596 54.6697 84.3368 54.6886 84.1283 54.6886C84.0651 54.6886 84.015 54.6804 83.9748 54.6615C83.905 54.6278 83.8722 54.5761 83.8722 54.4989C83.8722 54.4504 83.891 54.4002 83.9378 54.3641C83.9699 54.3412 84.0101 54.3263 84.061 54.3263C84.0913 54.3263 84.1258 54.323 84.1586 54.3189C84.2038 54.3132 84.249 54.3041 84.2883 54.296L84.2908 54.2943C84.3302 54.2869 84.3565 54.2566 84.3763 54.2122C84.4066 54.1439 84.423 54.0461 84.4386 53.9353ZM85.5929 48.5822C85.51 48.5897 85.4419 48.6004 85.3991 48.6094V51.3607C85.4484 51.3902 85.5617 51.4181 85.7062 51.4403C85.8589 51.4641 86.0428 51.4773 86.2234 51.4773C86.3179 51.4773 86.4197 51.4724 86.5182 51.451C86.6117 51.4313 86.7053 51.3968 86.7873 51.3401C86.9221 51.2472 87.0403 51.092 87.1231 50.8809C87.2036 50.6812 87.2505 50.4307 87.2505 50.1382C87.2505 49.6404 87.1224 49.2461 86.8908 48.9782C86.6618 48.7137 86.3276 48.5692 85.9106 48.5692C85.7915 48.5692 85.6824 48.574 85.5929 48.5822ZM91.1705 53.9353C91.2116 53.5886 91.2116 52.9231 91.2116 52.1156V50.6279C91.2116 49.9312 91.2116 49.5204 91.21 49.3224C91.2083 49.0719 91.2042 48.9454 91.1951 48.8098C91.1886 48.6874 91.1722 48.6012 91.1336 48.5453C91.0991 48.496 91.0351 48.4623 90.9283 48.4394L90.9243 48.4385C90.9021 48.4328 90.8635 48.4287 90.8208 48.4245C90.7691 48.4196 90.7092 48.4171 90.6656 48.4171C90.627 48.4171 90.586 48.4056 90.5532 48.3843C90.5072 48.3531 90.4768 48.3071 90.4768 48.2446C90.4768 48.1674 90.5097 48.1156 90.5786 48.0828C90.6197 48.063 90.6697 48.0549 90.7338 48.0549L91.0416 48.0564C91.15 48.0573 91.2551 48.0597 91.3471 48.0639L91.6878 48.0812L92.6048 48.0803C93.0522 48.0795 93.5169 48.077 93.6162 48.0721C93.6893 48.0688 93.7591 48.0622 93.819 48.0556C93.8789 48.0491 93.9266 48.0409 93.9569 48.0335L93.9815 48.022C94.0168 48.0048 94.0513 47.9875 94.1038 47.9875C94.1711 47.9875 94.2147 48.022 94.2401 48.0795C94.2541 48.1107 94.2599 48.1477 94.2599 48.1854C94.2599 48.2225 94.2508 48.2594 94.2385 48.3119C94.2254 48.3736 94.2048 48.4623 94.1909 48.5954L94.1794 48.763C94.1703 48.9068 94.1597 49.0884 94.1474 49.1606V49.1639C94.1416 49.1943 94.131 49.2288 94.1154 49.2591C94.0858 49.3159 94.0398 49.3545 93.9684 49.3545C93.8937 49.3545 93.842 49.3216 93.8091 49.2624C93.7878 49.223 93.7796 49.177 93.7796 49.1237C93.7796 49.0916 93.7763 49.0333 93.7672 48.9741C93.7607 48.9363 93.7517 48.8977 93.7377 48.8657C93.718 48.8205 93.6942 48.7803 93.6392 48.749C93.5677 48.7088 93.4471 48.6759 93.2377 48.653C93.1869 48.6472 93.039 48.6414 92.8675 48.6381C92.6237 48.6332 92.3092 48.6299 92.1647 48.6291V50.8867L92.7328 50.885C93.0251 50.8825 93.3281 50.8784 93.4266 50.8694C93.5218 50.8619 93.5974 50.8545 93.6515 50.8398C93.6926 50.8291 93.7221 50.8143 93.7426 50.7922L93.7566 50.7765C93.8289 50.6927 93.8748 50.6409 93.9602 50.6409C94.0119 50.6409 94.0571 50.6607 94.0899 50.7075C94.1121 50.7387 94.1244 50.779 94.1244 50.8308C94.1244 50.8587 94.117 50.8957 94.1071 50.9515C94.0932 51.0279 94.071 51.1463 94.0555 51.3147C94.0489 51.3861 94.0414 51.4864 94.0349 51.5817C94.0284 51.7008 94.0226 51.8116 94.0226 51.8453C94.0226 51.8855 94.0226 51.9324 94.0119 51.9784C93.9922 52.0638 93.9446 52.1271 93.842 52.1271C93.7812 52.1271 93.7352 52.1024 93.7032 52.0605C93.6737 52.0244 93.6606 51.9776 93.6606 51.9292C93.6606 51.8873 93.6606 51.8453 93.6573 51.8108C93.654 51.773 93.6474 51.7328 93.6334 51.6859L93.6319 51.6835C93.6203 51.6432 93.6014 51.5972 93.5621 51.5636C93.5144 51.5225 93.4339 51.4896 93.2969 51.4756C93.2106 51.4666 93.0366 51.4575 92.8478 51.451C92.5941 51.4428 92.3051 51.4362 92.1647 51.4354V52.1156L92.163 52.4878C92.1615 52.887 92.1582 53.4284 92.1647 53.5549C92.1754 53.808 92.2033 53.9549 92.3035 54.0273C92.4168 54.1095 92.6351 54.1316 93.0227 54.1316C93.1311 54.1316 93.2771 54.1316 93.4184 54.121C93.5555 54.1103 93.6909 54.0889 93.7862 54.0486C93.8723 54.0125 93.9347 53.9624 93.9799 53.8876C94.0317 53.8047 94.0669 53.6897 94.094 53.5319C94.1047 53.4712 94.1178 53.4276 94.1367 53.394C94.1736 53.3298 94.2213 53.3036 94.2894 53.3036C94.4618 53.3036 94.4618 53.4357 94.4618 53.5525C94.4618 53.5944 94.4388 53.8104 94.4109 54.0199C94.3904 54.1743 94.3675 54.3239 94.3493 54.4002L94.3485 54.4035C94.2647 54.7141 94.181 54.7141 93.7746 54.7141C93.2689 54.7141 92.8519 54.7017 92.5341 54.6935C92.3346 54.6877 92.1368 54.678 91.9373 54.6689C91.838 54.6648 91.7568 54.6623 91.6878 54.6623L91.5819 54.6631C91.5244 54.664 91.4456 54.6664 91.3561 54.6706L91.3504 54.6714C91.256 54.6714 91.1631 54.6763 91.077 54.6804C90.9933 54.6846 90.9152 54.6886 90.8603 54.6886C90.797 54.6886 90.7461 54.6804 90.7067 54.6615C90.6369 54.6278 90.6032 54.5761 90.6032 54.4989C90.6032 54.4504 90.623 54.4002 90.6697 54.3641C90.7009 54.3412 90.742 54.3263 90.7928 54.3263C90.8233 54.3263 90.857 54.323 90.8906 54.3189C90.9349 54.3132 90.9809 54.3041 91.0195 54.296L91.0228 54.2943C91.0613 54.2869 91.0877 54.2566 91.1081 54.2122C91.1385 54.1439 91.155 54.0461 91.1705 53.9353ZM97.6964 48.809C97.68 49.0727 97.68 49.3093 97.68 50.6279V52.1321C97.68 52.7539 97.689 53.1976 97.7153 53.4982C97.7399 53.7776 97.776 53.9271 97.8303 53.9813C97.8819 54.0331 97.9526 54.0709 98.079 54.0963C98.2235 54.1266 98.4361 54.1406 98.7579 54.1406C98.9763 54.1406 99.1766 54.1382 99.3384 54.1086C99.4853 54.0799 99.6052 54.029 99.6856 53.9312C99.7316 53.8745 99.7727 53.803 99.8055 53.7266C99.8417 53.6437 99.8679 53.5582 99.8785 53.4851C99.8851 53.4357 99.8958 53.394 99.9179 53.3585C99.9524 53.3011 100.002 53.2698 100.076 53.2698C100.155 53.2698 100.203 53.3019 100.231 53.3783C100.244 53.4144 100.248 53.4588 100.248 53.5188C100.248 53.5763 100.227 53.7816 100.195 53.9904C100.173 54.1374 100.146 54.2877 100.117 54.3961L100.116 54.3986C100.076 54.5284 100.046 54.6064 99.9303 54.6607C99.8407 54.7026 99.7087 54.7141 99.4673 54.7141C99.0091 54.7141 98.6291 54.7026 98.3129 54.6943L98.0593 54.6877C97.8795 54.6796 97.7252 54.673 97.5897 54.6689C97.4608 54.6648 97.3344 54.6623 97.2039 54.6623L97.1472 54.664C97.0782 54.6664 96.965 54.6714 96.8574 54.6714L96.6053 54.6829C96.5142 54.6861 96.433 54.6886 96.3754 54.6886C96.3122 54.6886 96.2614 54.6804 96.2211 54.6615C96.1522 54.6278 96.1185 54.5761 96.1185 54.4989C96.1185 54.4504 96.1382 54.4002 96.1858 54.3641C96.217 54.3412 96.2573 54.3263 96.3081 54.3263C96.3385 54.3263 96.3722 54.323 96.4058 54.3189C96.451 54.3132 96.497 54.3041 96.5355 54.296L96.538 54.2943C96.5774 54.2869 96.6038 54.2566 96.6234 54.2122C96.6538 54.1439 96.671 54.0461 96.6858 53.9353C96.7269 53.5886 96.7269 52.9231 96.7269 52.1156V50.6279C96.7269 49.9312 96.7269 49.5204 96.7252 49.3224C96.7236 49.0719 96.7195 48.9454 96.7112 48.8098C96.7038 48.6874 96.6874 48.6012 96.6489 48.5453C96.6144 48.496 96.5512 48.4623 96.4436 48.4394L96.4403 48.4385C96.4173 48.4328 96.3787 48.4287 96.3368 48.4245C96.2843 48.4196 96.2236 48.4171 96.1817 48.4171C96.1431 48.4171 96.1012 48.4056 96.0677 48.3843C96.0225 48.3531 95.9929 48.3071 95.9929 48.2446C95.9929 48.1674 96.0258 48.1156 96.0947 48.0828C96.135 48.063 96.1858 48.0549 96.2499 48.0549C96.5257 48.0549 96.905 48.0696 97.0947 48.077L97.2039 48.0812L97.3582 48.0762C97.5732 48.068 97.9451 48.0549 98.1159 48.0549C98.1799 48.0549 98.2301 48.063 98.2703 48.082C98.3392 48.1156 98.3728 48.1674 98.3728 48.2446C98.3728 48.3596 98.2784 48.4171 98.1832 48.4171C98.1512 48.4171 98.1052 48.4196 98.0577 48.4237C98.0149 48.4278 97.9689 48.4328 97.9255 48.4402C97.84 48.4549 97.7875 48.4846 97.7572 48.5321C97.7202 48.5897 97.7039 48.6809 97.6964 48.809Z" fill="#020202"/>
</svg>
