<svg width="20" height="21" viewBox="0 0 20 21" fill="none" xmlns="http://www.w3.org/2000/svg">
<path d="M10 7.28809C8.34262 7.28809 7 8.63119 7 10.2881C7 11.9454 8.34312 13.2881 10 13.2881C11.6573 13.2881 13 11.945 13 10.2881C13 8.63079 11.6569 7.28809 10 7.28809ZM10 5.28809C12.7604 5.28809 15 7.52519 15 10.2881C15 13.0486 12.7629 15.2881 10 15.2881C7.23953 15.2881 5 13.051 5 10.2881C5 7.52762 7.2371 5.28809 10 5.28809ZM16.5 5.03724C16.5 5.72735 15.9392 6.28726 15.25 6.28726C14.5599 6.28726 14 5.72649 14 5.03724C14 4.34799 14.5607 3.78809 15.25 3.78809C15.9383 3.78722 16.5 4.34799 16.5 5.03724ZM10 2.28809C7.52552 2.28809 7.1222 2.29464 5.97129 2.34589C5.18717 2.3827 4.66155 2.48816 4.17318 2.67776C3.73918 2.84608 3.42611 3.04707 3.09254 3.38064C2.75769 3.71549 2.55706 4.02772 2.38942 4.46192C2.19938 4.95141 2.09395 5.4762 2.0578 6.25924C2.00605 7.36329 2 7.74914 2 10.2881C2 12.7626 2.00655 13.1659 2.05779 14.3167C2.09462 15.1005 2.20022 15.6269 2.38936 16.1141C2.55812 16.5487 2.75952 16.8625 3.09148 17.1945C3.42765 17.5302 3.74081 17.7315 4.17089 17.8975C4.66521 18.0886 5.1905 18.1942 5.97114 18.2303C7.0752 18.282 7.46105 18.2881 10 18.2881C12.4745 18.2881 12.8778 18.2815 14.0286 18.2303C14.8107 18.1936 15.3375 18.0877 15.826 17.8987C16.2594 17.7304 16.5742 17.5283 16.9064 17.1966C17.2426 16.8599 17.4435 16.5475 17.6097 16.1164C17.8003 15.6239 17.9061 15.0979 17.9422 14.317C17.9939 13.2129 18 12.827 18 10.2881C18 7.81361 17.9934 7.4103 17.9422 6.25946C17.9054 5.47715 17.7995 4.94958 17.6103 4.46127C17.4424 4.02847 17.2407 3.71444 16.9074 3.38064C16.572 3.04524 16.2606 2.84502 15.8261 2.67751C15.337 2.48763 14.8114 2.38205 14.0288 2.3459C12.9248 2.29414 12.5389 2.28809 10 2.28809ZM10 0.288086C12.7166 0.288086 13.0558 0.298086 14.1225 0.348086C15.1866 0.397256 15.9125 0.565586 16.55 0.813086C17.2091 1.06726 17.7658 1.41059 18.3216 1.96642C18.8766 2.52226 19.22 3.08059 19.475 3.73809C19.7216 4.37476 19.89 5.10142 19.94 6.16559C19.9875 7.23226 20 7.57142 20 10.2881C20 13.0048 19.99 13.3439 19.94 14.4106C19.8908 15.4748 19.7216 16.2006 19.475 16.8381C19.2208 17.4973 18.8766 18.0539 18.3216 18.6098C17.7658 19.1648 17.2066 19.5081 16.55 19.7631C15.9125 20.0098 15.1866 20.1781 14.1225 20.2281C13.0558 20.2756 12.7166 20.2881 10 20.2881C7.28333 20.2881 6.94416 20.2781 5.8775 20.2281C4.81333 20.1789 4.08833 20.0098 3.45 19.7631C2.79166 19.5089 2.23416 19.1648 1.67833 18.6098C1.1225 18.0539 0.78 17.4948 0.525 16.8381C0.2775 16.2006 0.11 15.4748 0.0600002 14.4106C0.0125002 13.3439 0 13.0048 0 10.2881C0 7.57142 0.0100002 7.23226 0.0600002 6.16559C0.10916 5.10059 0.2775 4.37559 0.525 3.73809C0.77916 3.07976 1.1225 2.52226 1.67833 1.96642C2.23416 1.41059 2.7925 1.06809 3.45 0.813086C4.0875 0.565586 4.8125 0.398086 5.8775 0.348086C6.94416 0.300586 7.28333 0.288086 10 0.288086Z" fill="#6944CB"/>
</svg>
