<svg width="20" height="21" viewBox="0 0 20 21" fill="none" xmlns="http://www.w3.org/2000/svg">
<path d="M9.99984 18.6975C5.39746 18.6975 1.6665 14.9665 1.6665 10.3642C1.6665 5.76184 5.39746 2.03088 9.99984 2.03088C14.6022 2.03088 18.3332 5.76184 18.3332 10.3642C18.3332 14.9665 14.6022 18.6975 9.99984 18.6975ZM8.09152 16.7537C7.28936 15.0525 6.7976 13.1761 6.68926 11.1975H3.38475C3.71484 13.8446 5.59683 16.0098 8.09152 16.7537ZM8.35875 11.1975C8.48409 13.2299 9.06467 15.139 9.99984 16.8242C10.935 15.139 11.5156 13.2299 11.6409 11.1975H8.35875ZM16.6149 11.1975H13.3104C13.2021 13.1761 12.7103 15.0525 11.9082 16.7537C14.4028 16.0098 16.2848 13.8446 16.6149 11.1975ZM3.38475 9.53088H6.68926C6.7976 7.55236 7.28936 5.67594 8.09152 3.97468C5.59683 4.71866 3.71484 6.8838 3.38475 9.53088ZM8.35875 9.53088H11.6409C11.5156 7.49857 10.935 5.58943 9.99984 3.90421C9.06467 5.58943 8.48409 7.49857 8.35875 9.53088ZM11.9082 3.97468C12.7103 5.67594 13.2021 7.55236 13.3104 9.53088H16.6149C16.2848 6.8838 14.4028 4.71866 11.9082 3.97468Z" fill="#6944CB"/>
</svg>
