<svg width="24" height="25" viewBox="0 0 24 25" fill="none" xmlns="http://www.w3.org/2000/svg">
<path d="M12.001 9.83814C12.9181 8.90136 14.1121 8.28809 15.501 8.28809C18.5385 8.28809 21.001 10.7505 21.001 13.7881V21.2881H19.001V13.7881C19.001 11.8551 17.434 10.2881 15.501 10.2881C13.568 10.2881 12.001 11.8551 12.001 13.7881V21.2881H10.001V8.78809H12.001V9.83814ZM5.00098 6.78809C4.17255 6.78809 3.50098 6.11652 3.50098 5.28809C3.50098 4.45966 4.17255 3.78809 5.00098 3.78809C5.8294 3.78809 6.50098 4.45966 6.50098 5.28809C6.50098 6.11652 5.8294 6.78809 5.00098 6.78809ZM4.00098 8.78809H6.00098V21.2881H4.00098V8.78809Z" fill="#6944CB"/>
</svg>
