<svg width="78" height="61" viewBox="0 0 78 61" fill="none" xmlns="http://www.w3.org/2000/svg">
<path d="M37.7667 5.11362V4.81064V4.50767H38.0689H38.3726V4.81064V5.11362H38.0689H37.7667ZM38.1454 5.11362V4.81064V4.50767H38.4476H38.7513V4.81064V5.11362H38.4476H38.1454ZM38.5241 5.11362V4.81064V4.50767H38.8263H39.1301V4.81064V5.11362H38.8263H38.5241ZM38.9028 5.11362V4.81064V4.50767H39.205H39.5088V4.81064V5.11362H39.205H38.9028ZM39.2815 5.11362V4.81064V4.50767H39.5837H39.8875V4.81064V5.11362H39.5837H39.2815ZM38.5241 4.7349V4.43192V4.12895H38.8263H39.1301V4.43192V4.7349H38.8263H38.5241ZM38.5241 4.35618V4.05321V3.75023H38.8263H39.1301V4.05321V4.35618H38.8263H38.5241ZM38.5241 3.97746V3.67449V3.37152H38.8263H39.1301V3.67449V3.97746H38.8263H38.5241ZM38.5241 3.59875V3.29577V2.9928H38.8263H39.1301V3.29577V3.59875H38.8263H38.5241ZM38.5241 3.22003V2.91706V2.61408H38.8263H39.1301V2.91706V3.22003H38.8263H38.5241ZM38.5241 2.84131V2.53834V2.23536H38.8263H39.1301V2.53834V2.84131H38.8263H38.5241ZM38.5241 2.4626V2.15962V1.85665H38.8263H39.1301V2.15962V2.4626H38.8263H38.5241ZM38.5241 2.08388V1.7809V1.47793H38.8263H39.1301V1.7809V2.08388H38.8263H38.5241ZM37.7667 1.70516V1.40219V1.09921H38.0689H38.3726V1.40219V1.70516H38.0689H37.7667ZM38.5241 1.70516V1.40219V1.09921H38.8263H39.1301V1.40219V1.70516H38.8263H38.5241ZM38.1454 1.5158V1.21283V0.909855H38.4476H38.7513V1.21283V1.5158H38.4476H38.1454ZM38.5241 1.32644V1.02347V0.720496H38.8263H39.1301V1.02347V1.32644H38.8263H38.5241Z" fill="#6944CB"/>
<path d="M30.9379 14.1028V13.7998V13.4968H31.2401H31.5438V13.7998V14.1028H31.2401H30.9379ZM31.3166 14.1028V13.7998V13.4968H31.6188H31.9225V13.7998V14.1028H31.6188H31.3166ZM31.6953 14.1028V13.7998V13.4968H31.9975H32.3013V13.7998V14.1028H31.9975H31.6953ZM30.5592 13.7241V13.4211V13.1181H30.8613H31.1651V13.4211V13.7241H30.8613H30.5592ZM32.074 13.7241V13.4211V13.1181H32.3762H32.68V13.4211V13.7241H32.3762H32.074ZM30.5592 13.3453V13.0424V12.7394H30.8613H31.1651V13.0424V13.3453H30.8613H30.5592ZM32.074 13.3453V13.0424V12.7394H32.3762H32.68V13.0424V13.3453H32.3762H32.074ZM30.5592 12.9666V12.6637V12.3607H30.8613H31.1651V12.6637V12.9666H30.8613H30.5592ZM32.074 12.9666V12.6637V12.3607H32.3762H32.68V12.6637V12.9666H32.3762H32.074ZM30.5592 12.5879V12.2849V11.982H30.8613H31.1651V12.2849V12.5879H30.8613H30.5592ZM32.074 12.5879V12.2849V11.982H32.3762H32.68V12.2849V12.5879H32.3762H32.074ZM30.5592 12.2092V11.9062V11.6032H30.8613H31.1651V11.9062V12.2092H30.8613H30.5592ZM32.074 12.2092V11.9062V11.6032H32.3762H32.68V11.9062V12.2092H32.3762H32.074ZM30.5592 11.8305V11.5275V11.2245H30.8613H31.1651V11.5275V11.8305H30.8613H30.5592ZM32.074 11.8305V11.5275V11.2245H32.3762H32.68V11.5275V11.8305H32.3762H32.074ZM30.5592 11.4518V11.1488V10.8458H30.8613H31.1651V11.1488V11.4518H30.8613H30.5592ZM32.074 11.4518V11.1488V10.8458H32.3762H32.68V11.1488V11.4518H32.3762H32.074ZM30.5592 11.073V10.7701V10.4671H30.8613H31.1651V10.7701V11.073H30.8613H30.5592ZM32.074 11.073V10.7701V10.4671H32.3762H32.68V10.7701V11.073H32.3762H32.074ZM30.5592 10.6943V10.3914V10.0884H30.8613H31.1651V10.3914V10.6943H30.8613H30.5592ZM32.074 10.6943V10.3914V10.0884H32.3762H32.68V10.3914V10.6943H32.3762H32.074ZM30.9379 10.3156V10.0126V9.70966H31.2401H31.5438V10.0126V10.3156H31.2401H30.9379ZM31.3166 10.3156V10.0126V9.70966H31.6188H31.9225V10.0126V10.3156H31.6188H31.3166ZM31.6953 10.3156V10.0126V9.70966H31.9975H32.3013V10.0126V10.3156H31.9975H31.6953ZM31.3166 12.5879V12.2849V11.982H31.6188H31.9225V12.2849V12.5879H31.6188H31.3166ZM31.3166 12.2092V11.9062V11.6032H31.6188H31.9225V11.9062V12.2092H31.6188H31.3166ZM31.3166 11.8305V11.5275V11.2245H31.6188H31.9225V11.5275V11.8305H31.6188H31.3166Z" fill="#6944CB"/>
<path d="M38.1454 14.1028V13.7998V13.4968H38.4476H38.7513V13.7998V14.1028H38.4476H38.1454ZM38.5241 14.1028V13.7998V13.4968H38.8263H39.1301V13.7998V14.1028H38.8263H38.5241ZM38.9028 14.1028V13.7998V13.4968H39.205H39.5088V13.7998V14.1028H39.205H38.9028ZM37.7667 13.7241V13.4211V13.1181H38.0689H38.3726V13.4211V13.7241H38.0689H37.7667ZM39.2815 13.7241V13.4211V13.1181H39.5837H39.8875V13.4211V13.7241H39.5837H39.2815ZM37.7667 13.3453V13.0424V12.7394H38.0689H38.3726V13.0424V13.3453H38.0689H37.7667ZM39.2815 13.3453V13.0424V12.7394H39.5837H39.8875V13.0424V13.3453H39.5837H39.2815ZM37.7667 12.9666V12.6637V12.3607H38.0689H38.3726V12.6637V12.9666H38.0689H37.7667ZM39.2815 12.9666V12.6637V12.3607H39.5837H39.8875V12.6637V12.9666H39.5837H39.2815ZM37.7667 12.5879V12.2849V11.982H38.0689H38.3726V12.2849V12.5879H38.0689H37.7667ZM39.2815 12.5879V12.2849V11.982H39.5837H39.8875V12.2849V12.5879H39.5837H39.2815ZM37.7667 12.2092V11.9062V11.6032H38.0689H38.3726V11.9062V12.2092H38.0689H37.7667ZM39.2815 12.2092V11.9062V11.6032H39.5837H39.8875V11.9062V12.2092H39.5837H39.2815ZM37.7667 11.8305V11.5275V11.2245H38.0689H38.3726V11.5275V11.8305H38.0689H37.7667ZM39.2815 11.8305V11.5275V11.2245H39.5837H39.8875V11.5275V11.8305H39.5837H39.2815ZM37.7667 11.4518V11.1488V10.8458H38.0689H38.3726V11.1488V11.4518H38.0689H37.7667ZM39.2815 11.4518V11.1488V10.8458H39.5837H39.8875V11.1488V11.4518H39.5837H39.2815ZM37.7667 11.073V10.7701V10.4671H38.0689H38.3726V10.7701V11.073H38.0689H37.7667ZM39.2815 11.073V10.7701V10.4671H39.5837H39.8875V10.7701V11.073H39.5837H39.2815ZM37.7667 10.6943V10.3914V10.0884H38.0689H38.3726V10.3914V10.6943H38.0689H37.7667ZM39.2815 10.6943V10.3914V10.0884H39.5837H39.8875V10.3914V10.6943H39.5837H39.2815ZM38.1454 10.3156V10.0126V9.70966H38.4476H38.7513V10.0126V10.3156H38.4476H38.1454ZM38.5241 10.3156V10.0126V9.70966H38.8263H39.1301V10.0126V10.3156H38.8263H38.5241ZM38.9028 10.3156V10.0126V9.70966H39.205H39.5088V10.0126V10.3156H39.205H38.9028ZM38.5241 12.5879V12.2849V11.982H38.8263H39.1301V12.2849V12.5879H38.8263H38.5241ZM38.5241 12.2092V11.9062V11.6032H38.8263H39.1301V11.9062V12.2092H38.8263H38.5241ZM38.5241 11.8305V11.5275V11.2245H38.8263H39.1301V11.5275V11.8305H38.8263H38.5241Z" fill="#6944CB"/>
<path d="M44.9742 14.1028V13.7998V13.4968H45.2764H45.5801V13.7998V14.1028H45.2764H44.9742ZM45.3529 14.1028V13.7998V13.4968H45.6551H45.9589V13.7998V14.1028H45.6551H45.3529ZM45.7316 14.1028V13.7998V13.4968H46.0338H46.3376V13.7998V14.1028H46.0338H45.7316ZM46.1104 14.1028V13.7998V13.4968H46.4125H46.7163V13.7998V14.1028H46.4125H46.1104ZM46.4891 14.1028V13.7998V13.4968H46.7913H47.095V13.7998V14.1028H46.7913H46.4891ZM45.7316 13.7241V13.4211V13.1181H46.0338H46.3376V13.4211V13.7241H46.0338H45.7316ZM45.7316 13.3453V13.0424V12.7394H46.0338H46.3376V13.0424V13.3453H46.0338H45.7316ZM45.7316 12.9666V12.6637V12.3607H46.0338H46.3376V12.6637V12.9666H46.0338H45.7316ZM45.7316 12.5879V12.2849V11.982H46.0338H46.3376V12.2849V12.5879H46.0338H45.7316ZM45.7316 12.2092V11.9062V11.6032H46.0338H46.3376V11.9062V12.2092H46.0338H45.7316ZM45.7316 11.8305V11.5275V11.2245H46.0338H46.3376V11.5275V11.8305H46.0338H45.7316ZM45.7316 11.4518V11.1488V10.8458H46.0338H46.3376V11.1488V11.4518H46.0338H45.7316ZM45.7316 11.073V10.7701V10.4671H46.0338H46.3376V10.7701V11.073H46.0338H45.7316ZM44.9742 10.6943V10.3914V10.0884H45.2764H45.5801V10.3914V10.6943H45.2764H44.9742ZM45.7316 10.6943V10.3914V10.0884H46.0338H46.3376V10.3914V10.6943H46.0338H45.7316ZM45.3529 10.505V10.202V9.89902H45.6551H45.9589V10.202V10.505H45.6551H45.3529ZM45.7316 10.3156V10.0126V9.70966H46.0338H46.3376V10.0126V10.3156H46.0338H45.7316Z" fill="#6944CB"/>
<path d="M25.4552 23.0919V22.789V22.486H25.7573H26.0611V22.789V23.0919H25.7573H25.4552ZM25.8339 23.0919V22.789V22.486H26.1361H26.4398V22.789V23.0919H26.1361H25.8339ZM26.2126 23.0919V22.789V22.486H26.5148H26.8185V22.789V23.0919H26.5148H26.2126ZM26.5913 23.0919V22.789V22.486H26.8935H27.1973V22.789V23.0919H26.8935H26.5913ZM26.97 23.0919V22.789V22.486H27.2722H27.576V22.789V23.0919H27.2722H26.97ZM26.2126 22.7132V22.4102V22.1073H26.5148H26.8185V22.4102V22.7132H26.5148H26.2126ZM26.2126 22.3345V22.0315V21.7286H26.5148H26.8185V22.0315V22.3345H26.5148H26.2126ZM26.2126 21.9558V21.6528V21.3498H26.5148H26.8185V21.6528V21.9558H26.5148H26.2126ZM26.2126 21.5771V21.2741V20.9711H26.5148H26.8185V21.2741V21.5771H26.5148H26.2126ZM26.2126 21.1983V20.8954V20.5924H26.5148H26.8185V20.8954V21.1983H26.5148H26.2126ZM26.2126 20.8196V20.5167V20.2137H26.5148H26.8185V20.5167V20.8196H26.5148H26.2126ZM26.2126 20.4409V20.1379V19.835H26.5148H26.8185V20.1379V20.4409H26.5148H26.2126ZM26.2126 20.0622V19.7592V19.4562H26.5148H26.8185V19.7592V20.0622H26.5148H26.2126ZM25.4552 19.6835V19.3805V19.0775H25.7573H26.0611V19.3805V19.6835H25.7573H25.4552ZM26.2126 19.6835V19.3805V19.0775H26.5148H26.8185V19.3805V19.6835H26.5148H26.2126ZM25.8339 19.4941V19.1911V18.8882H26.1361H26.4398V19.1911V19.4941H26.1361H25.8339ZM26.2126 19.3048V19.0018V18.6988H26.5148H26.8185V19.0018V19.3048H26.5148H26.2126Z" fill="#6944CB"/>
<path d="M33.0414 23.0919V22.789V22.486H33.3436H33.6473V22.789V23.0919H33.3436H33.0414ZM33.4201 23.0919V22.789V22.486H33.7223H34.0261V22.789V23.0919H33.7223H33.4201ZM33.7988 23.0919V22.789V22.486H34.101H34.4048V22.789V23.0919H34.101H33.7988ZM32.6627 22.7132V22.4102V22.1073H32.9649H33.2686V22.4102V22.7132H32.9649H32.6627ZM34.1775 22.7132V22.4102V22.1073H34.4797H34.7835V22.4102V22.7132H34.4797H34.1775ZM32.6627 22.3345V22.0315V21.7286H32.9649H33.2686V22.0315V22.3345H32.9649H32.6627ZM34.1775 22.3345V22.0315V21.7286H34.4797H34.7835V22.0315V22.3345H34.4797H34.1775ZM32.6627 21.9558V21.6528V21.3498H32.9649H33.2686V21.6528V21.9558H32.9649H32.6627ZM34.1775 21.9558V21.6528V21.3498H34.4797H34.7835V21.6528V21.9558H34.4797H34.1775ZM32.6627 21.5771V21.2741V20.9711H32.9649H33.2686V21.2741V21.5771H32.9649H32.6627ZM34.1775 21.5771V21.2741V20.9711H34.4797H34.7835V21.2741V21.5771H34.4797H34.1775ZM32.6627 21.1983V20.8954V20.5924H32.9649H33.2686V20.8954V21.1983H32.9649H32.6627ZM34.1775 21.1983V20.8954V20.5924H34.4797H34.7835V20.8954V21.1983H34.4797H34.1775ZM32.6627 20.8196V20.5167V20.2137H32.9649H33.2686V20.5167V20.8196H32.9649H32.6627ZM34.1775 20.8196V20.5167V20.2137H34.4797H34.7835V20.5167V20.8196H34.4797H34.1775ZM32.6627 20.4409V20.1379V19.835H32.9649H33.2686V20.1379V20.4409H32.9649H32.6627ZM34.1775 20.4409V20.1379V19.835H34.4797H34.7835V20.1379V20.4409H34.4797H34.1775ZM32.6627 20.0622V19.7592V19.4562H32.9649H33.2686V19.7592V20.0622H32.9649H32.6627ZM34.1775 20.0622V19.7592V19.4562H34.4797H34.7835V19.7592V20.0622H34.4797H34.1775ZM32.6627 19.6835V19.3805V19.0775H32.9649H33.2686V19.3805V19.6835H32.9649H32.6627ZM34.1775 19.6835V19.3805V19.0775H34.4797H34.7835V19.3805V19.6835H34.4797H34.1775ZM33.0414 19.3048V19.0018V18.6988H33.3436H33.6473V19.0018V19.3048H33.3436H33.0414ZM33.4201 19.3048V19.0018V18.6988H33.7223H34.0261V19.0018V19.3048H33.7223H33.4201ZM33.7988 19.3048V19.0018V18.6988H34.101H34.4048V19.0018V19.3048H34.101H33.7988ZM33.4201 21.5771V21.2741V20.9711H33.7223H34.0261V21.2741V21.5771H33.7223H33.4201ZM33.4201 21.1983V20.8954V20.5924H33.7223H34.0261V20.8954V21.1983H33.7223H33.4201ZM33.4201 20.8196V20.5167V20.2137H33.7223H34.0261V20.5167V20.8196H33.7223H33.4201Z" fill="#6944CB"/>
<path d="M40.2489 23.0919V22.789V22.486H40.5511H40.8549V22.789V23.0919H40.5511H40.2489ZM40.6276 23.0919V22.789V22.486H40.9298H41.2336V22.789V23.0919H40.9298H40.6276ZM41.0063 23.0919V22.789V22.486H41.3085H41.6123V22.789V23.0919H41.3085H41.0063ZM39.8702 22.7132V22.4102V22.1073H40.1724H40.4761V22.4102V22.7132H40.1724H39.8702ZM41.3851 22.7132V22.4102V22.1073H41.6872H41.991V22.4102V22.7132H41.6872H41.3851ZM39.8702 22.3345V22.0315V21.7286H40.1724H40.4761V22.0315V22.3345H40.1724H39.8702ZM41.3851 22.3345V22.0315V21.7286H41.6872H41.991V22.0315V22.3345H41.6872H41.3851ZM39.8702 21.9558V21.6528V21.3498H40.1724H40.4761V21.6528V21.9558H40.1724H39.8702ZM41.3851 21.9558V21.6528V21.3498H41.6872H41.991V21.6528V21.9558H41.6872H41.3851ZM39.8702 21.5771V21.2741V20.9711H40.1724H40.4761V21.2741V21.5771H40.1724H39.8702ZM41.3851 21.5771V21.2741V20.9711H41.6872H41.991V21.2741V21.5771H41.6872H41.3851ZM39.8702 21.1983V20.8954V20.5924H40.1724H40.4761V20.8954V21.1983H40.1724H39.8702ZM41.3851 21.1983V20.8954V20.5924H41.6872H41.991V20.8954V21.1983H41.6872H41.3851ZM39.8702 20.8196V20.5167V20.2137H40.1724H40.4761V20.5167V20.8196H40.1724H39.8702ZM41.3851 20.8196V20.5167V20.2137H41.6872H41.991V20.5167V20.8196H41.6872H41.3851ZM39.8702 20.4409V20.1379V19.835H40.1724H40.4761V20.1379V20.4409H40.1724H39.8702ZM41.3851 20.4409V20.1379V19.835H41.6872H41.991V20.1379V20.4409H41.6872H41.3851ZM39.8702 20.0622V19.7592V19.4562H40.1724H40.4761V19.7592V20.0622H40.1724H39.8702ZM41.3851 20.0622V19.7592V19.4562H41.6872H41.991V19.7592V20.0622H41.6872H41.3851ZM39.8702 19.6835V19.3805V19.0775H40.1724H40.4761V19.3805V19.6835H40.1724H39.8702ZM41.3851 19.6835V19.3805V19.0775H41.6872H41.991V19.3805V19.6835H41.6872H41.3851ZM40.2489 19.3048V19.0018V18.6988H40.5511H40.8549V19.0018V19.3048H40.5511H40.2489ZM40.6276 19.3048V19.0018V18.6988H40.9298H41.2336V19.0018V19.3048H40.9298H40.6276ZM41.0063 19.3048V19.0018V18.6988H41.3085H41.6123V19.0018V19.3048H41.3085H41.0063ZM40.6276 21.5771V21.2741V20.9711H40.9298H41.2336V21.2741V21.5771H40.9298H40.6276ZM40.6276 21.1983V20.8954V20.5924H40.9298H41.2336V20.8954V21.1983H40.9298H40.6276ZM40.6276 20.8196V20.5167V20.2137H40.9298H41.2336V20.5167V20.8196H40.9298H40.6276Z" fill="#6944CB"/>
<path d="M47.0777 23.0919V22.789V22.486H47.3799H47.6837V22.789V23.0919H47.3799H47.0777ZM47.4564 23.0919V22.789V22.486H47.7586H48.0624V22.789V23.0919H47.7586H47.4564ZM47.8351 23.0919V22.789V22.486H48.1373H48.4411V22.789V23.0919H48.1373H47.8351ZM48.2139 23.0919V22.789V22.486H48.5161H48.8198V22.789V23.0919H48.5161H48.2139ZM48.5926 23.0919V22.789V22.486H48.8948H49.1985V22.789V23.0919H48.8948H48.5926ZM47.8351 22.7132V22.4102V22.1073H48.1373H48.4411V22.4102V22.7132H48.1373H47.8351ZM47.8351 22.3345V22.0315V21.7286H48.1373H48.4411V22.0315V22.3345H48.1373H47.8351ZM47.8351 21.9558V21.6528V21.3498H48.1373H48.4411V21.6528V21.9558H48.1373H47.8351ZM47.8351 21.5771V21.2741V20.9711H48.1373H48.4411V21.2741V21.5771H48.1373H47.8351ZM47.8351 21.1983V20.8954V20.5924H48.1373H48.4411V20.8954V21.1983H48.1373H47.8351ZM47.8351 20.8196V20.5167V20.2137H48.1373H48.4411V20.5167V20.8196H48.1373H47.8351ZM47.8351 20.4409V20.1379V19.835H48.1373H48.4411V20.1379V20.4409H48.1373H47.8351ZM47.8351 20.0622V19.7592V19.4562H48.1373H48.4411V19.7592V20.0622H48.1373H47.8351ZM47.0777 19.6835V19.3805V19.0775H47.3799H47.6837V19.3805V19.6835H47.3799H47.0777ZM47.8351 19.6835V19.3805V19.0775H48.1373H48.4411V19.3805V19.6835H48.1373H47.8351ZM47.4564 19.4941V19.1911V18.8882H47.7586H48.0624V19.1911V19.4941H47.7586H47.4564ZM47.8351 19.3048V19.0018V18.6988H48.1373H48.4411V19.0018V19.3048H48.1373H47.8351ZM50.1097 23.0919V22.789V22.486H50.4119H50.7156V22.789V23.0919H50.4119H50.1097ZM50.4884 23.0919V22.789V22.486H50.7906H51.0943V22.789V23.0919H50.7906H50.4884ZM50.8671 23.0919V22.789V22.486H51.1693H51.4731V22.789V23.0919H51.1693H50.8671ZM49.731 22.7132V22.4102V22.1073H50.0331H50.3369V22.4102V22.7132H50.0331H49.731ZM51.2458 22.7132V22.4102V22.1073H51.548H51.8518V22.4102V22.7132H51.548H51.2458ZM49.731 22.3345V22.0315V21.7286H50.0331H50.3369V22.0315V22.3345H50.0331H49.731ZM51.2458 22.3345V22.0315V21.7286H51.548H51.8518V22.0315V22.3345H51.548H51.2458ZM49.731 21.9558V21.6528V21.3498H50.0331H50.3369V21.6528V21.9558H50.0331H49.731ZM51.2458 21.9558V21.6528V21.3498H51.548H51.8518V21.6528V21.9558H51.548H51.2458ZM49.731 21.5771V21.2741V20.9711H50.0331H50.3369V21.2741V21.5771H50.0331H49.731ZM51.2458 21.5771V21.2741V20.9711H51.548H51.8518V21.2741V21.5771H51.548H51.2458ZM49.731 21.1983V20.8954V20.5924H50.0331H50.3369V20.8954V21.1983H50.0331H49.731ZM51.2458 21.1983V20.8954V20.5924H51.548H51.8518V20.8954V21.1983H51.548H51.2458ZM49.731 20.8196V20.5167V20.2137H50.0331H50.3369V20.5167V20.8196H50.0331H49.731ZM51.2458 20.8196V20.5167V20.2137H51.548H51.8518V20.5167V20.8196H51.548H51.2458ZM49.731 20.4409V20.1379V19.835H50.0331H50.3369V20.1379V20.4409H50.0331H49.731ZM51.2458 20.4409V20.1379V19.835H51.548H51.8518V20.1379V20.4409H51.548H51.2458ZM49.731 20.0622V19.7592V19.4562H50.0331H50.3369V19.7592V20.0622H50.0331H49.731ZM51.2458 20.0622V19.7592V19.4562H51.548H51.8518V19.7592V20.0622H51.548H51.2458ZM49.731 19.6835V19.3805V19.0775H50.0331H50.3369V19.3805V19.6835H50.0331H49.731ZM51.2458 19.6835V19.3805V19.0775H51.548H51.8518V19.3805V19.6835H51.548H51.2458ZM50.1097 19.3048V19.0018V18.6988H50.4119H50.7156V19.0018V19.3048H50.4119H50.1097ZM50.4884 19.3048V19.0018V18.6988H50.7906H51.0943V19.0018V19.3048H50.7906H50.4884ZM50.8671 19.3048V19.0018V18.6988H51.1693H51.4731V19.0018V19.3048H51.1693H50.8671ZM50.4884 21.5771V21.2741V20.9711H50.7906H51.0943V21.2741V21.5771H50.7906H50.4884ZM50.4884 21.1983V20.8954V20.5924H50.7906H51.0943V20.8954V21.1983H50.7906H50.4884ZM50.4884 20.8196V20.5167V20.2137H50.7906H51.0943V20.5167V20.8196H50.7906H50.4884Z" fill="#6944CB"/>
<path d="M16.5228 32.0811V31.7781V31.4752H16.825H17.1288V31.7781V32.0811H16.825H16.5228ZM16.9016 32.0811V31.7781V31.4752H17.2037H17.5075V31.7781V32.0811H17.2037H16.9016ZM17.2803 32.0811V31.7781V31.4752H17.5825H17.8862V31.7781V32.0811H17.5825H17.2803ZM16.1441 31.7024V31.3994V31.0964H16.4463H16.7501V31.3994V31.7024H16.4463H16.1441ZM17.659 31.7024V31.3994V31.0964H17.9612H18.2649V31.3994V31.7024H17.9612H17.659ZM16.1441 31.3237V31.0207V30.7177H16.4463H16.7501V31.0207V31.3237H16.4463H16.1441ZM17.659 31.3237V31.0207V30.7177H17.9612H18.2649V31.0207V31.3237H17.9612H17.659ZM16.1441 30.9449V30.642V30.339H16.4463H16.7501V30.642V30.9449H16.4463H16.1441ZM17.659 30.9449V30.642V30.339H17.9612H18.2649V30.642V30.9449H17.9612H17.659ZM16.1441 30.5662V30.2633V29.9603H16.4463H16.7501V30.2633V30.5662H16.4463H16.1441ZM17.659 30.5662V30.2633V29.9603H17.9612H18.2649V30.2633V30.5662H17.9612H17.659ZM16.1441 30.1875V29.8845V29.5816H16.4463H16.7501V29.8845V30.1875H16.4463H16.1441ZM17.659 30.1875V29.8845V29.5816H17.9612H18.2649V29.8845V30.1875H17.9612H17.659ZM16.1441 29.8088V29.5058V29.2028H16.4463H16.7501V29.5058V29.8088H16.4463H16.1441ZM17.659 29.8088V29.5058V29.2028H17.9612H18.2649V29.5058V29.8088H17.9612H17.659ZM16.1441 29.4301V29.1271V28.8241H16.4463H16.7501V29.1271V29.4301H16.4463H16.1441ZM17.659 29.4301V29.1271V28.8241H17.9612H18.2649V29.1271V29.4301H17.9612H17.659ZM16.1441 29.0514V28.7484V28.4454H16.4463H16.7501V28.7484V29.0514H16.4463H16.1441ZM17.659 29.0514V28.7484V28.4454H17.9612H18.2649V28.7484V29.0514H17.9612H17.659ZM16.1441 28.6726V28.3697V28.0667H16.4463H16.7501V28.3697V28.6726H16.4463H16.1441ZM17.659 28.6726V28.3697V28.0667H17.9612H18.2649V28.3697V28.6726H17.9612H17.659ZM16.5228 28.2939V27.991V27.688H16.825H17.1288V27.991V28.2939H16.825H16.5228ZM16.9016 28.2939V27.991V27.688H17.2037H17.5075V27.991V28.2939H17.2037H16.9016ZM17.2803 28.2939V27.991V27.688H17.5825H17.8862V27.991V28.2939H17.5825H17.2803ZM16.9016 30.5662V30.2633V29.9603H17.2037H17.5075V30.2633V30.5662H17.2037H16.9016ZM16.9016 30.1875V29.8845V29.5816H17.2037H17.5075V29.8845V30.1875H17.2037H16.9016ZM16.9016 29.8088V29.5058V29.2028H17.2037H17.5075V29.5058V29.8088H17.2037H16.9016Z" fill="#6944CB"/>
<path d="M23.7304 32.0811V31.7781V31.4752H24.0325H24.3363V31.7781V32.0811H24.0325H23.7304ZM24.1091 32.0811V31.7781V31.4752H24.4113H24.715V31.7781V32.0811H24.4113H24.1091ZM24.4878 32.0811V31.7781V31.4752H24.79H25.0937V31.7781V32.0811H24.79H24.4878ZM23.3516 31.7024V31.3994V31.0964H23.6538H23.9576V31.3994V31.7024H23.6538H23.3516ZM24.8665 31.7024V31.3994V31.0964H25.1687H25.4725V31.3994V31.7024H25.1687H24.8665ZM23.3516 31.3237V31.0207V30.7177H23.6538H23.9576V31.0207V31.3237H23.6538H23.3516ZM24.8665 31.3237V31.0207V30.7177H25.1687H25.4725V31.0207V31.3237H25.1687H24.8665ZM23.3516 30.9449V30.642V30.339H23.6538H23.9576V30.642V30.9449H23.6538H23.3516ZM24.8665 30.9449V30.642V30.339H25.1687H25.4725V30.642V30.9449H25.1687H24.8665ZM23.3516 30.5662V30.2633V29.9603H23.6538H23.9576V30.2633V30.5662H23.6538H23.3516ZM24.8665 30.5662V30.2633V29.9603H25.1687H25.4725V30.2633V30.5662H25.1687H24.8665ZM23.3516 30.1875V29.8845V29.5816H23.6538H23.9576V29.8845V30.1875H23.6538H23.3516ZM24.8665 30.1875V29.8845V29.5816H25.1687H25.4725V29.8845V30.1875H25.1687H24.8665ZM23.3516 29.8088V29.5058V29.2028H23.6538H23.9576V29.5058V29.8088H23.6538H23.3516ZM24.8665 29.8088V29.5058V29.2028H25.1687H25.4725V29.5058V29.8088H25.1687H24.8665ZM23.3516 29.4301V29.1271V28.8241H23.6538H23.9576V29.1271V29.4301H23.6538H23.3516ZM24.8665 29.4301V29.1271V28.8241H25.1687H25.4725V29.1271V29.4301H25.1687H24.8665ZM23.3516 29.0514V28.7484V28.4454H23.6538H23.9576V28.7484V29.0514H23.6538H23.3516ZM24.8665 29.0514V28.7484V28.4454H25.1687H25.4725V28.7484V29.0514H25.1687H24.8665ZM23.3516 28.6726V28.3697V28.0667H23.6538H23.9576V28.3697V28.6726H23.6538H23.3516ZM24.8665 28.6726V28.3697V28.0667H25.1687H25.4725V28.3697V28.6726H25.1687H24.8665ZM23.7304 28.2939V27.991V27.688H24.0325H24.3363V27.991V28.2939H24.0325H23.7304ZM24.1091 28.2939V27.991V27.688H24.4113H24.715V27.991V28.2939H24.4113H24.1091ZM24.4878 28.2939V27.991V27.688H24.79H25.0937V27.991V28.2939H24.79H24.4878ZM24.1091 30.5662V30.2633V29.9603H24.4113H24.715V30.2633V30.5662H24.4113H24.1091ZM24.1091 30.1875V29.8845V29.5816H24.4113H24.715V29.8845V30.1875H24.4113H24.1091ZM24.1091 29.8088V29.5058V29.2028H24.4113H24.715V29.5058V29.8088H24.4113H24.1091Z" fill="#6944CB"/>
<path d="M30.9379 32.0811V31.7781V31.4752H31.2401H31.5438V31.7781V32.0811H31.2401H30.9379ZM31.3166 32.0811V31.7781V31.4752H31.6188H31.9225V31.7781V32.0811H31.6188H31.3166ZM31.6953 32.0811V31.7781V31.4752H31.9975H32.3013V31.7781V32.0811H31.9975H31.6953ZM30.5592 31.7024V31.3994V31.0964H30.8613H31.1651V31.3994V31.7024H30.8613H30.5592ZM32.074 31.7024V31.3994V31.0964H32.3762H32.68V31.3994V31.7024H32.3762H32.074ZM30.5592 31.3237V31.0207V30.7177H30.8613H31.1651V31.0207V31.3237H30.8613H30.5592ZM32.074 31.3237V31.0207V30.7177H32.3762H32.68V31.0207V31.3237H32.3762H32.074ZM30.5592 30.9449V30.642V30.339H30.8613H31.1651V30.642V30.9449H30.8613H30.5592ZM32.074 30.9449V30.642V30.339H32.3762H32.68V30.642V30.9449H32.3762H32.074ZM30.5592 30.5662V30.2633V29.9603H30.8613H31.1651V30.2633V30.5662H30.8613H30.5592ZM32.074 30.5662V30.2633V29.9603H32.3762H32.68V30.2633V30.5662H32.3762H32.074ZM30.5592 30.1875V29.8845V29.5816H30.8613H31.1651V29.8845V30.1875H30.8613H30.5592ZM32.074 30.1875V29.8845V29.5816H32.3762H32.68V29.8845V30.1875H32.3762H32.074ZM30.5592 29.8088V29.5058V29.2028H30.8613H31.1651V29.5058V29.8088H30.8613H30.5592ZM32.074 29.8088V29.5058V29.2028H32.3762H32.68V29.5058V29.8088H32.3762H32.074ZM30.5592 29.4301V29.1271V28.8241H30.8613H31.1651V29.1271V29.4301H30.8613H30.5592ZM32.074 29.4301V29.1271V28.8241H32.3762H32.68V29.1271V29.4301H32.3762H32.074ZM30.5592 29.0514V28.7484V28.4454H30.8613H31.1651V28.7484V29.0514H30.8613H30.5592ZM32.074 29.0514V28.7484V28.4454H32.3762H32.68V28.7484V29.0514H32.3762H32.074ZM30.5592 28.6726V28.3697V28.0667H30.8613H31.1651V28.3697V28.6726H30.8613H30.5592ZM32.074 28.6726V28.3697V28.0667H32.3762H32.68V28.3697V28.6726H32.3762H32.074ZM30.9379 28.2939V27.991V27.688H31.2401H31.5438V27.991V28.2939H31.2401H30.9379ZM31.3166 28.2939V27.991V27.688H31.6188H31.9225V27.991V28.2939H31.6188H31.3166ZM31.6953 28.2939V27.991V27.688H31.9975H32.3013V27.991V28.2939H31.9975H31.6953ZM31.3166 30.5662V30.2633V29.9603H31.6188H31.9225V30.2633V30.5662H31.6188H31.3166ZM31.3166 30.1875V29.8845V29.5816H31.6188H31.9225V29.8845V30.1875H31.6188H31.3166ZM31.3166 29.8088V29.5058V29.2028H31.6188H31.9225V29.5058V29.8088H31.6188H31.3166Z" fill="#6944CB"/>
<path d="M37.7667 32.0811V31.7781V31.4752H38.0689H38.3726V31.7781V32.0811H38.0689H37.7667ZM38.1454 32.0811V31.7781V31.4752H38.4476H38.7513V31.7781V32.0811H38.4476H38.1454ZM38.5241 32.0811V31.7781V31.4752H38.8263H39.1301V31.7781V32.0811H38.8263H38.5241ZM38.9028 32.0811V31.7781V31.4752H39.205H39.5088V31.7781V32.0811H39.205H38.9028ZM39.2815 32.0811V31.7781V31.4752H39.5837H39.8875V31.7781V32.0811H39.5837H39.2815ZM38.5241 31.7024V31.3994V31.0964H38.8263H39.1301V31.3994V31.7024H38.8263H38.5241ZM38.5241 31.3237V31.0207V30.7177H38.8263H39.1301V31.0207V31.3237H38.8263H38.5241ZM38.5241 30.9449V30.642V30.339H38.8263H39.1301V30.642V30.9449H38.8263H38.5241ZM38.5241 30.5662V30.2633V29.9603H38.8263H39.1301V30.2633V30.5662H38.8263H38.5241ZM38.5241 30.1875V29.8845V29.5816H38.8263H39.1301V29.8845V30.1875H38.8263H38.5241ZM38.5241 29.8088V29.5058V29.2028H38.8263H39.1301V29.5058V29.8088H38.8263H38.5241ZM38.5241 29.4301V29.1271V28.8241H38.8263H39.1301V29.1271V29.4301H38.8263H38.5241ZM38.5241 29.0514V28.7484V28.4454H38.8263H39.1301V28.7484V29.0514H38.8263H38.5241ZM37.7667 28.6726V28.3697V28.0667H38.0689H38.3726V28.3697V28.6726H38.0689H37.7667ZM38.5241 28.6726V28.3697V28.0667H38.8263H39.1301V28.3697V28.6726H38.8263H38.5241ZM38.1454 28.4833V28.1803V27.8773H38.4476H38.7513V28.1803V28.4833H38.4476H38.1454ZM38.5241 28.2939V27.991V27.688H38.8263H39.1301V27.991V28.2939H38.8263H38.5241Z" fill="#6944CB"/>
<path d="M44.9742 32.0811V31.7781V31.4752H45.2764H45.5801V31.7781V32.0811H45.2764H44.9742ZM45.3529 32.0811V31.7781V31.4752H45.6551H45.9589V31.7781V32.0811H45.6551H45.3529ZM45.7316 32.0811V31.7781V31.4752H46.0338H46.3376V31.7781V32.0811H46.0338H45.7316ZM46.1104 32.0811V31.7781V31.4752H46.4125H46.7163V31.7781V32.0811H46.4125H46.1104ZM46.4891 32.0811V31.7781V31.4752H46.7913H47.095V31.7781V32.0811H46.7913H46.4891ZM45.7316 31.7024V31.3994V31.0964H46.0338H46.3376V31.3994V31.7024H46.0338H45.7316ZM45.7316 31.3237V31.0207V30.7177H46.0338H46.3376V31.0207V31.3237H46.0338H45.7316ZM45.7316 30.9449V30.642V30.339H46.0338H46.3376V30.642V30.9449H46.0338H45.7316ZM45.7316 30.5662V30.2633V29.9603H46.0338H46.3376V30.2633V30.5662H46.0338H45.7316ZM45.7316 30.1875V29.8845V29.5816H46.0338H46.3376V29.8845V30.1875H46.0338H45.7316ZM45.7316 29.8088V29.5058V29.2028H46.0338H46.3376V29.5058V29.8088H46.0338H45.7316ZM45.7316 29.4301V29.1271V28.8241H46.0338H46.3376V29.1271V29.4301H46.0338H45.7316ZM45.7316 29.0514V28.7484V28.4454H46.0338H46.3376V28.7484V29.0514H46.0338H45.7316ZM44.9742 28.6726V28.3697V28.0667H45.2764H45.5801V28.3697V28.6726H45.2764H44.9742ZM45.7316 28.6726V28.3697V28.0667H46.0338H46.3376V28.3697V28.6726H46.0338H45.7316ZM45.3529 28.4833V28.1803V27.8773H45.6551H45.9589V28.1803V28.4833H45.6551H45.3529ZM45.7316 28.2939V27.991V27.688H46.0338H46.3376V27.991V28.2939H46.0338H45.7316Z" fill="#6944CB"/>
<path d="M52.1812 32.0811V31.7781V31.4752H52.4834H52.7872V31.7781V32.0811H52.4834H52.1812ZM52.5599 32.0811V31.7781V31.4752H52.8621H53.1659V31.7781V32.0811H52.8621H52.5599ZM52.9387 32.0811V31.7781V31.4752H53.2408H53.5446V31.7781V32.0811H53.2408H52.9387ZM53.3174 32.0811V31.7781V31.4752H53.6196H53.9233V31.7781V32.0811H53.6196H53.3174ZM53.6961 32.0811V31.7781V31.4752H53.9983H54.302V31.7781V32.0811H53.9983H53.6961ZM52.9387 31.7024V31.3994V31.0964H53.2408H53.5446V31.3994V31.7024H53.2408H52.9387ZM52.9387 31.3237V31.0207V30.7177H53.2408H53.5446V31.0207V31.3237H53.2408H52.9387ZM52.9387 30.9449V30.642V30.339H53.2408H53.5446V30.642V30.9449H53.2408H52.9387ZM52.9387 30.5662V30.2633V29.9603H53.2408H53.5446V30.2633V30.5662H53.2408H52.9387ZM52.9387 30.1875V29.8845V29.5816H53.2408H53.5446V29.8845V30.1875H53.2408H52.9387ZM52.9387 29.8088V29.5058V29.2028H53.2408H53.5446V29.5058V29.8088H53.2408H52.9387ZM52.9387 29.4301V29.1271V28.8241H53.2408H53.5446V29.1271V29.4301H53.2408H52.9387ZM52.9387 29.0514V28.7484V28.4454H53.2408H53.5446V28.7484V29.0514H53.2408H52.9387ZM52.1812 28.6726V28.3697V28.0667H52.4834H52.7872V28.3697V28.6726H52.4834H52.1812ZM52.9387 28.6726V28.3697V28.0667H53.2408H53.5446V28.3697V28.6726H53.2408H52.9387ZM52.5599 28.4833V28.1803V27.8773H52.8621H53.1659V28.1803V28.4833H52.8621H52.5599ZM52.9387 28.2939V27.991V27.688H53.2408H53.5446V27.991V28.2939H53.2408H52.9387Z" fill="#6944CB"/>
<path d="M59.3888 32.0811V31.7781V31.4752H59.6909H59.9947V31.7781V32.0811H59.6909H59.3888ZM59.7675 32.0811V31.7781V31.4752H60.0697H60.3734V31.7781V32.0811H60.0697H59.7675ZM60.1462 32.0811V31.7781V31.4752H60.4484H60.7521V31.7781V32.0811H60.4484H60.1462ZM60.5249 32.0811V31.7781V31.4752H60.8271H61.1308V31.7781V32.0811H60.8271H60.5249ZM60.9036 32.0811V31.7781V31.4752H61.2058H61.5096V31.7781V32.0811H61.2058H60.9036ZM60.1462 31.7024V31.3994V31.0964H60.4484H60.7521V31.3994V31.7024H60.4484H60.1462ZM60.1462 31.3237V31.0207V30.7177H60.4484H60.7521V31.0207V31.3237H60.4484H60.1462ZM60.1462 30.9449V30.642V30.339H60.4484H60.7521V30.642V30.9449H60.4484H60.1462ZM60.1462 30.5662V30.2633V29.9603H60.4484H60.7521V30.2633V30.5662H60.4484H60.1462ZM60.1462 30.1875V29.8845V29.5816H60.4484H60.7521V29.8845V30.1875H60.4484H60.1462ZM60.1462 29.8088V29.5058V29.2028H60.4484H60.7521V29.5058V29.8088H60.4484H60.1462ZM60.1462 29.4301V29.1271V28.8241H60.4484H60.7521V29.1271V29.4301H60.4484H60.1462ZM60.1462 29.0514V28.7484V28.4454H60.4484H60.7521V28.7484V29.0514H60.4484H60.1462ZM59.3888 28.6726V28.3697V28.0667H59.6909H59.9947V28.3697V28.6726H59.6909H59.3888ZM60.1462 28.6726V28.3697V28.0667H60.4484H60.7521V28.3697V28.6726H60.4484H60.1462ZM59.7675 28.4833V28.1803V27.8773H60.0697H60.3734V28.1803V28.4833H60.0697H59.7675ZM60.1462 28.2939V27.991V27.688H60.4484H60.7521V27.991V28.2939H60.4484H60.1462Z" fill="#6944CB"/>
<path d="M8.9366 41.0702V40.7673V40.4643H9.23879H9.54255V40.7673V41.0702H9.23879H8.9366ZM9.31532 41.0702V40.7673V40.4643H9.6175H9.92127V40.7673V41.0702H9.6175H9.31532ZM9.69404 41.0702V40.7673V40.4643H9.99622H10.3V40.7673V41.0702H9.99622H9.69404ZM10.0728 41.0702V40.7673V40.4643H10.3749H10.6787V40.7673V41.0702H10.3749H10.0728ZM10.4515 41.0702V40.7673V40.4643H10.7537H11.0574V40.7673V41.0702H10.7537H10.4515ZM9.69404 40.6915V40.3886V40.0856H9.99622H10.3V40.3886V40.6915H9.99622H9.69404ZM9.69404 40.3128V40.0098V39.7069H9.99622H10.3V40.0098V40.3128H9.99622H9.69404ZM9.69404 39.9341V39.6311V39.3282H9.99622H10.3V39.6311V39.9341H9.99622H9.69404ZM9.69404 39.5554V39.2524V38.9494H9.99622H10.3V39.2524V39.5554H9.99622H9.69404ZM9.69404 39.1767V38.8737V38.5707H9.99622H10.3V38.8737V39.1767H9.99622H9.69404ZM9.69404 38.7979V38.495V38.192H9.99622H10.3V38.495V38.7979H9.99622H9.69404ZM9.69404 38.4192V38.1163V37.8133H9.99622H10.3V38.1163V38.4192H9.99622H9.69404ZM9.69404 38.0405V37.7375V37.4346H9.99622H10.3V37.7375V38.0405H9.99622H9.69404ZM8.9366 37.6618V37.3588V37.0558H9.23879H9.54255V37.3588V37.6618H9.23879H8.9366ZM9.69404 37.6618V37.3588V37.0558H9.99622H10.3V37.3588V37.6618H9.99622H9.69404ZM9.31532 37.4724V37.1695V36.8665H9.6175H9.92127V37.1695V37.4724H9.6175H9.31532ZM9.69404 37.2831V36.9801V36.6771H9.99622H10.3V36.9801V37.2831H9.99622H9.69404Z" fill="#6944CB"/>
<path d="M16.5228 41.0702V40.7673V40.4643H16.825H17.1288V40.7673V41.0702H16.825H16.5228ZM16.9016 41.0702V40.7673V40.4643H17.2037H17.5075V40.7673V41.0702H17.2037H16.9016ZM17.2803 41.0702V40.7673V40.4643H17.5825H17.8862V40.7673V41.0702H17.5825H17.2803ZM16.1441 40.6915V40.3886V40.0856H16.4463H16.7501V40.3886V40.6915H16.4463H16.1441ZM17.659 40.6915V40.3886V40.0856H17.9612H18.2649V40.3886V40.6915H17.9612H17.659ZM16.1441 40.3128V40.0098V39.7069H16.4463H16.7501V40.0098V40.3128H16.4463H16.1441ZM17.659 40.3128V40.0098V39.7069H17.9612H18.2649V40.0098V40.3128H17.9612H17.659ZM16.1441 39.9341V39.6311V39.3282H16.4463H16.7501V39.6311V39.9341H16.4463H16.1441ZM17.659 39.9341V39.6311V39.3282H17.9612H18.2649V39.6311V39.9341H17.9612H17.659ZM16.1441 39.5554V39.2524V38.9494H16.4463H16.7501V39.2524V39.5554H16.4463H16.1441ZM17.659 39.5554V39.2524V38.9494H17.9612H18.2649V39.2524V39.5554H17.9612H17.659ZM16.1441 39.1767V38.8737V38.5707H16.4463H16.7501V38.8737V39.1767H16.4463H16.1441ZM17.659 39.1767V38.8737V38.5707H17.9612H18.2649V38.8737V39.1767H17.9612H17.659ZM16.1441 38.7979V38.495V38.192H16.4463H16.7501V38.495V38.7979H16.4463H16.1441ZM17.659 38.7979V38.495V38.192H17.9612H18.2649V38.495V38.7979H17.9612H17.659ZM16.1441 38.4192V38.1163V37.8133H16.4463H16.7501V38.1163V38.4192H16.4463H16.1441ZM17.659 38.4192V38.1163V37.8133H17.9612H18.2649V38.1163V38.4192H17.9612H17.659ZM16.1441 38.0405V37.7375V37.4346H16.4463H16.7501V37.7375V38.0405H16.4463H16.1441ZM17.659 38.0405V37.7375V37.4346H17.9612H18.2649V37.7375V38.0405H17.9612H17.659ZM16.1441 37.6618V37.3588V37.0558H16.4463H16.7501V37.3588V37.6618H16.4463H16.1441ZM17.659 37.6618V37.3588V37.0558H17.9612H18.2649V37.3588V37.6618H17.9612H17.659ZM16.5228 37.2831V36.9801V36.6771H16.825H17.1288V36.9801V37.2831H16.825H16.5228ZM16.9016 37.2831V36.9801V36.6771H17.2037H17.5075V36.9801V37.2831H17.2037H16.9016ZM17.2803 37.2831V36.9801V36.6771H17.5825H17.8862V36.9801V37.2831H17.5825H17.2803ZM16.9016 39.5554V39.2524V38.9494H17.2037H17.5075V39.2524V39.5554H17.2037H16.9016ZM16.9016 39.1767V38.8737V38.5707H17.2037H17.5075V38.8737V39.1767H17.2037H16.9016ZM16.9016 38.7979V38.495V38.192H17.2037H17.5075V38.495V38.7979H17.2037H16.9016Z" fill="#6944CB"/>
<path d="M23.3516 41.0702V40.7673V40.4643H23.6538H23.9576V40.7673V41.0702H23.6538H23.3516ZM23.7304 41.0702V40.7673V40.4643H24.0325H24.3363V40.7673V41.0702H24.0325H23.7304ZM24.1091 41.0702V40.7673V40.4643H24.4113H24.715V40.7673V41.0702H24.4113H24.1091ZM24.4878 41.0702V40.7673V40.4643H24.79H25.0937V40.7673V41.0702H24.79H24.4878ZM24.8665 41.0702V40.7673V40.4643H25.1687H25.4725V40.7673V41.0702H25.1687H24.8665ZM24.1091 40.6915V40.3886V40.0856H24.4113H24.715V40.3886V40.6915H24.4113H24.1091ZM24.1091 40.3128V40.0098V39.7069H24.4113H24.715V40.0098V40.3128H24.4113H24.1091ZM24.1091 39.9341V39.6311V39.3282H24.4113H24.715V39.6311V39.9341H24.4113H24.1091ZM24.1091 39.5554V39.2524V38.9494H24.4113H24.715V39.2524V39.5554H24.4113H24.1091ZM24.1091 39.1767V38.8737V38.5707H24.4113H24.715V38.8737V39.1767H24.4113H24.1091ZM24.1091 38.7979V38.495V38.192H24.4113H24.715V38.495V38.7979H24.4113H24.1091ZM24.1091 38.4192V38.1163V37.8133H24.4113H24.715V38.1163V38.4192H24.4113H24.1091ZM24.1091 38.0405V37.7375V37.4346H24.4113H24.715V37.7375V38.0405H24.4113H24.1091ZM23.3516 37.6618V37.3588V37.0558H23.6538H23.9576V37.3588V37.6618H23.6538H23.3516ZM24.1091 37.6618V37.3588V37.0558H24.4113H24.715V37.3588V37.6618H24.4113H24.1091ZM23.7304 37.4724V37.1695V36.8665H24.0325H24.3363V37.1695V37.4724H24.0325H23.7304ZM24.1091 37.2831V36.9801V36.6771H24.4113H24.715V36.9801V37.2831H24.4113H24.1091Z" fill="#6944CB"/>
<path d="M30.9379 41.0702V40.7673V40.4643H31.2401H31.5438V40.7673V41.0702H31.2401H30.9379ZM31.3166 41.0702V40.7673V40.4643H31.6188H31.9225V40.7673V41.0702H31.6188H31.3166ZM31.6953 41.0702V40.7673V40.4643H31.9975H32.3013V40.7673V41.0702H31.9975H31.6953ZM30.5592 40.6915V40.3886V40.0856H30.8613H31.1651V40.3886V40.6915H30.8613H30.5592ZM32.074 40.6915V40.3886V40.0856H32.3762H32.68V40.3886V40.6915H32.3762H32.074ZM30.5592 40.3128V40.0098V39.7069H30.8613H31.1651V40.0098V40.3128H30.8613H30.5592ZM32.074 40.3128V40.0098V39.7069H32.3762H32.68V40.0098V40.3128H32.3762H32.074ZM30.5592 39.9341V39.6311V39.3282H30.8613H31.1651V39.6311V39.9341H30.8613H30.5592ZM32.074 39.9341V39.6311V39.3282H32.3762H32.68V39.6311V39.9341H32.3762H32.074ZM30.5592 39.5554V39.2524V38.9494H30.8613H31.1651V39.2524V39.5554H30.8613H30.5592ZM32.074 39.5554V39.2524V38.9494H32.3762H32.68V39.2524V39.5554H32.3762H32.074ZM30.5592 39.1767V38.8737V38.5707H30.8613H31.1651V38.8737V39.1767H30.8613H30.5592ZM32.074 39.1767V38.8737V38.5707H32.3762H32.68V38.8737V39.1767H32.3762H32.074ZM30.5592 38.7979V38.495V38.192H30.8613H31.1651V38.495V38.7979H30.8613H30.5592ZM32.074 38.7979V38.495V38.192H32.3762H32.68V38.495V38.7979H32.3762H32.074ZM30.5592 38.4192V38.1163V37.8133H30.8613H31.1651V38.1163V38.4192H30.8613H30.5592ZM32.074 38.4192V38.1163V37.8133H32.3762H32.68V38.1163V38.4192H32.3762H32.074ZM30.5592 38.0405V37.7375V37.4346H30.8613H31.1651V37.7375V38.0405H30.8613H30.5592ZM32.074 38.0405V37.7375V37.4346H32.3762H32.68V37.7375V38.0405H32.3762H32.074ZM30.5592 37.6618V37.3588V37.0558H30.8613H31.1651V37.3588V37.6618H30.8613H30.5592ZM32.074 37.6618V37.3588V37.0558H32.3762H32.68V37.3588V37.6618H32.3762H32.074ZM30.9379 37.2831V36.9801V36.6771H31.2401H31.5438V36.9801V37.2831H31.2401H30.9379ZM31.3166 37.2831V36.9801V36.6771H31.6188H31.9225V36.9801V37.2831H31.6188H31.3166ZM31.6953 37.2831V36.9801V36.6771H31.9975H32.3013V36.9801V37.2831H31.9975H31.6953ZM31.3166 39.5554V39.2524V38.9494H31.6188H31.9225V39.2524V39.5554H31.6188H31.3166ZM31.3166 39.1767V38.8737V38.5707H31.6188H31.9225V38.8737V39.1767H31.6188H31.3166ZM31.3166 38.7979V38.495V38.192H31.6188H31.9225V38.495V38.7979H31.6188H31.3166Z" fill="#6944CB"/>
<path d="M38.1454 41.0702V40.7673V40.4643H38.4476H38.7513V40.7673V41.0702H38.4476H38.1454ZM38.5241 41.0702V40.7673V40.4643H38.8263H39.1301V40.7673V41.0702H38.8263H38.5241ZM38.9028 41.0702V40.7673V40.4643H39.205H39.5088V40.7673V41.0702H39.205H38.9028ZM37.7667 40.6915V40.3886V40.0856H38.0689H38.3726V40.3886V40.6915H38.0689H37.7667ZM39.2815 40.6915V40.3886V40.0856H39.5837H39.8875V40.3886V40.6915H39.5837H39.2815ZM37.7667 40.3128V40.0098V39.7069H38.0689H38.3726V40.0098V40.3128H38.0689H37.7667ZM39.2815 40.3128V40.0098V39.7069H39.5837H39.8875V40.0098V40.3128H39.5837H39.2815ZM37.7667 39.9341V39.6311V39.3282H38.0689H38.3726V39.6311V39.9341H38.0689H37.7667ZM39.2815 39.9341V39.6311V39.3282H39.5837H39.8875V39.6311V39.9341H39.5837H39.2815ZM37.7667 39.5554V39.2524V38.9494H38.0689H38.3726V39.2524V39.5554H38.0689H37.7667ZM39.2815 39.5554V39.2524V38.9494H39.5837H39.8875V39.2524V39.5554H39.5837H39.2815ZM37.7667 39.1767V38.8737V38.5707H38.0689H38.3726V38.8737V39.1767H38.0689H37.7667ZM39.2815 39.1767V38.8737V38.5707H39.5837H39.8875V38.8737V39.1767H39.5837H39.2815ZM37.7667 38.7979V38.495V38.192H38.0689H38.3726V38.495V38.7979H38.0689H37.7667ZM39.2815 38.7979V38.495V38.192H39.5837H39.8875V38.495V38.7979H39.5837H39.2815ZM37.7667 38.4192V38.1163V37.8133H38.0689H38.3726V38.1163V38.4192H38.0689H37.7667ZM39.2815 38.4192V38.1163V37.8133H39.5837H39.8875V38.1163V38.4192H39.5837H39.2815ZM37.7667 38.0405V37.7375V37.4346H38.0689H38.3726V37.7375V38.0405H38.0689H37.7667ZM39.2815 38.0405V37.7375V37.4346H39.5837H39.8875V37.7375V38.0405H39.5837H39.2815ZM37.7667 37.6618V37.3588V37.0558H38.0689H38.3726V37.3588V37.6618H38.0689H37.7667ZM39.2815 37.6618V37.3588V37.0558H39.5837H39.8875V37.3588V37.6618H39.5837H39.2815ZM38.1454 37.2831V36.9801V36.6771H38.4476H38.7513V36.9801V37.2831H38.4476H38.1454ZM38.5241 37.2831V36.9801V36.6771H38.8263H39.1301V36.9801V37.2831H38.8263H38.5241ZM38.9028 37.2831V36.9801V36.6771H39.205H39.5088V36.9801V37.2831H39.205H38.9028ZM38.5241 39.5554V39.2524V38.9494H38.8263H39.1301V39.2524V39.5554H38.8263H38.5241ZM38.5241 39.1767V38.8737V38.5707H38.8263H39.1301V38.8737V39.1767H38.8263H38.5241ZM38.5241 38.7979V38.495V38.192H38.8263H39.1301V38.495V38.7979H38.8263H38.5241Z" fill="#6944CB"/>
<path d="M45.3524 41.0702V40.7673V40.4643H45.6546H45.9584V40.7673V41.0702H45.6546H45.3524ZM45.7311 41.0702V40.7673V40.4643H46.0333H46.3371V40.7673V41.0702H46.0333H45.7311ZM46.1099 41.0702V40.7673V40.4643H46.412H46.7158V40.7673V41.0702H46.412H46.1099ZM44.9737 40.6915V40.3886V40.0856H45.2759H45.5797V40.3886V40.6915H45.2759H44.9737ZM46.4886 40.6915V40.3886V40.0856H46.7908H47.0945V40.3886V40.6915H46.7908H46.4886ZM44.9737 40.3128V40.0098V39.7069H45.2759H45.5797V40.0098V40.3128H45.2759H44.9737ZM46.4886 40.3128V40.0098V39.7069H46.7908H47.0945V40.0098V40.3128H46.7908H46.4886ZM44.9737 39.9341V39.6311V39.3282H45.2759H45.5797V39.6311V39.9341H45.2759H44.9737ZM46.4886 39.9341V39.6311V39.3282H46.7908H47.0945V39.6311V39.9341H46.7908H46.4886ZM44.9737 39.5554V39.2524V38.9494H45.2759H45.5797V39.2524V39.5554H45.2759H44.9737ZM46.4886 39.5554V39.2524V38.9494H46.7908H47.0945V39.2524V39.5554H46.7908H46.4886ZM44.9737 39.1767V38.8737V38.5707H45.2759H45.5797V38.8737V39.1767H45.2759H44.9737ZM46.4886 39.1767V38.8737V38.5707H46.7908H47.0945V38.8737V39.1767H46.7908H46.4886ZM44.9737 38.7979V38.495V38.192H45.2759H45.5797V38.495V38.7979H45.2759H44.9737ZM46.4886 38.7979V38.495V38.192H46.7908H47.0945V38.495V38.7979H46.7908H46.4886ZM44.9737 38.4192V38.1163V37.8133H45.2759H45.5797V38.1163V38.4192H45.2759H44.9737ZM46.4886 38.4192V38.1163V37.8133H46.7908H47.0945V38.1163V38.4192H46.7908H46.4886ZM44.9737 38.0405V37.7375V37.4346H45.2759H45.5797V37.7375V38.0405H45.2759H44.9737ZM46.4886 38.0405V37.7375V37.4346H46.7908H47.0945V37.7375V38.0405H46.7908H46.4886ZM44.9737 37.6618V37.3588V37.0558H45.2759H45.5797V37.3588V37.6618H45.2759H44.9737ZM46.4886 37.6618V37.3588V37.0558H46.7908H47.0945V37.3588V37.6618H46.7908H46.4886ZM45.3524 37.2831V36.9801V36.6771H45.6546H45.9584V36.9801V37.2831H45.6546H45.3524ZM45.7311 37.2831V36.9801V36.6771H46.0333H46.3371V36.9801V37.2831H46.0333H45.7311ZM46.1099 37.2831V36.9801V36.6771H46.412H46.7158V36.9801V37.2831H46.412H46.1099ZM45.7311 39.5554V39.2524V38.9494H46.0333H46.3371V39.2524V39.5554H46.0333H45.7311ZM45.7311 39.1767V38.8737V38.5707H46.0333H46.3371V38.8737V39.1767H46.0333H45.7311ZM45.7311 38.7979V38.495V38.192H46.0333H46.3371V38.495V38.7979H46.0333H45.7311Z" fill="#6944CB"/>
<path d="M52.5599 41.0702V40.7673V40.4643H52.8621H53.1659V40.7673V41.0702H52.8621H52.5599ZM52.9387 41.0702V40.7673V40.4643H53.2408H53.5446V40.7673V41.0702H53.2408H52.9387ZM53.3174 41.0702V40.7673V40.4643H53.6196H53.9233V40.7673V41.0702H53.6196H53.3174ZM52.1812 40.6915V40.3886V40.0856H52.4834H52.7872V40.3886V40.6915H52.4834H52.1812ZM53.6961 40.6915V40.3886V40.0856H53.9983H54.302V40.3886V40.6915H53.9983H53.6961ZM52.1812 40.3128V40.0098V39.7069H52.4834H52.7872V40.0098V40.3128H52.4834H52.1812ZM53.6961 40.3128V40.0098V39.7069H53.9983H54.302V40.0098V40.3128H53.9983H53.6961ZM52.1812 39.9341V39.6311V39.3282H52.4834H52.7872V39.6311V39.9341H52.4834H52.1812ZM53.6961 39.9341V39.6311V39.3282H53.9983H54.302V39.6311V39.9341H53.9983H53.6961ZM52.1812 39.5554V39.2524V38.9494H52.4834H52.7872V39.2524V39.5554H52.4834H52.1812ZM53.6961 39.5554V39.2524V38.9494H53.9983H54.302V39.2524V39.5554H53.9983H53.6961ZM52.1812 39.1767V38.8737V38.5707H52.4834H52.7872V38.8737V39.1767H52.4834H52.1812ZM53.6961 39.1767V38.8737V38.5707H53.9983H54.302V38.8737V39.1767H53.9983H53.6961ZM52.1812 38.7979V38.495V38.192H52.4834H52.7872V38.495V38.7979H52.4834H52.1812ZM53.6961 38.7979V38.495V38.192H53.9983H54.302V38.495V38.7979H53.9983H53.6961ZM52.1812 38.4192V38.1163V37.8133H52.4834H52.7872V38.1163V38.4192H52.4834H52.1812ZM53.6961 38.4192V38.1163V37.8133H53.9983H54.302V38.1163V38.4192H53.9983H53.6961ZM52.1812 38.0405V37.7375V37.4346H52.4834H52.7872V37.7375V38.0405H52.4834H52.1812ZM53.6961 38.0405V37.7375V37.4346H53.9983H54.302V37.7375V38.0405H53.9983H53.6961ZM52.1812 37.6618V37.3588V37.0558H52.4834H52.7872V37.3588V37.6618H52.4834H52.1812ZM53.6961 37.6618V37.3588V37.0558H53.9983H54.302V37.3588V37.6618H53.9983H53.6961ZM52.5599 37.2831V36.9801V36.6771H52.8621H53.1659V36.9801V37.2831H52.8621H52.5599ZM52.9387 37.2831V36.9801V36.6771H53.2408H53.5446V36.9801V37.2831H53.2408H52.9387ZM53.3174 37.2831V36.9801V36.6771H53.6196H53.9233V36.9801V37.2831H53.6196H53.3174ZM52.9387 39.5554V39.2524V38.9494H53.2408H53.5446V39.2524V39.5554H53.2408H52.9387ZM52.9387 39.1767V38.8737V38.5707H53.2408H53.5446V38.8737V39.1767H53.2408H52.9387ZM52.9387 38.7979V38.495V38.192H53.2408H53.5446V38.495V38.7979H53.2408H52.9387Z" fill="#6944CB"/>
<path d="M59.3888 41.0702V40.7673V40.4643H59.6909H59.9947V40.7673V41.0702H59.6909H59.3888ZM59.7675 41.0702V40.7673V40.4643H60.0697H60.3734V40.7673V41.0702H60.0697H59.7675ZM60.1462 41.0702V40.7673V40.4643H60.4484H60.7521V40.7673V41.0702H60.4484H60.1462ZM60.5249 41.0702V40.7673V40.4643H60.8271H61.1308V40.7673V41.0702H60.8271H60.5249ZM60.9036 41.0702V40.7673V40.4643H61.2058H61.5096V40.7673V41.0702H61.2058H60.9036ZM60.1462 40.6915V40.3886V40.0856H60.4484H60.7521V40.3886V40.6915H60.4484H60.1462ZM60.1462 40.3128V40.0098V39.7069H60.4484H60.7521V40.0098V40.3128H60.4484H60.1462ZM60.1462 39.9341V39.6311V39.3282H60.4484H60.7521V39.6311V39.9341H60.4484H60.1462ZM60.1462 39.5554V39.2524V38.9494H60.4484H60.7521V39.2524V39.5554H60.4484H60.1462ZM60.1462 39.1767V38.8737V38.5707H60.4484H60.7521V38.8737V39.1767H60.4484H60.1462ZM60.1462 38.7979V38.495V38.192H60.4484H60.7521V38.495V38.7979H60.4484H60.1462ZM60.1462 38.4192V38.1163V37.8133H60.4484H60.7521V38.1163V38.4192H60.4484H60.1462ZM60.1462 38.0405V37.7375V37.4346H60.4484H60.7521V37.7375V38.0405H60.4484H60.1462ZM59.3888 37.6618V37.3588V37.0558H59.6909H59.9947V37.3588V37.6618H59.6909H59.3888ZM60.1462 37.6618V37.3588V37.0558H60.4484H60.7521V37.3588V37.6618H60.4484H60.1462ZM59.7675 37.4724V37.1695V36.8665H60.0697H60.3734V37.1695V37.4724H60.0697H59.7675ZM60.1462 37.2831V36.9801V36.6771H60.4484H60.7521V36.9801V37.2831H60.4484H60.1462Z" fill="#6944CB"/>
<path d="M66.975 41.0702V40.7673V40.4643H67.2772H67.5809V40.7673V41.0702H67.2772H66.975ZM67.3537 41.0702V40.7673V40.4643H67.6559H67.9597V40.7673V41.0702H67.6559H67.3537ZM67.7324 41.0702V40.7673V40.4643H68.0346H68.3384V40.7673V41.0702H68.0346H67.7324ZM66.5963 40.6915V40.3886V40.0856H66.8985H67.2022V40.3886V40.6915H66.8985H66.5963ZM68.1111 40.6915V40.3886V40.0856H68.4133H68.7171V40.3886V40.6915H68.4133H68.1111ZM66.5963 40.3128V40.0098V39.7069H66.8985H67.2022V40.0098V40.3128H66.8985H66.5963ZM68.1111 40.3128V40.0098V39.7069H68.4133H68.7171V40.0098V40.3128H68.4133H68.1111ZM66.5963 39.9341V39.6311V39.3282H66.8985H67.2022V39.6311V39.9341H66.8985H66.5963ZM68.1111 39.9341V39.6311V39.3282H68.4133H68.7171V39.6311V39.9341H68.4133H68.1111ZM66.5963 39.5554V39.2524V38.9494H66.8985H67.2022V39.2524V39.5554H66.8985H66.5963ZM68.1111 39.5554V39.2524V38.9494H68.4133H68.7171V39.2524V39.5554H68.4133H68.1111ZM66.5963 39.1767V38.8737V38.5707H66.8985H67.2022V38.8737V39.1767H66.8985H66.5963ZM68.1111 39.1767V38.8737V38.5707H68.4133H68.7171V38.8737V39.1767H68.4133H68.1111ZM66.5963 38.7979V38.495V38.192H66.8985H67.2022V38.495V38.7979H66.8985H66.5963ZM68.1111 38.7979V38.495V38.192H68.4133H68.7171V38.495V38.7979H68.4133H68.1111ZM66.5963 38.4192V38.1163V37.8133H66.8985H67.2022V38.1163V38.4192H66.8985H66.5963ZM68.1111 38.4192V38.1163V37.8133H68.4133H68.7171V38.1163V38.4192H68.4133H68.1111ZM66.5963 38.0405V37.7375V37.4346H66.8985H67.2022V37.7375V38.0405H66.8985H66.5963ZM68.1111 38.0405V37.7375V37.4346H68.4133H68.7171V37.7375V38.0405H68.4133H68.1111ZM66.5963 37.6618V37.3588V37.0558H66.8985H67.2022V37.3588V37.6618H66.8985H66.5963ZM68.1111 37.6618V37.3588V37.0558H68.4133H68.7171V37.3588V37.6618H68.4133H68.1111ZM66.975 37.2831V36.9801V36.6771H67.2772H67.5809V36.9801V37.2831H67.2772H66.975ZM67.3537 37.2831V36.9801V36.6771H67.6559H67.9597V36.9801V37.2831H67.6559H67.3537ZM67.7324 37.2831V36.9801V36.6771H68.0346H68.3384V36.9801V37.2831H68.0346H67.7324ZM67.3537 39.5554V39.2524V38.9494H67.6559H67.9597V39.2524V39.5554H67.6559H67.3537ZM67.3537 39.1767V38.8737V38.5707H67.6559H67.9597V38.8737V39.1767H67.6559H67.3537ZM67.3537 38.7979V38.495V38.192H67.6559H67.9597V38.495V38.7979H67.6559H67.3537Z" fill="#6944CB"/>
<path d="M7.84854 53.4739H0V52.9578C0 52.8723 0.00866693 52.7852 0.0260003 52.6998H7.84854V53.4739ZM1.96213 54.506H0V53.7319H1.96213V54.506ZM1.96213 55.5365H0V54.7624H1.96213V55.5365ZM1.96213 56.5687H0V55.7945H1.96213V56.5687ZM1.96213 57.6008H0V56.8267H1.96213V57.6008ZM1.96213 58.6313H0V57.8572H1.96213V58.6313ZM7.84854 59.6634H0.0260003C0.00866693 59.578 0 59.4908 0 59.4054V58.8893H7.84854V59.6634ZM7.84854 52.4417H0.104C0.331066 51.9256 0.731467 51.6676 1.30693 51.6676H7.8468V52.4417H7.84854ZM7.84854 60.6956H1.30693C0.731467 60.6956 0.331066 60.4376 0.104 59.9215H7.8468V60.6956H7.84854ZM7.84854 55.5365H3.26907V54.7624H7.8468V55.5365H7.84854ZM7.84854 56.5687H3.26907V55.7945H7.8468V56.5687H7.84854ZM7.84854 57.6008H5.8864V56.8267H7.84854V57.6008ZM7.84854 58.6313H5.8864V57.8572H7.84854V58.6313Z" fill="#6944CB"/>
<path d="M16.8606 53.4725H9.66726V52.9564C9.66726 52.8709 9.67593 52.7838 9.69326 52.6983H16.8606V53.4725ZM11.6277 54.5046H9.66553V53.7305H11.6277V54.5046ZM16.8606 55.5351H9.66726V54.761H16.8606V55.5351ZM16.8606 56.5673H9.66726V55.7931H16.8606V56.5673ZM11.6277 57.5994H9.66553V56.8253H11.6277V57.5994ZM11.6277 58.6299H9.66553V57.8557H11.6277V58.6299ZM16.8606 59.662H9.69326C9.67593 59.5766 9.66726 59.4894 9.66726 59.404V58.8879H16.8606V59.662ZM16.8606 52.4403H9.77126C9.99833 51.9242 10.3987 51.6662 10.9742 51.6662H16.8606V52.4403ZM16.8606 60.6942H10.9742C10.3987 60.6942 9.99659 60.4362 9.77126 59.9201H16.8606V60.6942Z" fill="#6944CB"/>
<path d="M21.7398 52.4403H19.2542L18.6787 51.6662H21.1643L21.7398 52.4403ZM21.7398 59.9201L21.1643 60.6942H18.6787L19.2542 59.9201H21.7398ZM22.4972 53.4725H20.0116L19.4362 52.6983H21.9218L22.4972 53.4725ZM22.4972 58.8879L21.9218 59.662H19.4362L20.0116 58.8879H22.4972ZM26.3036 53.7305L25.7403 54.5046H20.7691L20.2058 53.7305H22.6914L23.2547 54.5046L23.818 53.7305H26.3036ZM26.3036 58.6299H23.8198L23.2564 57.8557L22.6931 58.6299H20.2075L20.7708 57.8557H25.742L26.3036 58.6299ZM25.5462 54.761L24.9707 55.5351H21.5439L20.9684 54.761H25.5462ZM25.5462 57.5994H20.9684L21.5439 56.8253H24.9707L25.5462 57.5994ZM24.787 56.5673H21.7259L22.0136 56.181L21.7259 55.7948H24.787L24.4992 56.181L24.787 56.5673ZM27.0767 52.6983L26.5012 53.4725H24.0156L24.5911 52.6983H27.0767ZM27.0767 59.662H24.5911L24.0156 58.8879H26.5012L27.0767 59.662ZM27.8342 51.6662L27.2587 52.4403H24.7731L25.3486 51.6662H27.8342ZM27.8342 60.6942H25.3486L24.7731 59.9201H27.2587L27.8342 60.6942Z" fill="#6944CB"/>
<path d="M31.7979 59.9201L31.4841 60.6942H29.2603L29.574 59.9201H31.7979ZM32.2156 58.8879L31.9019 59.662H29.678L29.9917 58.8879H32.2156ZM38.2337 58.6299H30.0975L30.4112 57.8557H37.92L38.2337 58.6299ZM37.8143 57.5994H30.5152L30.8289 56.8253H37.5005L37.8143 57.5994ZM33.4723 55.7931L33.1585 56.5673H30.9347L31.2484 55.7931H33.4723ZM33.89 54.761L33.5763 55.5351H31.3524L31.6661 54.761H33.89ZM36.5593 54.5046H34.3355L34.1656 54.0791L33.9957 54.5046H31.7719L32.0856 53.7305H36.2456L36.5593 54.5046ZM36.1399 53.4725H32.1896L32.5033 52.6983H35.8261L36.1399 53.4725ZM35.7221 52.4403H32.6091L32.9228 51.6662H35.4084L35.7221 52.4403ZM36.9771 55.5351H34.7532L34.4395 54.761H36.6633L36.9771 55.5351ZM37.3965 56.5673H35.1727L34.8589 55.7931H37.0828L37.3965 56.5673ZM38.6515 59.662H36.4276L36.1139 58.8879H38.3377L38.6515 59.662ZM39.0709 60.6942H36.8471L36.5333 59.9201H38.7572L39.0709 60.6942Z" fill="#6944CB"/>
<path d="M48.2406 52.4403H40.4978V51.6662H47.0377C47.6131 51.6662 48.0135 51.9242 48.2406 52.4403ZM48.3446 53.4725H40.4961V52.6983H48.3186C48.3359 52.7838 48.3446 52.8709 48.3446 52.9564V53.4725ZM42.4582 54.5046H40.4961V53.7305H42.4582V54.5046ZM48.2406 54.761C48.0135 55.277 47.6131 55.5351 47.0377 55.5351H40.4978V54.761H48.2406ZM48.2406 56.5673H40.4978V55.7931H47.0377C47.6131 55.7931 48.0135 56.0512 48.2406 56.5673ZM42.4582 57.5994H40.4961V56.8253H42.4582V57.5994ZM42.4582 58.6299H40.4961V57.8557H42.4582V58.6299ZM48.3446 59.404C48.3446 59.4894 48.3359 59.5766 48.3186 59.662H40.4961V58.8879H48.3446V59.404ZM48.2406 59.9201C48.0135 60.4362 47.6131 60.6942 47.0377 60.6942H40.4978V59.9201H48.2406ZM48.3446 54.2466C48.3446 54.332 48.3359 54.4192 48.3186 54.5046H46.3825V53.7305H48.3446V54.2466ZM48.3446 57.5994H46.3825V56.8253H48.3186C48.3359 56.9107 48.3446 56.9979 48.3446 57.0833V57.5994ZM48.3446 58.6299H46.3825V57.8557H48.3446V58.6299Z" fill="#6944CB"/>
<path d="M53.2237 52.4403H50.7381L50.1626 51.6662H52.6482L53.2237 52.4403ZM53.9829 53.4725H51.4973L50.9218 52.6983H53.4074L53.9829 53.4725ZM57.7893 53.7305L57.2259 54.5046H52.2547L51.6914 53.7305H54.177L54.7403 54.5046L55.3019 53.7305H57.7893ZM57.0301 54.761L56.4546 55.5351H53.0278L52.4523 54.761H57.0301ZM56.2709 55.7931L55.7214 56.5673H53.7593L53.2098 55.7931H56.2709ZM55.7214 57.5994H53.7593V56.8253H55.7214V57.5994ZM55.7214 58.6299H53.7593V57.8557H55.7214V58.6299ZM55.7214 59.662H53.7593V58.8879H55.7214V59.662ZM55.7214 60.6942H53.7593V59.9201H55.7214V60.6942ZM58.5606 52.6983L57.9851 53.4725H55.4995L56.075 52.6983H58.5606ZM59.3181 51.6662L58.7426 52.4403H56.257L56.8325 51.6662H59.3181Z" fill="#6944CB"/>
<path d="M68.9848 52.4403H61.1362V51.6662H68.9848V52.4403ZM68.9848 53.4725H61.1362V52.6983H68.9848V53.4725ZM66.1733 54.5046H64.2112V53.7305H66.1733V54.5046ZM66.1733 55.5351H64.2112V54.761H66.1733V55.5351ZM66.1733 56.5673H64.2112V55.7931H66.1733V56.5673ZM66.1733 57.5994H64.2112V56.8253H66.1733V57.5994ZM66.1733 58.6299H64.2112V57.8557H66.1733V58.6299ZM66.1733 59.662H64.2112V58.8879H66.1733V59.662ZM66.1733 60.6942H64.2112V59.9201H66.1733V60.6942Z" fill="#6944CB"/>
<path d="M77.9988 53.4725H70.8037V52.9564C70.8037 52.8709 70.8124 52.7838 70.8297 52.6983H77.997V53.4725H77.9988ZM72.7658 54.5046H70.8037V53.7305H72.7658V54.5046ZM77.9988 55.5351H70.8037V54.761H77.9988V55.5351ZM77.9988 56.5673H70.8037V55.7931H77.9988V56.5673ZM72.7658 57.5994H70.8037V56.8253H72.7658V57.5994ZM72.7658 58.6299H70.8037V57.8557H72.7658V58.6299ZM77.9988 59.662H70.8314C70.8141 59.5766 70.8054 59.4894 70.8054 59.404V58.8879H78.0005V59.662H77.9988ZM77.9988 52.4403H70.9094C71.1365 51.9242 71.5369 51.6662 72.1124 51.6662H77.9988V52.4403ZM77.9988 60.6942H72.1124C71.5369 60.6942 71.1348 60.4362 70.9094 59.9201H77.9988V60.6942Z" fill="#6944CB"/>
</svg>
