<svg width="24" height="25" viewBox="0 0 24 25" fill="none" xmlns="http://www.w3.org/2000/svg">
<path d="M12.001 20.2881C16.4193 20.2881 20.001 16.7064 20.001 12.2881C20.001 7.86981 16.4193 4.28809 12.001 4.28809C7.5827 4.28809 4.00098 7.86981 4.00098 12.2881C4.00098 16.7064 7.5827 20.2881 12.001 20.2881ZM12.001 22.2881C6.47813 22.2881 2.00098 17.8109 2.00098 12.2881C2.00098 6.76524 6.47813 2.28809 12.001 2.28809C17.5238 2.28809 22.001 6.76524 22.001 12.2881C22.001 17.8109 17.5238 22.2881 12.001 22.2881ZM8.89113 13.4589L6.39308 12.6792C5.85317 12.5136 5.84996 12.1421 6.51397 11.8752L16.247 8.11563C16.8115 7.88453 17.1325 8.17651 16.9495 8.9045L15.2917 16.7258C15.1763 17.2822 14.8407 17.4147 14.3759 17.1579L11.825 15.2704L10.6361 16.4178C10.5139 16.5357 10.4145 16.637 10.2273 16.6624C10.04 16.6877 9.88564 16.6323 9.77337 16.3218L8.90378 13.4509L8.89113 13.4589Z" fill="#6944CB"/>
</svg>
